{
.appVersion = "3148";
.formatVersion = 3;
customParameters = (
{
name = panose;
value = (
2,
0,
5,
6,
6,
0,
0,
2,
0,
4
);
},
{
name = fsType;
value = (
);
},
{
name = blueScale;
value = 0.03963;
},
{
name = blueShift;
value = 7;
},
{
name = "Use Typo Metrics";
value = 1;
}
);
date = "2012-12-24 11:58:53 +0000";
familyName = Denk;
featurePrefixes = (
{
automatic = 1;
code = "languagesystem DFLT dflt;

languagesystem latn dflt;
languagesystem latn CAT;
";
name = Languagesystems;
}
);
features = (
{
automatic = 1;
code = "feature locl;
feature frac;
feature sups;
feature ordn;
";
tag = aalt;
},
{
automatic = 1;
code = "lookup ccmp_latn_1 {
	sub fi by f i;
	sub fl by f l;
} ccmp_latn_1;

script latn;
lookup ccmp_latn_1;
";
tag = ccmp;
},
{
automatic = 1;
code = "lookup locl_latn_0 {
	script latn;
	language CAT;
	sub  l' periodcentered' l by ldot;
	sub  L' periodcentered' L by Ldot;
} locl_latn_0;
";
tag = locl;
},
{
automatic = 1;
code = "sub one by onesuperior;
sub two by twosuperior;
sub three by threesuperior;
";
tag = sups;
},
{
automatic = 1;
code = "sub one slash four by onequarter;
sub one slash two by onehalf;
sub three slash four by threequarters;
";
tag = frac;
},
{
automatic = 1;
code = "sub [zero one two three four five six seven eight nine] [A a]' by ordfeminine;
sub [zero one two three four five six seven eight nine] [O o]' by ordmasculine;
";
tag = ordn;
},
{
automatic = 1;
code = "lookupflag IgnoreMarks;
sub f f i by f_f_i;
sub f f l by f_f_l;
sub f f by f_f;
sub f i by fi;
sub f l by fl;
";
tag = liga;
}
);
fontMaster = (
{
customParameters = (
{
name = hheaAscender;
value = 2118;
},
{
name = hheaDescender;
value = -442;
},
{
name = hheaLineGap;
value = 0;
},
{
name = typoAscender;
value = 2118;
},
{
name = typoDescender;
value = -475;
},
{
name = typoLineGap;
value = 0;
},
{
name = strikeoutSize;
value = 226;
},
{
name = strikeoutPosition;
value = 593;
},
{
name = winAscent;
value = 2118;
},
{
name = winDescent;
value = 442;
},
{
name = weightClass;

glyphs = (
{
glyphname = A;
layers = (
{
anchors = (
{
name = btm;
pos = (540,-170);
},
{
name = top;
pos = (540,1700);
}
);
layerId = "3E12A9BE-1094-4827-ACE3-4E9390329AA7";
shapes = (
{
closed = 1;
nodes = (
(322,1696,o),
(300,1681,o),
(288,1605,c),
(23,78,ls),
(11,7,o),
(48,0,o),
(152,0,cs),
(279,0,o),
(296,7,o),
(308,78,cs),
(535,1394,l),
(544,1394,l),
(771,78,ls),
(783,7,o),
(800,0,o),
(927,0,cs),
(1032,0,o),
(1068,7,o),
(1056,78,cs),
(791,1605,l),
(779,1681,o),
(757,1696,o),
(540,1696,cs)
);
},
{
closed = 1;
nodes = (
(801,317,l),
(801,507,l),
(267,507,l),
(267,317,l)
);
}
);
userData = {
com.typemytype.robofont.guides = (
{
angle = 0;
isGlobal = 0;
magnetic = 5;
x = 0;
y = 1696;
},
{
angle = 90;
isGlobal = 0;
magnetic = 5;
x = 541;
y = 0;
}
);
};
vertWidth = 0;
width = 1079;
}
);
unicode = 65;
},
{
glyphname = Aring;
layers = (
{
layerId = "3E12A9BE-1094-4827-ACE3-4E9390329AA7";
shapes = (
{
closed = 1;
nodes = (
(217,1705,o),
(355,1643,o),
(531,1643,cs),
(707,1643,o),
(845,1705,o),
(845,1844,cs),
(845,1917,ls),
(845,2056,o),
(707,2118,o),
(531,2118,cs),
(355,2118,o),
(217,2056,o),
(217,1917,cs),
(217,1844,l)
);
},
{
closed = 1;
nodes = (
(14,78,ls),
(1,7,o),
(39,0,o),
(143,0,cs),
(270,0,o),
(287,7,o),
(299,78,cs),
(526,1426,l),
(535,1426,l),
(762,78,ls),
(774,7,o),
(791,0,o),
(918,0,cs),
(1023,0,o),
(1060,7,o),
(1047,78,cs),
(741,1719,l),
(320,1719,l)
);
},
{
closed = 1;
nodes = (
(792,317,l),
(792,507,l),
(258,507,l),
(258,317,l)
);
},
{
closed = 1;
nodes = (
(631,1778,o),
(599,1747,o),
(531,1747,cs),
(463,1747,o),
(431,1778,o),
(431,1829,cs),
(431,1900,ls),
(431,1951,o),
(463,1982,o),
(531,1982,cs),
(599,1982,o),
(631,1951,o),
(631,1900,cs),
(631,1829,l)
);
}
);
vertWidth = 0;
width = 1061;
}
);
unicode = 197;
},
{
glyphname = AE;
layers = (
{
anchors = (
{
name = btm;
pos = (719,-170);
},
{
name = top;
pos = (719,1700);
}
);
layerId = "3E12A9BE-1094-4827-ACE3-4E9390329AA7";
shapes = (
{
closed = 1;
nodes = (
(425,1690,o),
(402,1673,o),
(385,1598,cs),
(43,78,ls),
(31,7,o),
(67,0,o),
(172,0,cs),
(283,0,o),
(298,8,o),
(316,78,cs),
(678,1494,l),
(938,1494,l),
(938,1690,l),
(617,1690,l)
);
},
{
closed = 1;
nodes = (
(878,317,l),
(878,507,l),
(287,507,l),
(287,317,l)
);
},
{
closed = 1;
nodes = (
(987,1,o),
(1001,12,o),
(1003,64,cs),
(1046,1608,ls),
(1048,1677,o),
(1023,1690,o),
(864,1690,cs),
(715,1690,o),
(690,1677,o),
(692,1608,cs),
(736,69,ls),
(738,8,o),
(750,1,o),
(864,1,c)
);
},
{
closed = 1;
nodes = (
(1328,1494,ls),
(1397,1494,o),
(1399,1511,o),
(1399,1592,cs),
(1399,1672,o),
(1397,1690,o),
(1328,1690,cs),
(865,1690,l),
(865,1494,l)
);
},
{
closed = 1;
nodes = (
(1266,690,ls),
(1336,690,o),
(1337,707,o),
(1337,785,cs),
(1337,863,o),
(1336,880,o),
(1266,880,cs),
(804,880,l),
(804,690,l)
);
},
{
closed = 1;
nodes = (
(1290,1,ls),
(1359,1,o),
(1361,22,o),
(1361,94,cs),
(1361,167,o),
(1359,187,o),
(1290,187,cs),
(864,187,l),
(864,1,l)
);
}
);
userData = {
com.typemytype.robofont.guides = (
{
angle = 0;
isGlobal = 0;
magnetic = 5;
x = 0;
y = 1696;
},
{
angle = 90;
isGlobal = 0;
magnetic = 5;
x = 635;
y = 0;
}
);
};
vertWidth = 0;
width = 1440;
}
);
unicode = 198;
},
{
glyphname = B;
layers = (
{
anchors = (
{
name = btm;
pos = (582,-170);
},
{
name = top;
pos = (582,1700);
}
);
layerId = "3E12A9BE-1094-4827-ACE3-4E9390329AA7";
shapes = (
{
closed = 1;
nodes = (
(591,750,ls),
(925,750,o),
(1030,934,o),
(1034,1087,cs),
(1040,1364,ls),
(1046,1595,o),
(834,1690,o),
(560,1690,cs),
(332,1690,l),
(332,1517,l),
(528,1517,ls),
(656,1517,o),
(685,1499,o),
(688,1396,cs),
(702,1019,ls),
(705,907,o),
(667,872,o),
(539,872,cs),
(238,872,l),
(238,750,l)
);
},
{
closed = 1;
nodes = (
(430,0,o),
(444,7,o),
(445,68,cs),
(489,1607,ls),
(491,1676,o),
(465,1690,o),
(307,1690,cs),
(148,1690,o),
(123,1676,o),
(125,1607,cs),
(168,68,ls),
(170,7,o),
(184,0,o),
(307,0,cs)
);
},
{
closed = 1;
nodes = (
(568,0,ls),
(902,0,o),
(1007,165,o),
(1012,317,cs),
(1018,494,ls),
(1026,725,o),
(803,833,o),
(522,833,cs),
(347,833,l),
(347,697,l),
(544,697,ls),
(672,697,o),
(707,675,o),
(712,571,cs),
(718,311,ls),
(723,199,o),
(683,163,o),
(554,163,cs),
(325,163,l),
(325,0,l)
);
}
);
userData = {
com.typemytype.robofont.guides = (
{
angle = 0;
isGlobal = 0;
magnetic = 5;
x = 0;
y = 689;
},
{
angle = 0;
isGlobal = 0;
magnetic = 5;
x = 0;
y = 880;
},
{
angle = 90;
isGlobal = 0;
magnetic = 5;
x = 591;
y = 0;
}
);
};
vertWidth = 0;
width = 1140;
}
);
unicode = 66;
},
{
glyphname = C;
layers = (
{
anchors = (
{
name = btm;
pos = (604,-170);
},
{
name = top;
pos = (604,1700);
}
);
layerId = "3E12A9BE-1094-4827-ACE3-4E9390329AA7";
shapes = (
{
closed = 1;
nodes = (
(1064,496,o),
(1041,507,o),
(920,507,cs),
(797,507,o),
(758,496,o),
(761,415,cs),
(765,296,ls),
(769,184,o),
(722,151,o),
(604,151,cs),
(486,151,o),
(440,184,o),
(443,296,cs),
(472,1396,ls),
(475,1513,o),
(519,1529,o),
(604,1529,cs),
(689,1529,o),
(733,1513,o),
(736,1396,c),
(749,879,ls),
(751,798,o),
(787,787,o),
(912,787,cs),
(1036,787,o),
(1074,798,o),
(1076,879,cs),
(1088,1365,ls),
(1093,1565,o),
(949,1701,o),
(604,1701,cs),
(258,1701,o),
(115,1565,o),
(120,1365,cs),
(148,305,ls),
(153,131,o),
(281,-12,o),
(604,-12,cs),
(927,-12,o),
(1054,129,o),
(1059,303,c),
(1062,415,l)
);
}
);
vertWidth = 0;
width = 1198;
}
);
unicode = 67;
},
{
glyphname = D;
layers = (
{
anchors = (
{
name = btm;
pos = (611,-170);
},
{
name = top;
pos = (611,1700);
}
);
layerId = "3E12A9BE-1094-4827-ACE3-4E9390329AA7";
shapes = (
{
closed = 1;
nodes = (
(602,0,ls),
(922,0,o),
(1063,124,o),
(1069,324,cs),
(1098,1334,ls),
(1105,1566,o),
(957,1690,o),
(599,1690,cs),
(304,1690,l),
(304,1517,l),
(617,1517,ls),
(702,1517,o),
(744,1498,o),
(747,1382,cs),
(776,311,ls),
(779,199,o),
(738,163,o),
(612,163,cs),
(297,163,l),
(280,0,l)
);
},
{
closed = 1;
nodes = (
(430,0,o),
(444,7,o),
(445,68,cs),
(489,1607,ls),
(491,1676,o),
(465,1690,o),
(307,1690,cs),
(148,1690,o),
(123,1676,o),
(125,1607,cs),
(168,68,ls),
(170,7,o),
(184,0,o),
(307,0,cs)
);
}
);
userData = {
com.typemytype.robofont.guides = (
{
angle = 90;
isGlobal = 0;
magnetic = 5;
x = 575;
y = 0;
}
);
};
vertWidth = 0;
width = 1222;
}
);
unicode = 68;
},
{
glyphname = Eth;
layers = (
{
layerId = "3E12A9BE-1094-4827-ACE3-4E9390329AA7";
shapes = (
{
closed = 1;
nodes = (
(602,0,ls),
(922,0,o),
(1063,124,o),
(1069,324,cs),
(1098,1334,ls),
(1105,1566,o),
(957,1690,o),
(599,1690,cs),
(304,1690,l),
(304,1517,l),
(617,1517,ls),
(702,1517,o),
(744,1498,o),
(747,1382,cs),
(776,311,ls),
(779,199,o),
(738,163,o),
(612,163,cs),
(297,163,l),
(280,0,l)
);
},
{
closed = 1;
nodes = (
(430,0,o),
(444,7,o),
(445,68,cs),
(489,1607,ls),
(491,1676,o),
(465,1690,o),
(307,1690,cs),
(148,1690,o),
(123,1676,o),
(125,1607,cs),
(168,68,ls),
(170,7,o),
(184,0,o),
(307,0,cs)
);
},
{
closed = 1;
nodes = (
(648,781,o),
(650,797,o),
(650,871,cs),
(650,945,o),
(648,961,o),
(578,961,cs),
(89,961,ls),
(19,961,o),
(17,945,o),
(17,871,cs),
(17,797,o),
(19,781,o),
(89,781,cs),
(578,781,l)
);
}
);
vertWidth = 0;
width = 1222;
}
);
unicode = 208;
},
{
glyphname = Dcroat;
layers = (
{
layerId = "3E12A9BE-1094-4827-ACE3-4E9390329AA7";
shapes = (
{
closed = 1;
nodes = (
(602,0,ls),
(922,0,o),
(1063,124,o),
(1069,324,cs),
(1098,1334,ls),
(1105,1566,o),
(957,1690,o),
(599,1690,cs),
(304,1690,l),
(304,1517,l),
(617,1517,ls),
(702,1517,o),
(744,1498,o),
(747,1382,cs),
(776,311,ls),
(779,199,o),
(738,163,o),
(612,163,cs),
(297,163,l),
(280,0,l)
);
},
{
closed = 1;
nodes = (
(430,0,o),
(444,7,o),
(445,68,cs),
(489,1607,ls),
(491,1676,o),
(465,1690,o),
(307,1690,cs),
(148,1690,o),
(123,1676,o),
(125,1607,cs),
(168,68,ls),
(170,7,o),
(184,0,o),
(307,0,cs)
);
},
{
closed = 1;
nodes = (
(648,781,o),
(650,797,o),
(650,871,cs),
(650,945,o),
(648,961,o),
(578,961,cs),
(89,961,ls),
(19,961,o),
(17,945,o),
(17,871,cs),
(17,797,o),
(19,781,o),
(89,781,cs),
(578,781,l)
);
}
);
vertWidth = 0;
width = 1222;
}
);
unicode = 272;
},
{
glyphname = E;
layers = (
{
anchors = (
{
name = btm;
pos = (482,-170);
},
{
name = top;
pos = (482,1700);
}
);
layerId = "3E12A9BE-1094-4827-ACE3-4E9390329AA7";
shapes = (
{
closed = 1;
nodes = (
(430,0,o),
(444,11,o),
(445,63,cs),
(489,1607,ls),
(491,1676,o),
(465,1690,o),
(307,1690,cs),
(148,1690,o),
(123,1676,o),
(125,1607,cs),
(168,68,ls),
(170,7,o),
(184,0,o),
(307,0,c)
);
},
{
closed = 1;
nodes = (
(770,1493,ls),
(840,1493,o),
(841,1510,o),
(841,1591,cs),
(841,1671,o),
(840,1689,o),
(770,1689,cs),
(308,1689,l),
(308,1493,l)
);
},
{
closed = 1;
nodes = (
(709,689,ls),
(778,689,o),
(780,706,o),
(780,784,cs),
(780,862,o),
(778,879,o),
(709,879,cs),
(247,879,l),
(247,689,l)
);
},
{
closed = 1;
nodes = (
(733,0,ls),
(802,0,o),
(804,21,o),
(804,93,cs),
(804,166,o),
(802,186,o),
(733,186,cs),
(307,186,l),
(307,0,l)
);
}
);
vertWidth = 0;
width = 901;
}
);
unicode = 69;
},
{
glyphname = uni018F;
layers = (
{
layerId = "3E12A9BE-1094-4827-ACE3-4E9390329AA7";
shapes = (
{
closed = 1;
nodes = (
(112,1193,o),
(135,1182,o),
(256,1182,cs),
(379,1182,o),
(448,1193,o),
(445,1274,cs),
(441,1393,ls),
(437,1505,o),
(475,1538,o),
(572,1538,cs),
(666,1538,o),
(707,1505,o),
(704,1393,cs),
(689,293,ls),
(686,176,o),
(650,160,o),
(572,160,cs),
(495,160,o),
(474,176,o),
(471,293,c),
(451,810,ls),
(449,891,o),
(251,901,o),
(126,901,c),
(152,324,ls),
(147,124,o),
(235,-12,o),
(572,-12,cs),
(910,-12,o),
(1011,124,o),
(1006,324,cs),
(1048,1384,ls),
(1053,1558,o),
(916,1701,o),
(572,1701,cs),
(235,1701,o),
(106,1560,o),
(111,1386,cs),
(114,1274,l)
);
},
{
closed = 1;
nodes = (
(938,715,o),
(940,700,o),
(940,782,cs),
(940,872,o),
(938,901,o),
(868,901,cs),
(240,901,ls),
(170,901,o),
(168,873,o),
(168,783,cs),
(168,701,o),
(170,715,o),
(240,715,cs),
(868,715,ls)
);
}
);
vertWidth = 0;
width = 1166;
}
);
unicode = 399;
},
{
glyphname = F;
layers = (
{
anchors = (
{
name = btm;
pos = (482,-170);
},
{
name = top;
pos = (482,1700);
}
);
layerId = "3E12A9BE-1094-4827-ACE3-4E9390329AA7";
shapes = (
{
closed = 1;
nodes = (
(430,0,o),
(444,11,o),
(445,63,cs),
(489,1607,ls),
(491,1676,o),
(465,1690,o),
(307,1690,cs),
(148,1690,o),
(123,1676,o),
(125,1607,cs),
(168,68,ls),
(170,7,o),
(184,0,o),
(307,0,c)
);
},
{
closed = 1;
nodes = (
(770,1493,ls),
(840,1493,o),
(841,1510,o),
(841,1591,cs),
(841,1671,o),
(840,1689,o),
(770,1689,cs),
(308,1689,l),
(308,1493,l)
);
},
{
closed = 1;
nodes = (
(709,689,ls),
(778,689,o),
(780,706,o),
(780,784,cs),
(780,862,o),
(778,879,o),
(709,879,cs),
(247,879,l),
(247,689,l)
);
}
);
vertWidth = 0;
width = 901;
}
);
unicode = 70;
},
{
glyphname = G;
layers = (
{
anchors = (
{
name = btm;
pos = (584,-170);
},
{
name = top;
pos = (584,1700);
}
);
layerId = "3E12A9BE-1094-4827-ACE3-4E9390329AA7";
shapes = (
{
closed = 1;
nodes = (
(999,1486,o),
(1012,1498,o),
(1012,1578,cs),
(1012,1676,o),
(1014,1690,o),
(923,1690,cs),
(625,1690,ls),
(260,1690,o),
(120,1551,o),
(125,1357,cs),
(153,305,ls),
(158,131,o),
(280,-12,o),
(589,-12,cs),
(898,-12,o),
(1020,129,o),
(1025,303,cs),
(1043,938,ls),
(1045,1019,o),
(1025,1030,o),
(885,1030,cs),
(746,1030,o),
(710,1019,o),
(713,938,cs),
(731,296,ls),
(735,184,o),
(693,151,o),
(589,151,cs),
(485,151,o),
(445,184,o),
(447,296,cs),
(477,1355,ls),
(480,1472,o),
(525,1490,o),
(624,1486,cs),
(952,1486,l)
);
}
);
userData = {
com.typemytype.robofont.guides = (
{
angle = 90;
isGlobal = 0;
magnetic = 5;
x = 1043;
y = 0;
}
);
};
vertWidth = 0;
width = 1145;
}
);
unicode = 71;
},
{
glyphname = H;
layers = (
{
anchors = (
{
name = btm;
pos = (615,-170);
},
{
name = top;
pos = (615,1700);
}
);
layerId = "3E12A9BE-1094-4827-ACE3-4E9390329AA7";
shapes = (
{
closed = 1;
nodes = (
(822,689,l),
(822,879,l),
(388,879,l),
(388,689,l)
);
},
{
closed = 1;
nodes = (
(430,0,o),
(444,7,o),
(445,68,cs),
(489,1607,ls),
(491,1676,o),
(465,1690,o),
(307,1690,cs),
(148,1690,o),
(123,1676,o),
(125,1607,cs),
(168,68,ls),
(170,7,o),
(184,0,o),
(307,0,cs)
);
},
{
closed = 1;
nodes = (
(1046,0,o),
(1060,7,o),
(1062,68,cs),
(1106,1607,ls),
(1108,1676,o),
(1082,1690,o),
(924,1690,cs),
(765,1690,o),
(740,1676,o),
(742,1607,cs),
(785,68,ls),
(787,7,o),
(801,0,o),
(924,0,cs)
);
}
);
vertWidth = 0;
width = 1231;
}
);
unicode = 72;
},
{
glyphname = Hbar;
layers = (
{
layerId = "3E12A9BE-1094-4827-ACE3-4E9390329AA7";
shapes = (
{
closed = 1;
nodes = (
(1290,1078,o),
(1292,1103,o),
(1292,1185,cs),
(1292,1275,o),
(1290,1304,o),
(1220,1304,cs),
(132,1304,ls),
(62,1304,o),
(60,1276,o),
(60,1186,cs),
(60,1104,o),
(62,1078,o),
(132,1078,cs),
(1220,1078,l)
);
},
{
pos = (59,0);
ref = H;
}
);
vertWidth = 0;
width = 1351;
}
);
unicode = 294;
},
{
glyphname = I;
layers = (
{
anchors = (
{
name = btm;
pos = (307,-170);
},
{
name = top;
pos = (307,1700);
}
);
layerId = "3E12A9BE-1094-4827-ACE3-4E9390329AA7";
shapes = (
{
closed = 1;
nodes = (
(430,0,o),
(444,7,o),
(445,68,cs),
(489,1607,ls),
(491,1676,o),
(465,1690,o),
(307,1690,cs),
(148,1690,o),
(123,1676,o),
(125,1607,cs),
(168,68,ls),
(170,7,o),
(184,0,o),
(307,0,cs)
);
}
);
vertWidth = 0;
width = 614;
}
);
unicode = 73;
},
{
glyphname = IJ;
layers = (
{
layerId = "3E12A9BE-1094-4827-ACE3-4E9390329AA7";
shapes = (
{
closed = 1;
nodes = (
(430,645,o),
(459,652,o),
(461,713,cs),
(488,1607,ls),
(490,1676,o),
(465,1690,o),
(307,1690,cs),
(148,1690,o),
(123,1676,o),
(125,1607,cs),
(152,713,ls),
(154,652,o),
(184,645,o),
(307,645,cs)
);
},
{
closed = 1;
nodes = (
(782,184,o),
(742,151,o),
(617,151,cs),
(502,151,o),
(446,179,o),
(451,280,cs),
(454,381,ls),
(458,462,o),
(440,473,o),
(301,473,cs),
(177,473,o),
(153,461,o),
(156,381,cs),
(159,292,ls),
(165,126,o),
(314,-12,o),
(617,-12,cs),
(941,-12,o),
(1066,131,o),
(1071,305,cs),
(1107,1607,ls),
(1109,1676,o),
(1083,1690,o),
(925,1690,cs),
(766,1690,o),
(741,1682,o),
(743,1607,cs),
(779,296,l)
);
}
);
vertWidth = 0;
width = 1232;
}
);
unicode = 306;
},
{
glyphname = J;
layers = (
{
anchors = (
{
name = btm;
pos = (470,-170);
},
{
name = top;
pos = (691,1700);
}
);
layerId = "3E12A9BE-1094-4827-ACE3-4E9390329AA7";
shapes = (
{
closed = 1;
nodes = (
(565,184,o),
(537,151,o),
(460,151,cs),
(384,151,o),
(355,184,o),
(358,296,cs),
(367,696,ls),
(369,777,o),
(343,788,o),
(204,788,cs),
(81,788,o),
(49,777,o),
(50,696,cs),
(61,303,ls),
(66,129,o),
(179,-12,o),
(460,-12,cs),
(742,-12,o),
(849,131,o),
(854,305,cs),
(890,1607,ls),
(892,1676,o),
(866,1690,o),
(708,1690,cs),
(549,1690,o),
(524,1676,o),
(526,1607,cs),
(562,296,l)
);
}
);
userData = {
com.typemytype.robofont.guides = (
{
angle = 90;
isGlobal = 0;
magnetic = 5;
x = 952;
y = 0;
}
);
};
vertWidth = 0;
width = 1015;
}
);
unicode = 74;
},
{
glyphname = K;
layers = (
{
anchors = (
{
name = btm;
pos = (595,-170);
},
{
name = top;
pos = (595,1700);
}
);
layerId = "3E12A9BE-1094-4827-ACE3-4E9390329AA7";
shapes = (
{
closed = 1;
nodes = (
(1044,0,o),
(1060,13,o),
(1060,45,cs),
(1060,66,o),
(1049,94,o),
(1031,142,cs),
(804,719,l),
(1049,1545,ls),
(1060,1581,o),
(1066,1598,o),
(1066,1632,cs),
(1066,1682,o),
(1010,1690,o),
(894,1690,cs),
(754,1690,o),
(729,1677,o),
(711,1600,cs),
(528,719,l),
(800,80,ls),
(828,15,o),
(841,0,o),
(934,0,cs)
);
},
{
closed = 1;
nodes = (
(430,0,o),
(444,7,o),
(445,68,cs),
(489,1607,ls),
(491,1676,o),
(465,1690,o),
(307,1690,cs),
(148,1690,o),
(123,1676,o),
(125,1607,cs),
(168,68,ls),
(170,7,o),
(184,0,o),
(307,0,cs)
);
}
);
userData = {
com.typemytype.robofont.guides = (
{
angle = 90;
isGlobal = 0;
magnetic = 5;
x = 1069;
y = 0;
}
);
};
vertWidth = 0;
width = 1100;
}
);
unicode = 75;
},
{
glyphname = L;
layers = (
{
anchors = (
{
name = btm;
pos = (451,-170);
},
{
name = top;
pos = (451,1700);
}
);
layerId = "3E12A9BE-1094-4827-ACE3-4E9390329AA7";
shapes = (
{
closed = 1;
nodes = (
(430,0,o),
(444,11,o),
(445,63,cs),
(489,1607,ls),
(491,1676,o),
(465,1690,o),
(307,1690,cs),
(148,1690,o),
(123,1676,o),
(125,1607,cs),
(168,68,ls),
(170,7,o),
(184,0,o),
(307,0,c)
);
},
{
closed = 1;
nodes = (
(709,0,ls),
(778,0,o),
(780,21,o),
(780,93,cs),
(780,166,o),
(778,186,o),
(709,186,cs),
(307,186,l),
(307,0,l)
);
}
);
userData = {
com.typemytype.robofont.guides = (
{
angle = 90;
isGlobal = 0;
magnetic = 5;
x = 841;
y = 0;
},
{
angle = 90;
isGlobal = 0;
magnetic = 5;
x = 781;
y = 0;
}
);
};
vertWidth = 0;
width = 820;
}
);
unicode = 76;
},
{
glyphname = Lcaron;
layers = (
{
layerId = "3E12A9BE-1094-4827-ACE3-4E9390329AA7";
shapes = (
{
closed = 1;
nodes = (
(797,1016,o),
(809,1023,o),
(823,1085,c),
(941,1640,l),
(953,1710,o),
(930,1724,o),
(805,1724,cs),
(680,1724,o),
(653,1710,o),
(645,1640,c),
(607,1085,ls),
(603,1023,o),
(613,1016,o),
(705,1016,cs)
);
},
{
ref = L;
}
);
vertWidth = 0;
width = 820;
}
);
unicode = 317;
},
{
glyphname = Ldot;
layers = (
{
layerId = "3E12A9BE-1094-4827-ACE3-4E9390329AA7";
shapes = (
{
closed = 1;
nodes = (
(862,738,o),
(879,745,o),
(882,795,cs),
(893,990,ls),
(896,1047,o),
(877,1063,o),
(741,1063,cs),
(605,1063,o),
(585,1047,o),
(589,990,cs),
(601,795,ls),
(604,745,o),
(620,738,o),
(741,738,cs)
);
},
{
ref = L;
}
);
vertWidth = 0;
width = 884;
}
);
unicode = 319;
},
{
glyphname = Lslash;
layers = (
{
layerId = "3E12A9BE-1094-4827-ACE3-4E9390329AA7";
shapes = (
{
closed = 1;
nodes = (
(22,750,o),
(13,731,o),
(13,679,cs),
(13,612,ls),
(13,566,o),
(20,553,o),
(43,553,cs),
(60,553,o),
(83,562,o),
(130,590,cs),
(733,946,ls),
(773,969,o),
(780,991,o),
(780,1047,cs),
(780,1135,ls),
(780,1167,o),
(769,1184,o),
(745,1184,cs),
(721,1184,o),
(701,1171,o),
(668,1150,cs),
(56,771,l)
);
},
{
ref = L;
}
);
userData = {
com.typemytype.robofont.guides = (
{
angle = 90;
isGlobal = 0;
magnetic = 5;
x = 780;
y = 0;
}
);
};
vertWidth = 0;
width = 820;
}
);
unicode = 321;
},
{
glyphname = M;
layers = (
{
anchors = (
{
name = btm;
pos = (772,-170);
},
{
name = top;
pos = (772,1700);
}
);
layerId = "3E12A9BE-1094-4827-ACE3-4E9390329AA7";
shapes = (
{
closed = 1;
nodes = (
(496,1635,ls),
(483,1679,o),
(440,1690,o),
(307,1690,cs),
(160,1690,o),
(123,1676,o),
(125,1607,cs),
(168,68,ls),
(170,7,o),
(183,0,o),
(297,0,cs),
(411,0,o),
(425,7,o),
(426,68,cs),
(421,1145,l),
(434,1145,l),
(661,346,ls),
(677,296,o),
(686,286,o),
(766,286,cs),
(857,286,o),
(868,295,o),
(884,346,cs),
(1114,1145,l),
(1127,1145,l),
(1120,68,ls),
(1121,7,o),
(1135,0,o),
(1248,0,cs),
(1362,0,o),
(1375,7,o),
(1377,68,cs),
(1421,1607,ls),
(1423,1676,o),
(1395,1690,o),
(1238,1690,cs),
(1113,1690,o),
(1071,1679,o),
(1059,1635,cs),
(785,785,l),
(774,785,l)
);
}
);
userData = {
com.typemytype.robofont.guides = (
{
angle = 90;
isGlobal = 0;
magnetic = 5;
x = 652;
y = 0;
}
);
};
vertWidth = 0;
width = 1545;
}
);
unicode = 77;
},
{
glyphname = N;
layers = (
{
anchors = (
{
name = btm;
pos = (617,-170);
},
{
name = top;
pos = (617,1700);
}
);
layerId = "3E12A9BE-1094-4827-ACE3-4E9390329AA7";
shapes = (
{
closed = 1;
nodes = (
(264,1518,l),
(847,28,l),
(983,146,l),
(432,1646,l)
);
},
{
closed = 1;
nodes = (
(409,0,o),
(421,7,o),
(423,68,cs),
(436,1607,ls),
(438,1676,o),
(414,1690,o),
(283,1690,cs),
(143,1690,o),
(123,1676,o),
(125,1607,cs),
(168,68,ls),
(170,7,o),
(185,0,o),
(304,0,cs)
);
},
{
closed = 1;
nodes = (
(1051,0,o),
(1063,37,o),
(1065,98,cs),
(1109,1607,ls),
(1111,1676,o),
(1088,1690,o),
(930,1690,cs),
(789,1690,o),
(765,1676,o),
(767,1607,cs),
(841,68,ls),
(843,7,o),
(877,0,o),
(946,0,cs)
);
},
{
closed = 1;
nodes = (
(499,1063,l),
(499,1120,l),
(414,1120,l),
(414,1063,l)
);
},
{
closed = 1;
nodes = (
(853,569,l),
(853,627,l),
(768,627,l),
(768,569,l)
);
}
);
userData = {
com.typemytype.robofont.guides = (
{
angle = 90;
isGlobal = 0;
magnetic = 5;
x = 296;
y = 0;
}
);
};
vertWidth = 0;
width = 1234;
}
);
unicode = 78;
},
{
glyphname = Eng;
layers = (
{
layerId = "3E12A9BE-1094-4827-ACE3-4E9390329AA7";
shapes = (
{
closed = 1;
nodes = (
(819,176,o),
(821,65,o),
(821,46,cs),
(821,-82,o),
(786,-159,o),
(696,-159,cs),
(661,-159,ls),
(606,-159,o),
(599,-173,o),
(599,-239,cs),
(599,-305,o),
(606,-316,o),
(661,-316,cs),
(768,-316,ls),
(996,-316,o),
(1054,-112,o),
(1065,98,c),
(819,198,l)
);
},
{
closed = 1;
nodes = (
(264,1518,l),
(847,28,l),
(983,146,l),
(432,1646,l)
);
},
{
closed = 1;
nodes = (
(409,0,o),
(421,7,o),
(423,68,c),
(436,1607,l),
(438,1676,o),
(414,1690,o),
(283,1690,cs),
(143,1690,o),
(123,1676,o),
(125,1607,cs),
(168,68,ls),
(170,7,o),
(185,0,o),
(304,0,cs)
);
},
{
closed = 1;
nodes = (
(1051,0,o),
(1065,98,o),
(1065,98,c),
(1109,1607,ls),
(1111,1676,o),
(1088,1690,o),
(930,1690,cs),
(789,1690,o),
(765,1676,o),
(767,1607,c),
(841,68,l),
(843,7,o),
(877,0,o),
(946,0,cs)
);
},
{
closed = 1;
nodes = (
(499,1063,l),
(499,1120,l),
(414,1120,l),
(414,1063,l)
);
},
{
closed = 1;
nodes = (
(853,569,l),
(853,627,l),
(768,627,l),
(768,569,l)
);
}
);
vertWidth = 0;
width = 1234;
}
);
unicode = 330;
},
{
glyphname = O;
layers = (
{
anchors = (
{
name = btm;
pos = (604,-170);
},
{
name = top;
pos = (604,1700);
}
);
layerId = "3E12A9BE-1094-4827-ACE3-4E9390329AA7";
shapes = (
{
closed = 1;
nodes = (
(486,151,o),
(440,184,o),
(443,296,cs),
(472,1396,ls),
(475,1513,o),
(519,1529,o),
(604,1529,cs),
(689,1529,o),
(733,1513,o),
(736,1396,cs),
(765,296,ls),
(768,184,o),
(722,151,o),
(604,151,cs)
);
},
{
closed = 1;
nodes = (
(927,-12,o),
(1054,131,o),
(1059,305,cs),
(1088,1365,ls),
(1093,1565,o),
(949,1701,o),
(604,1701,cs),
(258,1701,o),
(115,1565,o),
(120,1365,cs),
(148,305,ls),
(153,131,o),
(281,-12,o),
(604,-12,cs)
);
}
);
userData = {
com.typemytype.robofont.guides = (
{
angle = 0;
isGlobal = 0;
magnetic = 5;
x = 0;
y = 1774;
},
{
angle = 90;
isGlobal = 0;
magnetic = 5;
x = 604;
y = 0;
}
);
};
vertWidth = 0;
width = 1208;
}
);
unicode = 79;
},
{
glyphname = Oslash;
layers = (
{
layerId = "3E12A9BE-1094-4827-ACE3-4E9390329AA7";
shapes = (
{
closed = 1;
nodes = (
(1076,1927,ls),
(1097,1979,o),
(1070,1996,o),
(956,1997,cs),
(841,1998,o),
(832,1979,o),
(814,1926,cs),
(725,1653,l),
(922,1542,l)
);
},
{
closed = 1;
nodes = (
(168,-207,l),
(147,-252,o),
(166,-264,o),
(254,-265,cs),
(325,-266,o),
(350,-262,o),
(369,-216,cs),
(495,91,l),
(292,175,l)
);
},
{
ref = O;
}
);
vertWidth = 0;
width = 1208;
}
);
unicode = 216;
},
{
glyphname = OE;
layers = (
{
layerId = "3E12A9BE-1094-4827-ACE3-4E9390329AA7";
shapes = (
{
closed = 1;
nodes = (
(486,162,o),
(440,195,o),
(443,307,cs),
(472,1387,ls),
(475,1503,o),
(519,1519,o),
(604,1519,cs),
(901,1519,l),
(901,1690,l),
(604,1690,ls),
(258,1690,o),
(115,1555,o),
(120,1355,cs),
(148,316,ls),
(153,142,o),
(281,-1,o),
(604,-1,c),
(879,-1,l),
(879,162,l),
(604,162,l)
);
},
{
closed = 1;
nodes = (
(980,0,o),
(994,11,o),
(996,63,cs),
(1039,1607,ls),
(1041,1676,o),
(1016,1690,o),
(857,1690,cs),
(699,1690,o),
(673,1676,o),
(675,1607,cs),
(719,68,ls),
(721,7,o),
(735,0,o),
(857,0,c)
);
},
{
closed = 1;
nodes = (
(1321,1494,ls),
(1390,1494,o),
(1392,1511,o),
(1392,1592,cs),
(1392,1672,o),
(1390,1690,o),
(1321,1690,cs),
(858,1690,l),
(858,1494,l)
);
},
{
closed = 1;
nodes = (
(1259,689,ls),
(1329,689,o),
(1331,706,o),
(1331,784,cs),
(1331,862,o),
(1329,879,o),
(1259,879,cs),
(797,879,l),
(797,689,l)
);
},
{
closed = 1;
nodes = (
(1283,0,ls),
(1352,0,o),
(1354,21,o),
(1354,93,cs),
(1354,166,o),
(1352,186,o),
(1283,186,cs),
(857,186,l),
(857,0,l)
);
}
);
userData = {
com.typemytype.robofont.guides = (
{
angle = 90;
isGlobal = 0;
magnetic = 5;
x = 604;
y = 0;
}
);
};
vertWidth = 0;
width = 1432;
}
);
unicode = 338;
},
{
glyphname = P;
layers = (
{
anchors = (
{
name = btm;
pos = (582,-170);
},
{
name = top;
pos = (582,1700);
}
);
layerId = "3E12A9BE-1094-4827-ACE3-4E9390329AA7";
shapes = (
{
closed = 1;
nodes = (
(583,570,ls),
(917,570,o),
(1023,737,o),
(1027,889,cs),
(1040,1364,ls),
(1047,1595,o),
(834,1690,o),
(560,1690,cs),
(332,1690,l),
(332,1517,l),
(528,1517,ls),
(656,1517,o),
(685,1499,o),
(688,1396,cs),
(702,881,ls),
(705,769,o),
(667,733,o),
(539,733,cs),
(238,733,l),
(238,570,l)
);
},
{
closed = 1;
nodes = (
(430,0,o),
(444,7,o),
(445,68,cs),
(489,1607,ls),
(491,1676,o),
(465,1690,o),
(307,1690,cs),
(148,1690,o),
(123,1676,o),
(125,1607,cs),
(168,68,ls),
(170,7,o),
(184,0,o),
(307,0,cs)
);
}
);
userData = {
com.typemytype.robofont.guides = (
{
angle = 90;
isGlobal = 0;
magnetic = 5;
x = 591;
y = 0;
}
);
};
vertWidth = 0;
width = 1126;
}
);
unicode = 80;
},
{
glyphname = Thorn;
layers = (
{
layerId = "3E12A9BE-1094-4827-ACE3-4E9390329AA7";
shapes = (
{
closed = 1;
nodes = (
(623,299,ls),
(956,299,o),
(1062,465,o),
(1066,617,cs),
(1080,1093,ls),
(1087,1324,o),
(873,1418,o),
(600,1418,cs),
(332,1418,l),
(332,1246,l),
(567,1246,ls),
(696,1246,o),
(725,1228,o),
(728,1124,cs),
(742,610,ls),
(744,498,o),
(707,462,o),
(578,462,cs),
(238,462,l),
(238,299,l)
);
},
{
closed = 1;
nodes = (
(430,0,o),
(444,7,o),
(445,68,cs),
(489,1607,ls),
(491,1676,o),
(465,1690,o),
(307,1690,cs),
(148,1690,o),
(123,1676,o),
(125,1607,cs),
(168,68,ls),
(170,7,o),
(184,0,o),
(307,0,cs)
);
}
);
userData = {
com.typemytype.robofont.guides = (
{
angle = 90;
isGlobal = 0;
magnetic = 5;
x = 591;
y = 0;
}
);
};
vertWidth = 0;
width = 1180;
}
);
unicode = 222;
},
{
glyphname = Q;
layers = (
{
anchors = (
{
name = btm;
pos = (604,-170);
},
{
name = top;
pos = (604,1700);
}
);
layerId = "3E12A9BE-1094-4827-ACE3-4E9390329AA7";
shapes = (
{
closed = 1;
nodes = (
(486,151,o),
(440,184,o),
(443,296,cs),
(472,1396,ls),
(475,1513,o),
(519,1529,o),
(604,1529,cs),
(689,1529,o),
(733,1513,o),
(736,1396,cs),
(765,296,ls),
(768,184,o),
(722,151,o),
(604,151,cs)
);
},
{
closed = 1;
nodes = (
(927,-12,o),
(1054,131,o),
(1059,305,cs),
(1088,1365,ls),
(1093,1565,o),
(949,1701,o),
(604,1701,cs),
(258,1701,o),
(115,1565,o),
(120,1365,cs),
(148,305,ls),
(153,131,o),
(281,-12,o),
(604,-12,cs)
);
},
{
closed = 1;
nodes = (
(783,-212,ls),
(831,-276,o),
(836,-286,o),
(939,-286,cs),
(1049,-286,o),
(1060,-273,o),
(1060,-241,cs),
(1060,-221,o),
(1038,-191,o),
(1006,-144,cs),
(874,54,l),
(588,54,l)
);
}
);
userData = {
com.typemytype.robofont.guides = (
{
angle = 90;
isGlobal = 0;
magnetic = 5;
x = 604;
y = 0;
},
{
angle = 90;
isGlobal = 0;
magnetic = 5;
x = 1061;
y = 0;
}
);
};
vertWidth = 0;
width = 1208;
}
);
unicode = 81;
},
{
glyphname = R;
layers = (
{
anchors = (
{
name = btm;
pos = (591,-170);
},
{
name = top;
pos = (591,1700);
}
);
layerId = "3E12A9BE-1094-4827-ACE3-4E9390329AA7";
shapes = (
{
closed = 1;
nodes = (
(583,570,ls),
(917,570,o),
(1023,737,o),
(1027,889,cs),
(1040,1364,ls),
(1047,1595,o),
(834,1690,o),
(560,1690,cs),
(332,1690,l),
(332,1517,l),
(528,1517,ls),
(656,1517,o),
(685,1499,o),
(688,1396,cs),
(702,881,ls),
(705,769,o),
(667,733,o),
(539,733,cs),
(238,733,l),
(238,570,l)
);
},
{
closed = 1;
nodes = (
(518,689,l),
(778,80,ls),
(810,15,o),
(825,0,o),
(932,0,cs),
(1042,0,o),
(1058,13,o),
(1058,45,cs),
(1058,66,o),
(1047,94,o),
(1029,142,cs),
(814,689,l)
);
},
{
closed = 1;
nodes = (
(430,0,o),
(444,7,o),
(445,68,cs),
(489,1607,ls),
(491,1676,o),
(465,1690,o),
(307,1690,cs),
(148,1690,o),
(123,1676,o),
(125,1607,cs),
(168,68,ls),
(170,7,o),
(184,0,o),
(307,0,cs)
);
}
);
userData = {
com.typemytype.robofont.guides = (
{
angle = 90;
isGlobal = 0;
magnetic = 5;
x = 591;
y = 0;
},
{
angle = 90;
isGlobal = 0;
magnetic = 5;
x = 1038;
y = 0;
}
);
};
vertWidth = 0;
width = 1140;
}
);
unicode = 82;
},
{
glyphname = S;
layers = (
{
anchors = (
{
name = btm;
pos = (594,-170);
},
{
name = top;
pos = (594,1700);
}
);
layerId = "3E12A9BE-1094-4827-ACE3-4E9390329AA7";
shapes = (
{
closed = 1;
nodes = (
(1069,549,o),
(1023,615,o),
(882,674,cs),
(558,810,ls),
(471,847,o),
(448,897,o),
(450,997,cs),
(461,1396,ls),
(464,1513,o),
(509,1529,o),
(594,1529,cs),
(679,1529,o),
(724,1513,o),
(727,1396,cs),
(739,965,ls),
(741,884,o),
(779,873,o),
(904,873,cs),
(1028,873,o),
(1066,884,o),
(1068,965,cs),
(1078,1365,ls),
(1083,1565,o),
(940,1701,o),
(594,1701,cs),
(248,1701,o),
(104,1565,o),
(110,1365,cs),
(120,1026,ls),
(125,860,o),
(167,763,o),
(320,697,cs),
(667,549,ls),
(754,511,o),
(761,454,o),
(762,361,cs),
(763,296,ls),
(764,184,o),
(722,151,o),
(601,151,cs),
(483,151,o),
(437,184,o),
(441,296,cs),
(445,415,ls),
(447,496,o),
(409,507,o),
(286,507,cs),
(164,507,o),
(142,496,o),
(144,415,cs),
(147,305,ls),
(151,131,o),
(278,-12,o),
(601,-12,cs),
(924,-12,o),
(1051,127,o),
(1057,301,cs),
(1059,357,l)
);
}
);
vertWidth = 0;
width = 1158;
}
);
unicode = 83;
},
{
glyphname = T;
layers = (
{
anchors = (
{
name = btm;
pos = (477,-170);
},
{
name = top;
pos = (477,1700);
}
);
layerId = "3E12A9BE-1094-4827-ACE3-4E9390329AA7";
shapes = (
{
closed = 1;
nodes = (
(600,0,o),
(614,11,o),
(616,63,cs),
(659,1607,ls),
(661,1676,o),
(636,1690,o),
(477,1690,cs),
(319,1690,o),
(293,1676,o),
(295,1607,cs),
(339,68,ls),
(341,7,o),
(354,0,o),
(477,0,c)
);
},
{
closed = 1;
nodes = (
(913,1494,o),
(915,1511,o),
(915,1592,cs),
(915,1672,o),
(913,1690,o),
(843,1690,cs),
(111,1690,ls),
(42,1690,o),
(40,1672,o),
(40,1592,cs),
(40,1511,o),
(42,1494,o),
(111,1494,cs),
(843,1494,l)
);
}
);
vertWidth = 0;
width = 954;
}
);
unicode = 84;
},
{
glyphname = U;
layers = (
{
anchors = (
{
name = btm;
pos = (600,-170);
},
{
name = top;
pos = (600,1700);
}
);
layerId = "3E12A9BE-1094-4827-ACE3-4E9390329AA7";
shapes = (
{
closed = 1;
nodes = (
(149,131,o),
(278,-12,o),
(601,-12,cs),
(924,-12,o),
(1051,131,o),
(1056,305,cs),
(1091,1607,ls),
(1093,1676,o),
(1067,1690,o),
(909,1690,cs),
(750,1690,o),
(725,1676,o),
(727,1607,cs),
(762,296,ls),
(765,184,o),
(719,151,o),
(601,151,cs),
(483,151,o),
(437,184,o),
(440,296,cs),
(474,1607,ls),
(476,1676,o),
(450,1690,o),
(292,1690,cs),
(134,1690,o),
(108,1676,o),
(110,1607,cs),
(146,305,l)
);
}
);
vertWidth = 0;
width = 1201;
}
);
unicode = 85;
},
{
glyphname = V;
layers = (
{
anchors = (
{
name = btm;
pos = (560,-170);
},
{
name = top;
pos = (560,1700);
}
);
layerId = "3E12A9BE-1094-4827-ACE3-4E9390329AA7";
shapes = (
{
closed = 1;
nodes = (
(712,0,o),
(740,9,o),
(755,68,cs),
(1088,1607,ls),
(1102,1674,o),
(1065,1690,o),
(916,1690,cs),
(757,1690,o),
(742,1675,o),
(734,1607,cs),
(584,399,l),
(552,399,l),
(398,1607,ls),
(389,1675,o),
(373,1690,o),
(206,1690,cs),
(56,1690,o),
(19,1674,o),
(34,1607,cs),
(375,68,ls),
(392,9,o),
(421,0,o),
(570,0,cs)
);
}
);
vertWidth = 0;
width = 1121;
}
);
unicode = 86;
},
{
glyphname = W;
layers = (
{
anchors = (
{
name = btm;
pos = (882,-170);
},
{
name = top;
pos = (882,1700);
}
);
layerId = "3E12A9BE-1094-4827-ACE3-4E9390329AA7";
shapes = (
{
closed = 1;
nodes = (
(1103,8,o),
(1136,0,o),
(1293,0,cs),
(1411,0,o),
(1435,9,o),
(1448,68,c),
(1713,1607,ls),
(1723,1675,o),
(1689,1690,o),
(1531,1690,cs),
(1372,1690,o),
(1351,1675,o),
(1348,1607,cs),
(1286,287,l),
(1256,287,l),
(1060,1607,ls),
(1049,1675,o),
(1038,1690,o),
(888,1690,cs),
(747,1690,o),
(735,1675,o),
(726,1607,cs),
(531,287,l),
(501,287,l),
(438,1607,ls),
(435,1676,o),
(413,1690,o),
(246,1690,cs),
(78,1690,o),
(37,1674,o),
(53,1607,cs),
(318,68,ls),
(333,9,o),
(359,0,o),
(493,0,cs),
(643,0,o),
(674,8,o),
(688,68,cs),
(944,1585,l),
(832,1585,l),
(1088,68,l)
);
},
{
closed = 1;
nodes = (
(943,1192,l),
(943,1289,l),
(840,1289,l),
(840,1192,l)
);
}
);
vertWidth = 0;
width = 1764;
}
);
unicode = 87;
},
{
glyphname = X;
layers = (
{
anchors = (
{
name = btm;
pos = (561,-170);
},
{
name = top;
pos = (561,1700);
}
);
layerId = "3E12A9BE-1094-4827-ACE3-4E9390329AA7";
shapes = (
{
closed = 1;
nodes = (
(764,80,ls),
(788,13,o),
(811,0,o),
(918,0,cs),
(1020,0,o),
(1035,21,o),
(1035,53,cs),
(1035,73,o),
(1028,93,o),
(1013,142,cs),
(806,790,l),
(1071,1545,ls),
(1084,1583,o),
(1094,1606,o),
(1094,1632,cs),
(1094,1682,o),
(1054,1690,o),
(908,1690,cs),
(760,1690,o),
(742,1687,o),
(723,1602,cs),
(550,814,l),
(575,814,l),
(400,1602,ls),
(381,1687,o),
(362,1690,o),
(215,1690,cs),
(68,1690,o),
(30,1682,o),
(30,1632,cs),
(30,1606,o),
(39,1582,o),
(51,1545,cs),
(321,790,l),
(114,142,ls),
(99,94,o),
(92,73,o),
(92,53,cs),
(92,21,o),
(107,0,o),
(209,0,cs),
(316,0,o),
(339,13,o),
(362,80,cs),
(588,732,l),
(539,732,l)
);
},
{
closed = 1;
nodes = (
(618,850,l),
(618,916,l),
(514,916,l),
(514,850,l)
);
},
{
closed = 1;
nodes = (
(615,632,l),
(615,690,l),
(511,690,l),
(511,632,l)
);
}
);
userData = {
com.typemytype.robofont.guides = (
{
angle = 90;
isGlobal = 0;
magnetic = 5;
x = 984;
y = 0;
}
);
};
vertWidth = 0;
width = 1124;
}
);
unicode = 88;
},
{
glyphname = Y;
layers = (
{
anchors = (
{
name = btm;
pos = (561,-170);
},
{
name = top;
pos = (561,1700);
}
);
layerId = "3E12A9BE-1094-4827-ACE3-4E9390329AA7";
shapes = (
{
closed = 1;
nodes = (
(1071,1541,ls),
(1083,1578,o),
(1094,1606,o),
(1094,1632,cs),
(1094,1682,o),
(1054,1690,o),
(908,1690,cs),
(760,1690,o),
(739,1688,o),
(723,1602,cs),
(541,648,l),
(585,648,l),
(400,1602,ls),
(383,1687,o),
(362,1690,o),
(215,1690,cs),
(68,1690,o),
(30,1682,o),
(30,1632,cs),
(30,1606,o),
(39,1577,o),
(51,1541,cs),
(411,527,l),
(424,68,ls),
(426,7,o),
(440,0,o),
(562,0,cs),
(685,0,o),
(699,7,o),
(701,68,cs),
(714,520,l)
);
},
{
closed = 1;
nodes = (
(618,746,l),
(618,820,l),
(514,820,l),
(514,746,l)
);
}
);
userData = {
com.typemytype.robofont.guides = (
{
angle = 90;
isGlobal = 0;
magnetic = 5;
x = 1015;
y = 0;
}
);
};
vertWidth = 0;
width = 1124;
}
);
unicode = 89;
},
{
glyphname = Z;
layers = (
{
anchors = (
{
name = btm;
pos = (497,-170);
},
{
name = top;
pos = (497,1700);
}
);
layerId = "3E12A9BE-1094-4827-ACE3-4E9390329AA7";
shapes = (
{
closed = 1;
nodes = (
(360,0,o),
(349,15,o),
(367,63,cs),
(930,1523,l),
(750,1690,l),
(610,1690,o),
(609,1673,o),
(588,1607,cs),
(107,166,l),
(247,0,l)
);
},
{
closed = 1;
nodes = (
(933,1494,o),
(935,1511,o),
(935,1592,cs),
(935,1672,o),
(933,1690,o),
(863,1690,cs),
(131,1690,ls),
(61,1690,o),
(59,1672,o),
(59,1592,cs),
(59,1511,o),
(61,1494,o),
(131,1494,cs),
(863,1494,l)
);
},
{
closed = 1;
nodes = (
(889,0,o),
(891,18,o),
(891,98,cs),
(891,178,o),
(889,196,o),
(820,196,cs),
(173,196,ls),
(104,196,o),
(102,178,o),
(102,98,cs),
(102,18,o),
(104,0,o),
(173,0,cs),
(820,0,l)
);
}
);
vertWidth = 0;
width = 994;
}
);
unicode = 90;
},
{
glyphname = a;
layers = (
{
anchors = (
{
name = btm;
pos = (537,-170);
},
{
name = top;
pos = (537,1700);
}
);
layerId = "3E12A9BE-1094-4827-ACE3-4E9390329AA7";
shapes = (
{
closed = 1;
nodes = (
(970,1108,o),
(772,1214,o),
(543,1214,cs),
(382,1214,o),
(107,1150,o),
(114,937,cs),
(122,724,ls),
(124,674,o),
(143,667,o),
(264,667,cs),
(394,667,o),
(414,674,o),
(415,724,cs),
(422,951,ls),
(425,1040,o),
(472,1058,o),
(540,1058,cs),
(613,1058,o),
(646,1023,o),
(648,950,cs),
(669,187,l),
(680,152,l),
(683,57,ls),
(684,7,o),
(700,0,o),
(803,0,cs),
(915,0,o),
(932,7,o),
(934,57,cs),
(965,925,l)
);
},
{
closed = 1;
nodes = (
(611,613,o),
(489,591,o),
(386,557,cs),
(255,514,o),
(107,440,o),
(109,291,cs),
(110,237,ls),
(112,98,o),
(207,-12,o),
(394,-12,cs),
(615,-12,o),
(771,170,o),
(803,205,c),
(736,287,l),
(704,254,o),
(635,154,o),
(496,154,cs),
(433,154,o),
(383,186,o),
(383,267,cs),
(383,306,ls),
(383,364,o),
(427,398,o),
(493,428,cs),
(543,450,o),
(608,467,o),
(699,481,c),
(713,627,l)
);
}
);
vertWidth = 0;
width = 1086;
}
);
unicode = 97;
},
{
glyphname = ae;
layers = (
{
anchors = (
{
name = btm;
pos = (807,-170);
},
{
name = top;
pos = (807,1700);
}
);
layerId = "3E12A9BE-1094-4827-ACE3-4E9390329AA7";
shapes = (
{
closed = 1;
nodes = (
(962,1100,o),
(782,1214,o),
(522,1214,cs),
(378,1214,o),
(117,1150,o),
(124,958,cs),
(132,724,ls),
(134,674,o),
(153,667,o),
(274,667,cs),
(404,667,o),
(424,674,o),
(425,724,cs),
(432,951,ls),
(435,1040,o),
(482,1058,o),
(550,1058,cs),
(623,1058,o),
(654,1023,o),
(657,950,c),
(756,906,l),
(962,925,l)
);
},
{
closed = 1;
nodes = (
(1267,484,l),
(1267,634,l),
(929,634,l),
(929,484,l)
);
},
{
closed = 1;
nodes = (
(1216,152,o),
(1178,132,o),
(1092,132,cs),
(1001,132,o),
(948,166,o),
(950,250,cs),
(969,927,ls),
(972,1040,o),
(1024,1058,o),
(1090,1058,cs),
(1150,1058,o),
(1195,1040,o),
(1198,927,cs),
(1213,484,l),
(1348,484,ls),
(1468,484,o),
(1488,491,o),
(1490,541,cs),
(1505,910,ls),
(1513,1123,o),
(1292,1214,o),
(1131,1214,cs),
(928,1214,o),
(806,1135,o),
(737,1023,c),
(652,1066,l),
(679,215,l),
(718,151,l),
(813,34,o),
(958,-12,o),
(1083,-12,cs),
(1283,-12,o),
(1480,37,o),
(1480,247,cs),
(1480,291,ls),
(1480,341,o),
(1462,355,o),
(1344,355,cs),
(1234,355,o),
(1216,340,o),
(1216,290,cs),
(1216,247,l)
);
},
{
closed = 1;
nodes = (
(611,613,o),
(489,590,o),
(386,557,c),
(256,512,o),
(107,440,o),
(109,291,cs),
(110,237,ls),
(112,98,o),
(215,-12,o),
(421,-12,cs),
(616,-12,o),
(768,142,o),
(803,197,c),
(736,279,l),
(704,246,o),
(635,154,o),
(496,154,cs),
(433,154,o),
(383,186,o),
(383,267,cs),
(383,306,ls),
(383,364,o),
(427,398,o),
(493,428,cs),
(543,450,o),
(608,467,o),
(699,481,c),
(713,627,l)
);
}
);
userData = {
com.typemytype.robofont.guides = (
{
angle = 0;
isGlobal = 0;
magnetic = 5;
x = 0;
y = 1059;
}
);
};
vertWidth = 0;
width = 1606;
}
);
unicode = 230;
},
{
glyphname = b;
layers = (
{
anchors = (
{
name = btm;
pos = (560,-170);
},
{
name = top;
pos = (701,1700);
}
);
layerId = "3E12A9BE-1094-4827-ACE3-4E9390329AA7";
shapes = (
{
closed = 1;
nodes = (
(454,971,o),
(512,1007,o),
(567,1007,cs),
(626,1007,o),
(678,975,o),
(680,883,cs),
(695,320,ls),
(698,222,o),
(645,167,o),
(560,167,cs),
(487,167,o),
(430,209,o),
(405,243,c),
(399,110,l),
(454,56,o),
(548,-12,o),
(685,-12,cs),
(857,-12,o),
(963,79,o),
(971,320,cs),
(989,883,ls),
(995,1076,o),
(870,1214,o),
(684,1214,cs),
(556,1214,o),
(469,1131,o),
(429,1082,c),
(425,939,l)
);
},
{
closed = 1;
nodes = (
(396,0,o),
(413,7,o),
(414,57,cs),
(415,133,l),
(427,167,l),
(455,1651,ls),
(456,1708,o),
(438,1724,o),
(293,1724,cs),
(148,1724,o),
(130,1708,o),
(131,1651,cs),
(163,57,ls),
(164,7,o),
(181,0,o),
(293,0,cs)
);
}
);
vertWidth = 0;
width = 1100;
}
);
unicode = 98;
},
{
glyphname = c;
layers = (
{
anchors = (
{
name = btm;
pos = (541,-170);
},
{
name = top;
pos = (541,1700);
}
);
layerId = "3E12A9BE-1094-4827-ACE3-4E9390329AA7";
shapes = (
{
closed = 1;
nodes = (
(949,341,o),
(930,355,o),
(812,355,cs),
(693,355,o),
(674,340,o),
(674,290,cs),
(674,259,ls),
(674,164,o),
(634,132,o),
(541,132,cs),
(448,132,o),
(405,166,o),
(408,268,cs),
(428,927,ls),
(431,1040,o),
(475,1058,o),
(541,1058,cs),
(607,1058,o),
(651,1040,o),
(654,927,cs),
(663,599,ls),
(665,549,o),
(687,542,o),
(812,542,cs),
(936,542,o),
(959,549,o),
(961,599,cs),
(971,910,ls),
(979,1123,o),
(768,1214,o),
(541,1214,cs),
(319,1214,o),
(103,1123,o),
(111,910,cs),
(134,276,ls),
(142,58,o),
(335,-12,o),
(542,-12,cs),
(747,-12,o),
(949,57,o),
(949,267,c),
(949,291,l)
);
}
);
userData = {
com.typemytype.robofont.guides = (
{
angle = 90;
isGlobal = 0;
magnetic = 5;
x = 993;
y = 0;
},
{
angle = 90;
isGlobal = 0;
magnetic = 5;
x = 102;
y = 0;
}
);
};
vertWidth = 0;
width = 1062;
}
);
unicode = 99;
},
{
glyphname = d;
layers = (
{
anchors = (
{
name = btm;
pos = (549,-170);
},
{
name = top;
pos = (349,1700);
}
);
layerId = "3E12A9BE-1094-4827-ACE3-4E9390329AA7";
shapes = (
{
closed = 1;
nodes = (
(641,1131,o),
(554,1214,o),
(426,1214,cs),
(240,1214,o),
(115,1076,o),
(121,883,cs),
(139,320,ls),
(147,79,o),
(253,-12,o),
(425,-12,cs),
(562,-12,o),
(656,56,o),
(711,110,c),
(705,243,l),
(680,209,o),
(623,167,o),
(550,167,cs),
(465,167,o),
(412,222,o),
(415,320,cs),
(430,883,ls),
(432,975,o),
(484,1007,o),
(543,1007,cs),
(598,1007,o),
(656,971,o),
(685,939,c),
(681,1082,l)
);
},
{
closed = 1;
nodes = (
(927,0,o),
(945,7,o),
(946,57,cs),
(977,1651,ls),
(978,1708,o),
(960,1724,o),
(815,1724,cs),
(670,1724,o),
(652,1708,o),
(653,1651,cs),
(683,170,l),
(695,139,l),
(695,57,ls),
(695,7,o),
(712,0,o),
(815,0,cs)
);
}
);
vertWidth = 0;
width = 1098;
}
);
unicode = 100;
},
{
glyphname = eth;
layers = (
{
layerId = "3E12A9BE-1094-4827-ACE3-4E9390329AA7";
shapes = (
{
closed = 1;
nodes = (
(238,1214,o),
(103,1123,o),
(111,910,cs),
(134,276,ls),
(142,58,o),
(335,-12,o),
(542,-12,cs),
(747,-12,o),
(940,59,o),
(948,277,c),
(967,880,l),
(967,880,o),
(815,1214,o),
(593,1214,cs)
);
},
{
closed = 1;
nodes = (
(448,132,o),
(405,166,o),
(408,268,cs),
(428,927,ls),
(431,1040,o),
(475,1058,o),
(541,1058,cs),
(607,1058,o),
(651,1040,o),
(654,927,cs),
(674,269,ls),
(677,167,o),
(634,132,o),
(541,132,cs)
);
},
{
closed = 1;
nodes = (
(655,1110,o),
(966,880,o),
(966,880,c),
(974,947,o),
(959,1017,o),
(933,1091,cs),
(853,1314,o),
(653,1560,o),
(556,1782,c),
(520,1867,o),
(476,1870,o),
(359,1870,cs),
(242,1870,o),
(175,1862,o),
(185,1812,cs),
(190,1786,o),
(211,1759,o),
(234,1725,cs),
(655,1110,l)
);
},
{
closed = 1;
nodes = (
(864,1656,o),
(858,1670,o),
(820,1734,cs),
(782,1798,o),
(772,1810,o),
(712,1775,cs),
(246,1498,ls),
(186,1462,o),
(192,1448,o),
(230,1384,cs),
(268,1320,o),
(278,1308,o),
(338,1343,cs),
(804,1620,l)
);
}
);
vertWidth = 0;
width = 1082;
}
);
unicode = 240;
},
{
glyphname = dcaron;
layers = (
{
layerId = "3E12A9BE-1094-4827-ACE3-4E9390329AA7";
shapes = (
{
closed = 1;
nodes = (
(1287,1016,o),
(1299,1023,o),
(1313,1085,c),
(1431,1640,l),
(1443,1710,o),
(1420,1724,o),
(1295,1724,cs),
(1170,1724,o),
(1143,1710,o),
(1135,1640,c),
(1097,1085,ls),
(1093,1023,o),
(1103,1016,o),
(1195,1016,cs)
);
},
{
ref = d;
}
);
vertWidth = 0;
width = 1379;
}
);
unicode = 271;
},
{
glyphname = e;
layers = (
{
anchors = (
{
name = btm;
pos = (536,-170);
},
{
name = top;
pos = (536,1700);
}
);
layerId = "3E12A9BE-1094-4827-ACE3-4E9390329AA7";
shapes = (
{
closed = 1;
nodes = (
(723,484,l),
(723,634,l),
(367,634,l),
(367,484,l)
);
},
{
closed = 1;
nodes = (
(664,164,o),
(626,132,o),
(540,132,cs),
(454,132,o),
(405,166,o),
(408,268,cs),
(428,927,ls),
(431,1040,o),
(480,1058,o),
(546,1058,cs),
(606,1058,o),
(651,1040,o),
(654,927,cs),
(669,484,l),
(804,484,ls),
(924,484,o),
(944,491,o),
(946,541,cs),
(961,910,ls),
(969,1123,o),
(758,1214,o),
(546,1214,cs),
(324,1214,o),
(103,1123,o),
(111,910,cs),
(134,276,ls),
(142,58,o),
(339,-12,o),
(541,-12,cs),
(741,-12,o),
(938,37,o),
(938,247,cs),
(938,291,ls),
(938,341,o),
(920,355,o),
(802,355,cs),
(683,355,o),
(664,340,o),
(664,290,cs),
(664,259,l)
);
}
);
userData = {
com.typemytype.robofont.guides = (
{
angle = 0;
isGlobal = 0;
magnetic = 5;
x = 0;
y = 1398;
},
{
angle = 0;
isGlobal = 0;
magnetic = 5;
x = 0;
y = 570;
},
{
angle = 0;
isGlobal = 0;
magnetic = 5;
x = 0;
y = 880;
},
{
angle = 90;
isGlobal = 0;
magnetic = 5;
x = 734;
y = 0;
}
);
};
vertWidth = 0;
width = 1062;
}
);
unicode = 101;
},
{
glyphname = uni0259;
layers = (
{
anchors = (
{
name = btm;
pos = (536,-170);
},
{
name = top;
pos = (536,1700);
}
);
layerId = "3E12A9BE-1094-4827-ACE3-4E9390329AA7";
shapes = (
{
closed = 1;
nodes = (
(337,718,l),
(337,568,l),
(693,568,l),
(693,718,l)
);
},
{
closed = 1;
nodes = (
(416,1011,o),
(447,1058,o),
(533,1058,cs),
(619,1058,o),
(642,1009,o),
(641,927,cs),
(657,269,ls),
(655,156,o),
(590,132,o),
(524,132,cs),
(464,132,o),
(399,157,o),
(397,270,cs),
(408,718,l),
(256,718,ls),
(136,718,o),
(106,711,o),
(107,661,cs),
(121,276,ls),
(125,63,o),
(302,-12,o),
(514,-12,cs),
(736,-12,o),
(917,78,o),
(925,291,cs),
(948,910,ls),
(956,1133,o),
(732,1214,o),
(533,1214,cs),
(275,1214,o),
(98,1096,o),
(98,934,cs),
(98,911,ls),
(98,861,o),
(140,847,o),
(258,847,cs),
(377,847,o),
(416,862,o),
(416,912,c),
(416,943,l)
);
}
);
userData = {
com.typemytype.robofont.guides = (
{
angle = 0;
isGlobal = 0;
magnetic = 5;
x = 0;
y = 1398;
},
{
angle = 0;
isGlobal = 0;
magnetic = 5;
x = 0;
y = 570;
},
{
angle = 0;
isGlobal = 0;
magnetic = 5;
x = 0;
y = 880;
},
{
angle = 90;
isGlobal = 0;
magnetic = 5;
x = 734;
y = 0;
}
);
};
vertWidth = 0;
width = 1062;
}
);
unicode = 601;
},
{
glyphname = f;
layers = (
{
anchors = (
{
name = btm;
pos = (349,-170);
},
{
name = top;
pos = (349,1700);
}
);
layerId = "3E12A9BE-1094-4827-ACE3-4E9390329AA7";
shapes = (
{
closed = 1;
nodes = (
(642,1544,o),
(644,1567,o),
(644,1634,cs),
(644,1708,o),
(642,1724,o),
(572,1724,cs),
(440,1724,ls),
(230,1724,o),
(132,1557,o),
(135,1384,cs),
(162,57,ls),
(163,7,o),
(180,0,o),
(292,0,cs),
(404,0,o),
(422,7,o),
(423,57,cs),
(450,1413,ls),
(452,1520,o),
(510,1544,o),
(550,1544,cs),
(590,1544,l)
);
},
{
closed = 1;
nodes = (
(594,926,o),
(596,944,o),
(596,1026,cs),
(596,1100,o),
(594,1116,o),
(524,1116,cs),
(110,1116,ls),
(40,1116,o),
(38,1100,o),
(38,1026,cs),
(38,944,o),
(40,926,o),
(110,926,cs),
(524,926,l)
);
}
);
userData = {
com.typemytype.robofont.guides = (
{
angle = 90;
isGlobal = 0;
magnetic = 5;
x = 626;
y = 0;
}
);
};
vertWidth = 0;
width = 635;
}
);
unicode = 102;
},
{
glyphname = g;
layers = (
{
anchors = (
{
name = btm;
pos = (525,-170);
},
{
name = top;
pos = (525,1700);
}
);
layerId = "3E12A9BE-1094-4827-ACE3-4E9390329AA7";
shapes = (
{
closed = 1;
nodes = (
(621,1131,o),
(534,1214,o),
(406,1214,cs),
(220,1214,o),
(95,1076,o),
(101,883,cs),
(119,320,ls),
(127,79,o),
(233,-12,o),
(405,-12,cs),
(542,-12,o),
(636,56,o),
(691,110,c),
(685,243,l),
(660,209,o),
(603,167,o),
(530,167,cs),
(445,167,o),
(392,222,o),
(395,320,cs),
(410,883,ls),
(412,975,o),
(464,1007,o),
(523,1007,cs),
(578,1007,o),
(636,971,o),
(665,939,c),
(661,1082,l)
);
},
{
closed = 1;
nodes = (
(761,-420,o),
(917,-349,o),
(923,-131,cs),
(949,1129,ls),
(950,1186,o),
(933,1202,o),
(797,1202,cs),
(661,1202,o),
(642,1186,o),
(643,1129,cs),
(645,1054,l),
(626,1023,l),
(653,-108,ls),
(656,-210,o),
(611,-245,o),
(495,-245,cs),
(407,-245,o),
(362,-236,o),
(330,-234,cs),
(299,-232,o),
(293,-257,o),
(293,-324,cs),
(293,-388,o),
(298,-402,o),
(330,-408,cs),
(364,-414,o),
(415,-420,o),
(508,-420,cs)
);
}
);
userData = {
com.typemytype.robofont.guides = (
{
angle = 90;
isGlobal = 0;
magnetic = 5;
x = 302;
y = 0;
}
);
};
vertWidth = 0;
width = 1068;
}
);
unicode = 103;
},
{
glyphname = h;
layers = (
{
anchors = (
{
name = btm;
pos = (558,-170);
},
{
name = top;
pos = (558,1700);
}
);
layerId = "3E12A9BE-1094-4827-ACE3-4E9390329AA7";
shapes = (
{
closed = 1;
nodes = (
(992,1092,o),
(869,1214,o),
(706,1214,cs),
(529,1214,o),
(440,1082,o),
(324,934,c),
(324,934,o),
(416,866,o),
(416,866,c),
(441,925,o),
(491,994,o),
(564,994,cs),
(629,994,o),
(675,966,o),
(678,861,cs),
(701,57,ls),
(702,7,o),
(719,0,o),
(831,0,cs),
(943,0,o),
(961,7,o),
(962,57,cs),
(986,890,l)
);
},
{
closed = 1;
nodes = (
(405,0,o),
(423,7,o),
(424,57,cs),
(455,1651,ls),
(456,1708,o),
(438,1724,o),
(293,1724,cs),
(148,1724,o),
(130,1708,o),
(131,1651,cs),
(163,57,ls),
(164,7,o),
(181,0,o),
(293,0,cs)
);
}
);
vertWidth = 0;
width = 1087;
}
);
unicode = 104;
},
{
glyphname = hbar;
layers = (
{
anchors = (
{
name = btm;
pos = (502,-170);
},
{
name = top;
pos = (502,1700);
}
);
layerId = "3E12A9BE-1094-4827-ACE3-4E9390329AA7";
shapes = (
{
closed = 1;
nodes = (
(701,1334,o),
(703,1350,o),
(703,1424,cs),
(703,1498,o),
(701,1514,o),
(631,1514,cs),
(89,1514,ls),
(19,1514,o),
(17,1498,o),
(17,1424,cs),
(17,1350,o),
(19,1334,o),
(89,1334,cs),
(631,1334,l)
);
},
{
ref = h;
}
);
vertWidth = 0;
width = 1087;
}
);
unicode = 295;
},
{
glyphname = i;
layers = (
{
anchors = (
{
name = btm;
pos = (286,-170);
},
{
name = top;
pos = (286,1700);
}
);
layerId = "3E12A9BE-1094-4827-ACE3-4E9390329AA7";
shapes = (
{
closed = 1;
nodes = (
(419,1360,o),
(439,1367,o),
(440,1417,cs),
(451,1612,ls),
(452,1669,o),
(434,1685,o),
(289,1685,cs),
(144,1685,o),
(126,1669,o),
(127,1612,cs),
(139,1417,ls),
(140,1367,o),
(159,1360,o),
(289,1360,cs)
);
},
{
closed = 1;
nodes = (
(396,0,o),
(414,7,o),
(415,57,cs),
(446,1129,ls),
(447,1186,o),
(429,1202,o),
(284,1202,cs),
(139,1202,o),
(121,1186,o),
(122,1129,cs),
(154,57,ls),
(155,7,o),
(172,0,o),
(284,0,cs)
);
}
);
vertWidth = 0;
width = 568;
}
);
unicode = 105;
},
{
glyphname = dotlessi;
layers = (
{
anchors = (
{
name = btm;
pos = (283,-170);
},
{
name = top;
pos = (283,1700);
}
);
layerId = "3E12A9BE-1094-4827-ACE3-4E9390329AA7";
shapes = (
{
closed = 1;
nodes = (
(395,0,o),
(413,7,o),
(414,57,cs),
(445,1129,ls),
(446,1186,o),
(428,1202,o),
(283,1202,cs),
(138,1202,o),
(120,1186,o),
(121,1129,cs),
(153,57,ls),
(154,7,o),
(171,0,o),
(283,0,cs)
);
}
);
vertWidth = 0;
width = 566;
}
);
unicode = 305;
},
{
glyphname = idieresis;
layers = (
{
layerId = "3E12A9BE-1094-4827-ACE3-4E9390329AA7";
shapes = (
{
closed = 1;
nodes = (
(395,0,o),
(413,7,o),
(414,57,cs),
(445,1129,ls),
(446,1186,o),
(428,1202,o),
(283,1202,cs),
(138,1202,o),
(120,1186,o),
(121,1129,cs),
(153,57,ls),
(154,7,o),
(171,0,o),
(283,0,cs)
);
},
{
closed = 1;
nodes = (
(196,1407,o),
(212,1414,o),
(215,1464,cs),
(226,1635,ls),
(229,1692,o),
(211,1708,o),
(84,1708,cs),
(-43,1708,o),
(-62,1692,o),
(-58,1635,cs),
(-46,1464,ls),
(-43,1414,o),
(-28,1407,o),
(84,1407,cs)
);
},
{
closed = 1;
nodes = (
(594,1407,o),
(610,1414,o),
(613,1464,cs),
(624,1635,ls),
(627,1692,o),
(609,1708,o),
(482,1708,cs),
(355,1708,o),
(336,1692,o),
(340,1635,cs),
(352,1464,ls),
(355,1414,o),
(370,1407,o),
(482,1407,cs)
);
}
);
vertWidth = 0;
width = 566;
}
);
unicode = 239;
},
{
glyphname = j;
layers = (
{
anchors = (
{
name = btm;
pos = (287,-170);
},
{
name = top;
pos = (287,1700);
}
);
layerId = "3E12A9BE-1094-4827-ACE3-4E9390329AA7";
shapes = (
{
closed = 1;
nodes = (
(420,1360,o),
(440,1367,o),
(441,1417,cs),
(452,1612,ls),
(453,1669,o),
(435,1685,o),
(290,1685,cs),
(145,1685,o),
(127,1669,o),
(128,1612,cs),
(140,1417,ls),
(141,1367,o),
(160,1360,o),
(290,1360,cs)
);
},
{
closed = 1;
nodes = (
(396,-420,o),
(414,-413,o),
(415,-363,cs),
(447,1129,ls),
(449,1186,o),
(430,1202,o),
(285,1202,cs),
(140,1202,o),
(121,1186,o),
(123,1129,cs),
(156,-363,ls),
(157,-413,o),
(173,-420,o),
(285,-420,cs)
);
}
);
vertWidth = 0;
width = 571;
}
);
unicode = 106;
},
{
glyphname = dotlessj;
layers = (
{
anchors = (
{
name = btm;
pos = (285,-170);
},
{
name = top;
pos = (285,1700);
}
);
layerId = "3E12A9BE-1094-4827-ACE3-4E9390329AA7";
shapes = (
{
closed = 1;
nodes = (
(396,-420,o),
(414,-413,o),
(415,-363,cs),
(447,1129,l),
(449,1186,o),
(430,1202,o),
(285,1202,cs),
(140,1202,o),
(121,1186,o),
(123,1129,c),
(156,-363,ls),
(157,-413,o),
(173,-420,o),
(285,-420,cs)
);
}
);
vertWidth = 0;
width = 571;
}
);
unicode = 567;
},
{
glyphname = k;
layers = (
{
anchors = (
{
name = btm;
pos = (547,-170);
},
{
name = top;
pos = (547,1700);
}
);
layerId = "3E12A9BE-1094-4827-ACE3-4E9390329AA7";
shapes = (
{
closed = 1;
nodes = (
(405,0,o),
(423,7,o),
(424,57,cs),
(455,1651,ls),
(456,1708,o),
(438,1724,o),
(293,1724,cs),
(148,1724,o),
(130,1708,o),
(131,1651,cs),
(163,57,ls),
(164,7,o),
(181,0,o),
(293,0,cs)
);
},
{
closed = 1;
nodes = (
(935,0,o),
(952,5,o),
(952,32,cs),
(952,39,o),
(946,57,o),
(935,87,cs),
(767,542,l),
(951,1094,ls),
(959,1119,o),
(965,1138,o),
(965,1153,cs),
(965,1197,o),
(949,1202,o),
(825,1202,cs),
(688,1202,o),
(662,1192,o),
(649,1137,cs),
(499,542,l),
(695,57,ls),
(714,7,o),
(727,0,o),
(831,0,cs)
);
}
);
vertWidth = 0;
width = 1005;
}
);
unicode = 107;
},
{
glyphname = kgreenlandic;
layers = (
{
anchors = (
{
name = btm;
pos = (542,-170);
},
{
name = top;
pos = (542,1700);
}
);
layerId = "3E12A9BE-1094-4827-ACE3-4E9390329AA7";
shapes = (
{
closed = 1;
nodes = (
(939,0,o),
(956,8,o),
(956,32,cs),
(956,47,o),
(946,68,o),
(929,101,cs),
(745,460,l),
(951,1094,ls),
(959,1119,o),
(965,1138,o),
(965,1153,cs),
(965,1197,o),
(949,1202,o),
(825,1202,cs),
(696,1202,o),
(673,1191,o),
(659,1137,cs),
(481,460,l),
(695,57,ls),
(720,10,o),
(731,0,o),
(835,0,cs)
);
},
{
ref = dotlessi;
}
);
vertWidth = 0;
width = 1005;
}
);
unicode = 312;
},
{
glyphname = l;
layers = (
{
anchors = (
{
name = btm;
pos = (293,-170);
},
{
name = top;
pos = (293,1700);
}
);
layerId = "3E12A9BE-1094-4827-ACE3-4E9390329AA7";
shapes = (
{
closed = 1;
nodes = (
(405,0,o),
(423,7,o),
(424,57,cs),
(455,1651,ls),
(456,1708,o),
(438,1724,o),
(293,1724,cs),
(148,1724,o),
(130,1708,o),
(131,1651,cs),
(163,57,ls),
(164,7,o),
(181,0,o),
(293,0,cs)
);
}
);
vertWidth = 0;
width = 586;
}
);
unicode = 108;
},
{
glyphname = lcaron;
layers = (
{
layerId = "3E12A9BE-1094-4827-ACE3-4E9390329AA7";
shapes = (
{
closed = 1;
nodes = (
(712,1016,o),
(724,1023,o),
(738,1085,c),
(856,1640,l),
(868,1710,o),
(845,1724,o),
(720,1724,cs),
(595,1724,o),
(568,1710,o),
(560,1640,c),
(522,1085,ls),
(518,1023,o),
(528,1016,o),
(620,1016,cs)
);
},
{
ref = l;
}
);
vertWidth = 0;
width = 810;
}
);
unicode = 318;
},
{
glyphname = ldot;
layers = (
{
layerId = "3E12A9BE-1094-4827-ACE3-4E9390329AA7";
shapes = (
{
closed = 1;
nodes = (
(810,734,o),
(827,741,o),
(830,791,cs),
(841,986,ls),
(844,1043,o),
(825,1059,o),
(689,1059,cs),
(553,1059,o),
(533,1043,o),
(537,986,cs),
(549,791,ls),
(552,741,o),
(568,734,o),
(689,734,cs)
);
},
{
ref = l;
}
);
vertWidth = 0;
width = 854;
}
);
unicode = 320;
},
{
glyphname = lslash;
layers = (
{
layerId = "3E12A9BE-1094-4827-ACE3-4E9390329AA7";
shapes = (
{
closed = 1;
nodes = (
(21,805,o),
(12,786,o),
(12,734,cs),
(12,665,ls),
(12,619,o),
(19,606,o),
(42,606,cs),
(59,606,o),
(82,617,o),
(129,646,cs),
(640,946,ls),
(679,970,o),
(687,991,o),
(687,1047,cs),
(687,1125,ls),
(687,1175,o),
(677,1186,o),
(653,1186,cs),
(629,1186,o),
(594,1161,o),
(561,1140,cs),
(55,826,l)
);
},
{
pos = (42,0);
ref = l;
}
);
vertWidth = 0;
width = 693;
}
);
unicode = 322;
},
{
glyphname = m;
layers = (
{
anchors = (
{
name = btm;
pos = (819,-170);
},
{
name = top;
pos = (819,1700);
}
);
layerId = "3E12A9BE-1094-4827-ACE3-4E9390329AA7";
shapes = (
{
closed = 1;
nodes = (
(395,0,o),
(413,7,o),
(414,57,cs),
(442,1010,l),
(423,1035,l),
(425,1129,ls),
(426,1186,o),
(409,1202,o),
(273,1202,cs),
(137,1202,o),
(120,1186,o),
(121,1129,cs),
(153,57,ls),
(154,7,o),
(171,0,o),
(283,0,cs)
);
},
{
closed = 1;
nodes = (
(984,1092,o),
(861,1214,o),
(698,1214,cs),
(521,1214,o),
(432,1082,o),
(316,934,c),
(316,934,o),
(408,866,o),
(408,866,c),
(433,925,o),
(483,994,o),
(556,994,cs),
(621,994,o),
(667,966,o),
(670,861,cs),
(693,57,ls),
(694,7,o),
(711,0,o),
(823,0,cs),
(935,0,o),
(953,7,o),
(954,57,cs),
(978,890,l)
);
},
{
closed = 1;
nodes = (
(1524,1092,o),
(1401,1214,o),
(1238,1214,cs),
(1061,1214,o),
(972,1082,o),
(856,934,c),
(856,934,o),
(948,866,o),
(948,866,c),
(973,925,o),
(1023,994,o),
(1096,994,cs),
(1161,994,o),
(1207,966,o),
(1210,861,cs),
(1233,57,ls),
(1234,7,o),
(1251,0,o),
(1363,0,cs),
(1475,0,o),
(1493,7,o),
(1494,57,cs),
(1518,890,l)
);
}
);
userData = {
com.typemytype.robofont.guides = (
{
angle = 0;
isGlobal = 0;
magnetic = 5;
x = 0;
y = 44;
}
);
};
vertWidth = 0;
width = 1619;
}
);
unicode = 109;
},
{
glyphname = n;
layers = (
{
anchors = (
{
name = btm;
pos = (549,-170);
},
{
name = top;
pos = (549,1700);
}
);
layerId = "3E12A9BE-1094-4827-ACE3-4E9390329AA7";
shapes = (
{
closed = 1;
nodes = (
(395,0,o),
(413,7,o),
(414,57,cs),
(442,1010,l),
(423,1035,l),
(425,1129,ls),
(426,1186,o),
(409,1202,o),
(273,1202,cs),
(137,1202,o),
(120,1186,o),
(121,1129,cs),
(153,57,ls),
(154,7,o),
(171,0,o),
(283,0,cs)
);
},
{
closed = 1;
nodes = (
(984,1092,o),
(861,1214,o),
(698,1214,cs),
(521,1214,o),
(432,1082,o),
(316,934,c),
(316,934,o),
(408,866,o),
(408,866,c),
(433,925,o),
(483,994,o),
(556,994,cs),
(621,994,o),
(667,966,o),
(670,861,cs),
(693,57,ls),
(694,7,o),
(711,0,o),
(823,0,cs),
(935,0,o),
(953,7,o),
(954,57,cs),
(978,890,l)
);
}
);
userData = {
com.typemytype.robofont.guides = (
{
angle = 0;
isGlobal = 0;
magnetic = 5;
x = 0;
y = 44;
}
);
};
vertWidth = 0;
width = 1079;
}
);
unicode = 110;
},
{
glyphname = napostrophe;
layers = (
{
layerId = "3E12A9BE-1094-4827-ACE3-4E9390329AA7";
shapes = (
{
closed = 1;
nodes = (
(-95,1302,o),
(-67,1295,o),
(-1,1295,cs),
(83,1295,o),
(99,1305,o),
(127,1363,c),
(205,1547,ls),
(228,1597,o),
(229,1628,o),
(232,1687,cs),
(239,1828,ls),
(242,1885,o),
(218,1901,o),
(55,1901,cs),
(-99,1901,o),
(-122,1885,o),
(-118,1828,cs),
(-108,1692,ls),
(-106,1659,o),
(-97,1627,o),
(-41,1627,cs),
(16,1627,l),
(-52,1442,ls),
(-78,1381,o),
(-95,1354,o),
(-95,1335,cs)
);
},
{
ref = n;
}
);
vertWidth = 0;
width = 1079;
}
);
unicode = 329;
},
{
glyphname = eng;
layers = (
{
layerId = "3E12A9BE-1094-4827-ACE3-4E9390329AA7";
shapes = (
{
closed = 1;
nodes = (
(395,0,o),
(413,7,o),
(414,57,cs),
(442,1010,l),
(423,1035,l),
(425,1129,ls),
(426,1186,o),
(409,1202,o),
(273,1202,cs),
(137,1202,o),
(120,1186,o),
(121,1129,cs),
(153,57,ls),
(154,7,o),
(171,0,o),
(283,0,cs)
);
},
{
closed = 1;
nodes = (
(984,1092,o),
(861,1214,o),
(698,1214,cs),
(521,1214,o),
(432,1082,o),
(316,934,c),
(316,934,o),
(408,866,o),
(408,866,c),
(433,925,o),
(483,994,o),
(556,994,cs),
(621,994,o),
(667,966,o),
(670,861,cs),
(693,57,ls),
(694,7,o),
(711,0,o),
(823,0,cs),
(935,0,o),
(953,7,o),
(954,57,cs),
(978,890,l)
);
},
{
closed = 1;
nodes = (
(693,35,o),
(693,-14,o),
(693,-33,cs),
(693,-151,o),
(665,-200,o),
(575,-200,cs),
(540,-200,ls),
(485,-200,o),
(478,-214,o),
(478,-280,cs),
(478,-346,o),
(485,-357,o),
(540,-357,cs),
(647,-357,ls),
(875,-357,o),
(943,-153,o),
(954,57,c),
(693,57,l)
);
}
);
vertWidth = 0;
width = 1079;
}
);
unicode = 331;
},
{
glyphname = o;
layers = (
{
anchors = (
{
name = btm;
pos = (541,-170);
},
{
name = top;
pos = (541,1700);
}
);
layerId = "3E12A9BE-1094-4827-ACE3-4E9390329AA7";
shapes = (
{
closed = 1;
nodes = (
(319,1214,o),
(103,1123,o),
(111,910,cs),
(134,276,ls),
(142,58,o),
(335,-12,o),
(542,-12,cs),
(747,-12,o),
(940,59,o),
(948,277,cs),
(971,910,ls),
(979,1123,o),
(763,1214,o),
(541,1214,cs)
);
},
{
closed = 1;
nodes = (
(448,132,o),
(405,166,o),
(408,268,cs),
(428,927,ls),
(431,1040,o),
(475,1058,o),
(541,1058,cs),
(607,1058,o),
(651,1040,o),
(654,927,cs),
(674,269,ls),
(677,167,o),
(634,132,o),
(541,132,cs)
);
}
);
userData = {
com.typemytype.robofont.guides = (
{
angle = 0;
isGlobal = 0;
magnetic = 5;
x = 0;
y = 925;
}
);
};
vertWidth = 0;
width = 1081;
}
);
unicode = 111;
},
{
glyphname = oslash;
layers = (
{
layerId = "3E12A9BE-1094-4827-ACE3-4E9390329AA7";
shapes = (
{
closed = 1;
nodes = (
(957,1424,ls),
(977,1475,o),
(951,1493,o),
(837,1494,cs),
(722,1495,o),
(713,1475,o),
(695,1423,cs),
(597,1122,l),
(800,1028,l)
);
},
{
closed = 1;
nodes = (
(229,-208,ls),
(214,-255,o),
(227,-265,o),
(315,-266,cs),
(386,-267,o),
(411,-262,o),
(430,-217,cs),
(552,71,l),
(344,136,l)
);
},
{
ref = o;
}
);
userData = {
com.typemytype.robofont.guides = (
{
angle = 90;
isGlobal = 0;
magnetic = 5;
x = 972;
y = 0;
},
{
angle = 90;
isGlobal = 0;
magnetic = 5;
x = 135;
y = 0;
}
);
};
vertWidth = 0;
width = 1081;
}
);
unicode = 248;
},
{
glyphname = oe;
layers = (
{
layerId = "3E12A9BE-1094-4827-ACE3-4E9390329AA7";
shapes = (
{
closed = 1;
nodes = (
(1257,484,l),
(1257,634,l),
(919,634,l),
(919,484,l)
);
},
{
closed = 1;
nodes = (
(1206,152,o),
(1168,132,o),
(1082,132,cs),
(991,132,o),
(938,166,o),
(940,250,cs),
(959,927,ls),
(962,1040,o),
(1014,1058,o),
(1080,1058,cs),
(1140,1058,o),
(1185,1040,o),
(1188,927,c),
(1203,484,l),
(1338,484,ls),
(1458,484,o),
(1478,491,o),
(1480,541,cs),
(1495,910,ls),
(1503,1123,o),
(1282,1214,o),
(1121,1214,cs),
(918,1214,o),
(813,1132,o),
(759,1066,c),
(642,1066,l),
(670,167,l),
(708,151,l),
(803,34,o),
(948,-12,o),
(1073,-12,cs),
(1273,-12,o),
(1470,37,o),
(1470,247,cs),
(1470,291,ls),
(1470,341,o),
(1452,355,o),
(1334,355,cs),
(1224,355,o),
(1206,340,o),
(1206,290,cs),
(1206,247,l)
);
},
{
closed = 1;
nodes = (
(668,143,o),
(595,132,o),
(541,132,cs),
(448,132,o),
(405,166,o),
(408,268,cs),
(428,927,ls),
(431,1040,o),
(475,1058,o),
(541,1058,cs),
(585,1058,o),
(638,1044,o),
(646,967,c),
(884,1066,l),
(789,1166,o),
(688,1214,o),
(526,1214,cs),
(319,1214,o),
(103,1123,o),
(111,910,cs),
(134,276,ls),
(142,58,o),
(315,-12,o),
(495,-12,cs),
(710,-12,o),
(821,92,o),
(861,145,c),
(668,246,l)
);
}
);
userData = {
com.typemytype.robofont.guides = (
{
angle = 0;
isGlobal = 0;
magnetic = 5;
x = 0;
y = 1059;
}
);
};
vertWidth = 0;
width = 1596;
}
);
unicode = 339;
},
{
glyphname = p;
layers = (
{
anchors = (
{
name = btm;
pos = (548,-170);
},
{
name = top;
pos = (548,1700);
}
);
layerId = "3E12A9BE-1094-4827-ACE3-4E9390329AA7";
shapes = (
{
closed = 1;
nodes = (
(441,971,o),
(499,1007,o),
(554,1007,cs),
(613,1007,o),
(665,975,o),
(667,883,cs),
(682,320,ls),
(685,222,o),
(632,167,o),
(547,167,cs),
(474,167,o),
(417,209,o),
(392,243,c),
(386,110,l),
(441,56,o),
(535,-12,o),
(672,-12,cs),
(844,-12,o),
(950,79,o),
(958,320,cs),
(976,883,ls),
(982,1076,o),
(857,1214,o),
(671,1214,cs),
(543,1214,o),
(450,1127,o),
(380,1047,c),
(412,939,l)
);
},
{
closed = 1;
nodes = (
(394,-420,o),
(412,-413,o),
(413,-363,cs),
(443,1014,l),
(423,1041,l),
(425,1129,l),
(427,1186,o),
(409,1202,o),
(273,1202,cs),
(137,1202,o),
(119,1186,o),
(121,1129,c),
(154,-363,ls),
(155,-413,o),
(171,-420,o),
(283,-420,cs)
);
}
);
vertWidth = 0;
width = 1087;
}
);
unicode = 112;
},
{
glyphname = thorn;
layers = (
{
layerId = "3E12A9BE-1094-4827-ACE3-4E9390329AA7";
shapes = (
{
closed = 1;
nodes = (
(395,-419,o),
(412,-412,o),
(413,-362,cs),
(444,1652,ls),
(445,1709,o),
(428,1724,o),
(282,1724,cs),
(137,1724,o),
(119,1708,o),
(120,1651,cs),
(153,-363,ls),
(154,-413,o),
(170,-419,o),
(283,-419,cs)
);
},
{
closed = 1;
nodes = (
(441,971,o),
(499,1007,o),
(554,1007,cs),
(613,1007,o),
(665,975,o),
(667,883,cs),
(682,320,ls),
(685,222,o),
(632,167,o),
(547,167,cs),
(474,167,o),
(417,209,o),
(392,243,c),
(386,110,l),
(441,56,o),
(535,-12,o),
(672,-12,cs),
(844,-12,o),
(950,79,o),
(958,320,cs),
(976,883,ls),
(982,1076,o),
(857,1214,o),
(671,1214,cs),
(543,1214,o),
(450,1127,o),
(380,1047,c),
(412,939,l)
);
}
);
vertWidth = 0;
width = 1087;
}
);
unicode = 254;
},
{
glyphname = q;
layers = (
{
anchors = (
{
name = btm;
pos = (536,-170);
},
{
name = top;
pos = (536,1700);
}
);
layerId = "3E12A9BE-1094-4827-ACE3-4E9390329AA7";
shapes = (
{
closed = 1;
nodes = (
(631,1131,o),
(544,1214,o),
(416,1214,cs),
(230,1214,o),
(105,1076,o),
(111,883,cs),
(129,320,ls),
(137,79,o),
(243,-12,o),
(415,-12,cs),
(552,-12,o),
(646,56,o),
(701,110,c),
(695,243,l),
(670,209,o),
(613,167,o),
(540,167,cs),
(455,167,o),
(402,222,o),
(405,320,cs),
(420,883,ls),
(422,975,o),
(474,1007,o),
(533,1007,cs),
(588,1007,o),
(646,971,o),
(675,939,c),
(671,1082,l)
);
},
{
closed = 1;
nodes = (
(911,-420,o),
(929,-413,o),
(930,-363,cs),
(962,1129,l),
(964,1186,o),
(946,1202,o),
(810,1202,cs),
(674,1202,o),
(656,1186,o),
(658,1129,c),
(659,1051,l),
(640,1014,l),
(671,-363,ls),
(672,-413,o),
(688,-420,o),
(800,-420,cs)
);
}
);
userData = {
com.typemytype.robofont.guides = (
{
angle = 0;
isGlobal = 0;
magnetic = 5;
x = 0;
y = -523;
}
);
};
vertWidth = 0;
width = 1078;
}
);
unicode = 113;
},
{
glyphname = r;
layers = (
{
anchors = (
{
name = btm;
pos = (283,-170);
},
{
name = top;
pos = (441,1700);
}
);
layerId = "3E12A9BE-1094-4827-ACE3-4E9390329AA7";
shapes = (
{
closed = 1;
nodes = (
(395,0,o),
(413,7,o),
(414,57,cs),
(442,1010,l),
(425,1035,l),
(425,1129,ls),
(425,1186,o),
(409,1202,o),
(273,1202,cs),
(137,1202,o),
(120,1186,o),
(121,1129,cs),
(153,57,ls),
(154,7,o),
(171,0,o),
(283,0,cs)
);
},
{
closed = 1;
nodes = (
(918,1143,o),
(821,1214,o),
(692,1214,cs),
(526,1214,o),
(424,1076,o),
(316,934,c),
(316,934,o),
(400,866,o),
(400,866,c),
(429,909,o),
(481,994,o),
(542,994,cs),
(589,994,o),
(619,966,o),
(622,861,cs),
(626,724,ls),
(628,674,o),
(643,667,o),
(764,667,cs),
(885,667,o),
(904,674,o),
(905,724,cs),
(912,954,l)
);
}
);
vertWidth = 0;
width = 952;
}
);
unicode = 114;
},
{
glyphname = s;
layers = (
{
anchors = (
{
name = btm;
pos = (527,-170);
},
{
name = top;
pos = (527,1700);
}
);
layerId = "3E12A9BE-1094-4827-ACE3-4E9390329AA7";
shapes = (
{
closed = 1;
nodes = (
(126,40,o),
(344,-12,o),
(538,-12,cs),
(738,-12,o),
(917,51,o),
(925,235,cs),
(927,281,ls),
(933,408,o),
(894,468,o),
(759,516,cs),
(507,606,ls),
(438,629,o),
(410,670,o),
(412,735,cs),
(419,952,ls),
(422,1038,o),
(467,1058,o),
(533,1058,cs),
(599,1058,o),
(642,1040,o),
(645,951,cs),
(652,724,ls),
(653,674,o),
(673,667,o),
(803,667,cs),
(923,667,o),
(943,674,o),
(945,724,cs),
(953,934,ls),
(961,1147,o),
(750,1214,o),
(533,1214,cs),
(311,1214,o),
(93,1131,o),
(101,918,cs),
(107,743,ls),
(111,633,o),
(156,554,o),
(250,521,cs),
(546,417,ls),
(619,392,o),
(653,367,o),
(653,300,cs),
(653,251,ls),
(653,166,o),
(623,132,o),
(537,132,cs),
(451,132,o),
(401,160,o),
(401,241,cs),
(401,290,ls),
(401,340,o),
(382,355,o),
(263,355,cs),
(145,355,o),
(126,341,o),
(126,291,cs),
(126,250,l)
);
}
);
userData = {
com.typemytype.robofont.guides = (
{
angle = 90;
isGlobal = 0;
magnetic = 5;
x = 944;
y = 0;
},
{
angle = 90;
isGlobal = 0;
magnetic = 5;
x = 102;
y = 0;
}
);
};
vertWidth = 0;
width = 1054;
}
);
unicode = 115;
},
{
glyphname = germandbls;
layers = (
{
layerId = "3E12A9BE-1094-4827-ACE3-4E9390329AA7";
shapes = (
{
closed = 1;
nodes = (
(566,157,o),
(559,143,o),
(559,77,cs),
(559,11,o),
(566,0,o),
(621,0,cs),
(728,0,ls),
(956,0,o),
(1024,152,o),
(1027,277,cs),
(1030,406,ls),
(1032,503,o),
(985,565,o),
(902,629,cs),
(791,716,l),
(791,728,l),
(914,891,ls),
(984,984,o),
(989,1039,o),
(989,1156,cs),
(998,1432,ls),
(999,1633,o),
(790,1724,o),
(571,1724,cs),
(317,1724,o),
(137,1613,o),
(140,1440,cs),
(163,-115,ls),
(164,-165,o),
(181,-172,o),
(293,-172,cs),
(405,-172,o),
(423,-165,o),
(424,-115,cs),
(455,1447,ls),
(457,1554,o),
(507,1570,o),
(573,1570,cs),
(653,1570,o),
(676,1536,o),
(680,1438,cs),
(694,998,ls),
(696,927,o),
(694,910,o),
(657,857,cs),
(599,768,ls),
(583,746,o),
(582,739,o),
(582,718,cs),
(582,682,ls),
(582,654,o),
(592,647,o),
(626,618,cs),
(688,565,ls),
(731,528,o),
(747,495,o),
(750,407,cs),
(754,294,ls),
(757,192,o),
(732,157,o),
(636,157,cs),
(621,157,l)
);
}
);
userData = {
com.typemytype.robofont.guides = (
{
angle = 0;
isGlobal = 0;
magnetic = 5;
x = 0;
y = 404;
},
{
angle = 90;
isGlobal = 0;
magnetic = 5;
x = 727;
y = 0;
}
);
};
vertWidth = 0;
width = 1105;
}
);
unicode = 223;
},
{
glyphname = t;
layers = (
{
anchors = (
{
name = btm;
pos = (319,-170);
},
{
name = top;
pos = (319,1700);
}
);
layerId = "3E12A9BE-1094-4827-ACE3-4E9390329AA7";
shapes = (
{
closed = 1;
nodes = (
(431,0,o),
(449,7,o),
(450,57,cs),
(481,1395,ls),
(482,1452,o),
(464,1468,o),
(319,1468,cs),
(174,1468,o),
(156,1452,o),
(157,1395,cs),
(189,57,ls),
(190,7,o),
(207,0,o),
(319,0,cs)
);
},
{
closed = 1;
nodes = (
(596,926,o),
(598,944,o),
(598,1026,cs),
(598,1100,o),
(596,1116,o),
(526,1116,cs),
(112,1116,ls),
(42,1116,o),
(40,1100,o),
(40,1026,cs),
(40,944,o),
(42,926,o),
(112,926,cs),
(526,926,l)
);
}
);
vertWidth = 0;
width = 638;
}
);
unicode = 116;
},
{
glyphname = tbar;
layers = (
{
layerId = "3E12A9BE-1094-4827-ACE3-4E9390329AA7";
shapes = (
{
closed = 1;
nodes = (
(580,563,o),
(582,586,o),
(582,660,cs),
(582,742,o),
(580,769,o),
(510,769,cs),
(124,769,ls),
(54,769,o),
(52,743,o),
(52,661,cs),
(52,587,o),
(54,563,o),
(124,563,cs),
(510,563,l)
);
},
{
ref = t;
}
);
vertWidth = 0;
width = 638;
}
);
unicode = 359;
},
{
glyphname = tcaron;
layers = (
{
layerId = "3E12A9BE-1094-4827-ACE3-4E9390329AA7";
shapes = (
{
closed = 1;
nodes = (
(738,1248,o),
(750,1255,o),
(764,1317,c),
(882,1872,l),
(894,1942,o),
(871,1956,o),
(746,1956,cs),
(621,1956,o),
(594,1942,o),
(586,1872,c),
(548,1317,ls),
(544,1255,o),
(554,1248,o),
(646,1248,cs)
);
},
{
ref = t;
}
);
vertWidth = 0;
width = 815;
}
);
unicode = 357;
},
{
glyphname = u;
layers = (
{
anchors = (
{
name = btm;
pos = (533,-170);
},
{
name = top;
pos = (533,1700);
}
);
layerId = "3E12A9BE-1094-4827-ACE3-4E9390329AA7";
shapes = (
{
closed = 1;
nodes = (
(915,0,o),
(933,7,o),
(934,57,cs),
(965,1129,l),
(966,1186,o),
(948,1202,o),
(803,1202,cs),
(658,1202,o),
(640,1186,o),
(641,1129,c),
(669,179,l),
(680,150,l),
(683,57,ls),
(684,7,o),
(700,0,o),
(803,0,cs)
);
},
{
closed = 1;
nodes = (
(131,85,o),
(232,-12,o),
(396,-12,cs),
(576,-12,o),
(678,97,o),
(728,152,c),
(730,296,l),
(703,267,o),
(637,167,o),
(530,167,cs),
(467,167,o),
(399,197,o),
(402,313,cs),
(425,1129,l),
(426,1186,o),
(408,1202,o),
(263,1202,cs),
(118,1202,o),
(100,1186,o),
(101,1129,c),
(126,268,l)
);
}
);
userData = {
com.typemytype.robofont.guides = (
{
angle = 0;
isGlobal = 0;
magnetic = 5;
x = 0;
y = 44;
}
);
};
vertWidth = 0;
width = 1086;
}
);
unicode = 117;
},
{
glyphname = v;
layers = (
{
anchors = (
{
name = btm;
pos = (479,-170);
},
{
name = top;
pos = (479,1700);
}
);
layerId = "3E12A9BE-1094-4827-ACE3-4E9390329AA7";
shapes = (
{
closed = 1;
nodes = (
(610,1129,ls),
(618,1186,o),
(627,1202,o),
(772,1202,cs),
(917,1202,o),
(949,1184,o),
(934,1129,cs),
(662,57,ls),
(649,9,o),
(636,0,o),
(532,0,cs),
(479,0,l),
(426,0,ls),
(322,0,o),
(309,9,o),
(296,57,cs),
(24,1129,ls),
(9,1184,o),
(41,1202,o),
(186,1202,cs),
(331,1202,o),
(340,1186,o),
(348,1129,cs),
(467,240,l),
(491,240,l)
);
}
);
vertWidth = 0;
width = 958;
}
);
unicode = 118;
},
{
glyphname = w;
layers = (
{
anchors = (
{
name = btm;
pos = (754,-170);
},
{
name = top;
pos = (754,1700);
}
);
layerId = "3E12A9BE-1094-4827-ACE3-4E9390329AA7";
shapes = (
{
closed = 1;
nodes = (
(937,8,o),
(952,0,o),
(1056,0,cs),
(1160,0,ls),
(1264,0,o),
(1280,8,o),
(1290,57,cs),
(1476,1129,ls),
(1488,1184,o),
(1460,1202,o),
(1324,1202,cs),
(1188,1202,o),
(1170,1186,o),
(1166,1129,cs),
(1101,240,l),
(1077,240,l),
(926,1129,ls),
(914,1186,o),
(899,1202,o),
(754,1202,cs),
(618,1202,o),
(599,1186,o),
(588,1129,cs),
(437,240,l),
(413,240,l),
(348,1129,ls),
(344,1187,o),
(331,1202,o),
(186,1202,cs),
(50,1202,o),
(20,1184,o),
(34,1129,cs),
(220,57,ls),
(233,9,o),
(246,0,o),
(350,0,cs),
(452,0,ls),
(556,0,o),
(569,9,o),
(582,57,cs),
(794,1087,l),
(713,1087,l),
(926,57,l)
);
},
{
closed = 1;
nodes = (
(789,868,l),
(789,937,l),
(718,937,l),
(718,868,l)
);
}
);
vertWidth = 0;
width = 1509;
}
);
unicode = 119;
},
{
glyphname = x;
layers = (
{
anchors = (
{
name = btm;
pos = (489,-170);
},
{
name = top;
pos = (489,1700);
}
);
layerId = "3E12A9BE-1094-4827-ACE3-4E9390329AA7";
shapes = (
{
closed = 1;
nodes = (
(306,0,o),
(320,7,o),
(338,57,cs),
(483,454,l),
(497,454,l),
(640,57,ls),
(658,7,o),
(672,0,o),
(776,0,cs),
(880,0,o),
(897,5,o),
(897,32,cs),
(897,39,o),
(892,57,o),
(880,87,cs),
(700,590,l),
(920,1094,ls),
(930,1118,o),
(938,1138,o),
(938,1153,cs),
(938,1197,o),
(910,1202,o),
(794,1202,cs),
(649,1202,o),
(634,1195,o),
(618,1141,cs),
(497,719,l),
(483,719,l),
(360,1141,ls),
(344,1195,o),
(329,1202,o),
(184,1202,cs),
(68,1202,o),
(40,1197,o),
(40,1153,cs),
(40,1138,o),
(48,1118,o),
(58,1094,cs),
(278,590,l),
(98,87,ls),
(87,57,o),
(81,39,o),
(81,32,cs),
(81,5,o),
(98,0,o),
(202,0,cs)
);
}
);
vertWidth = 0;
width = 978;
}
);
unicode = 120;
},
{
glyphname = y;
layers = (
{
anchors = (
{
name = btm;
pos = (479,-170);
},
{
name = top;
pos = (479,1700);
}
);
layerId = "3E12A9BE-1094-4827-ACE3-4E9390329AA7";
shapes = (
{
closed = 1;
nodes = (
(348,1129,ls),
(339,1186,o),
(331,1202,o),
(186,1202,cs),
(41,1202,o),
(9,1184,o),
(24,1129,cs),
(282,57,ls),
(295,9,o),
(316,0,o),
(396,0,cs),
(532,0,l),
(692,57,l),
(934,1129,ls),
(949,1184,o),
(917,1202,o),
(772,1202,cs),
(627,1202,o),
(619,1186,o),
(610,1129,cs),
(505,240,l),
(481,240,l)
);
},
{
closed = 1;
nodes = (
(369,-346,ls),
(360,-401,o),
(380,-419,o),
(471,-419,cs),
(572,-419,o),
(589,-403,o),
(602,-346,cs),
(706,119,l),
(463,119,l)
);
}
);
vertWidth = 0;
width = 958;
}
);
unicode = 121;
},
{
glyphname = z;
layers = (
{
anchors = (
{
name = btm;
pos = (411,-170);
},
{
name = top;
pos = (411,1700);
}
);
layerId = "3E12A9BE-1094-4827-ACE3-4E9390329AA7";
shapes = (
{
closed = 1;
nodes = (
(781,1081,ls),
(804,1144,o),
(795,1202,o),
(716,1202,cs),
(630,1202,l),
(473,1129,l),
(72,116,ls),
(47,53,o),
(56,0,o),
(168,0,cs),
(231,0,l),
(317,57,l)
);
},
{
closed = 1;
nodes = (
(687,1202,l),
(102,1202,ls),
(32,1202,o),
(30,1182,o),
(30,1092,cs),
(30,1010,o),
(32,992,o),
(102,992,cs),
(687,992,l)
);
},
{
closed = 1;
nodes = (
(760,0,o),
(762,16,o),
(762,90,cs),
(762,164,o),
(760,180,o),
(690,180,cs),
(179,180,l),
(179,0,l),
(690,0,l)
);
}
);
vertWidth = 0;
width = 823;
}
);
unicode = 122;
},
{
glyphname = i.cy;
layers = (
{
layerId = "3E12A9BE-1094-4827-ACE3-4E9390329AA7";
shapes = (
{
closed = 1;
nodes = (
(419,1360,o),
(439,1367,o),
(440,1417,cs),
(451,1612,ls),
(452,1669,o),
(434,1685,o),
(289,1685,cs),
(144,1685,o),
(126,1669,o),
(127,1612,cs),
(139,1417,ls),
(140,1367,o),
(159,1360,o),
(289,1360,cs)
);
},
{
closed = 1;
nodes = (
(396,0,o),
(414,7,o),
(415,57,cs),
(446,1129,ls),
(447,1186,o),
(429,1202,o),
(284,1202,cs),
(139,1202,o),
(121,1186,o),
(122,1129,cs),
(154,57,ls),
(155,7,o),
(172,0,o),
(284,0,cs)
);
}
);
vertWidth = 0;
width = 568;
}
);
},
{
glyphname = i.dot;
layers = (
{
layerId = "3E12A9BE-1094-4827-ACE3-4E9390329AA7";
shapes = (
{
closed = 1;
nodes = (
(419,1360,o),
(439,1367,o),
(440,1417,cs),
(451,1612,ls),
(452,1669,o),
(434,1685,o),
(289,1685,cs),
(144,1685,o),
(126,1669,o),
(127,1612,cs),
(139,1417,ls),
(140,1367,o),
(159,1360,o),
(289,1360,cs)
);
},
{
closed = 1;
nodes = (
(396,0,o),
(414,7,o),
(415,57,cs),
(446,1129,ls),
(447,1186,o),
(429,1202,o),
(284,1202,cs),
(139,1202,o),
(121,1186,o),
(122,1129,cs),
(154,57,ls),
(155,7,o),
(172,0,o),
(284,0,cs)
);
}
);
vertWidth = 0;
width = 568;
}
);
},
{
glyphname = f_f_i_dflt;
layers = (
{
layerId = "3E12A9BE-1094-4827-ACE3-4E9390329AA7";
shapes = (
{
closed = 1;
nodes = (
(1666,0,o),
(1684,7,o),
(1685,57,cs),
(1716,1129,ls),
(1717,1186,o),
(1699,1202,o),
(1554,1202,cs),
(1409,1202,o),
(1391,1186,o),
(1392,1129,cs),
(1424,57,ls),
(1425,7,o),
(1442,0,o),
(1554,0,cs)
);
},
{
ref = f;
},
{
pos = (635,0);
ref = f;
}
);
vertWidth = 0;
width = 1838;
}
);
},
{
glyphname = f_i_trk;
layers = (
{
layerId = "3E12A9BE-1094-4827-ACE3-4E9390329AA7";
shapes = (
{
closed = 1;
nodes = (
(1031,0,o),
(1049,7,o),
(1050,57,cs),
(1081,1129,ls),
(1082,1186,o),
(1064,1202,o),
(919,1202,cs),
(774,1202,o),
(756,1186,o),
(757,1129,cs),
(789,57,ls),
(790,7,o),
(807,0,o),
(919,0,cs)
);
},
{
ref = f;
}
);
vertWidth = 0;
width = 1203;
}
);
},
{
glyphname = ordfeminine;
layers = (
{
layerId = "3E12A9BE-1094-4827-ACE3-4E9390329AA7";
shapes = (
{
closed = 1;
nodes = (
(830,1456,o),
(696,1530,o),
(487,1530,cs),
(358,1530,o),
(136,1485,o),
(143,1336,cs),
(149,1212,ls),
(151,1178,o),
(167,1165,o),
(274,1165,cs),
(383,1165,o),
(399,1178,o),
(401,1213,cs),
(406,1318,ls),
(409,1380,o),
(436,1392,o),
(483,1392,cs),
(534,1392,o),
(553,1376,o),
(555,1317,cs),
(572,811,l),
(581,786,l),
(583,720,ls),
(584,685,o),
(597,680,o),
(685,680,cs),
(785,680,o),
(800,685,o),
(801,720,cs),
(826,1327,l)
);
},
{
closed = 1;
nodes = (
(543,1122,o),
(438,1107,o),
(331,1076,cs),
(260,1052,o),
(130,994,o),
(130,890,cs),
(130,858,ls),
(130,759,o),
(177,672,o),
(319,672,cs),
(504,672,o),
(641,784,o),
(666,809,c),
(632,879,l),
(600,862,o),
(528,823,o),
(453,823,cs),
(414,823,o),
(385,848,o),
(385,894,cs),
(385,941,o),
(412,970,o),
(483,989,cs),
(523,1000,o),
(577,1005,o),
(612,1009,c),
(623,1122,l)
);
}
);
vertWidth = 0;
width = 957;
}
);
unicode = 170;
},
{
glyphname = ordmasculine;
layers = (
{
layerId = "3E12A9BE-1094-4827-ACE3-4E9390329AA7";
shapes = (
{
closed = 1;
nodes = (
(306,682,o),
(146,731,o),
(140,884,cs),
(121,1316,ls),
(115,1465,o),
(293,1529,o),
(477,1529,cs),
(661,1529,o),
(839,1465,o),
(833,1316,cs),
(814,884,l),
(808,731,o),
(648,682,o),
(477,682,cs)
);
},
{
closed = 1;
nodes = (
(427,1391,o),
(399,1386,o),
(392,1307,cs),
(376,902,ls),
(374,831,o),
(406,814,o),
(477,814,cs),
(548,814,o),
(580,831,o),
(578,902,c),
(562,1307,l),
(555,1386,o),
(527,1391,o),
(477,1391,cs)
);
}
);
vertWidth = 0;
width = 954;
}
);
unicode = 186;
},
{
glyphname = uni03BC;
layers = (
{
layerId = "3E12A9BE-1094-4827-ACE3-4E9390329AA7";
shapes = (
{
closed = 1;
nodes = (
(933,0,o),
(935,7,o),
(936,57,cs),
(977,1129,ls),
(979,1186,o),
(960,1202,o),
(815,1202,cs),
(688,1202,o),
(671,1186,o),
(673,1129,cs),
(702,126,l),
(726,126,l),
(726,57,o),
(754,0,o),
(842,0,cs)
);
},
{
closed = 1;
nodes = (
(344,-354,o),
(358,-323,o),
(358,-247,cs),
(358,124,l),
(396,171,l),
(419,1129,ls),
(420,1186,o),
(403,1202,o),
(267,1202,cs),
(122,1202,o),
(103,1186,o),
(105,1129,cs),
(148,-247,ls),
(150,-323,o),
(164,-354,o),
(252,-354,cs)
);
},
{
closed = 1;
nodes = (
(447,192,o),
(397,242,o),
(367,287,c),
(314,184,l),
(352,90,l),
(368,90,l),
(415,36,o),
(473,0,o),
(535,0,cs),
(623,0,o),
(685,61,o),
(749,184,c),
(702,261,l),
(664,224,o),
(615,192,o),
(535,192,cs)
);
},
{
closed = 1;
nodes = (
(1061,0,o),
(1063,18,o),
(1063,100,cs),
(1063,174,o),
(1061,190,o),
(991,190,cs),
(857,190,l),
(857,0,l),
(991,0,l)
);
}
);
userData = {
com.typemytype.robofont.guides = (
{
angle = 0;
isGlobal = 0;
magnetic = 5;
x = 0;
y = 1059;
},
{
angle = 90;
isGlobal = 0;
magnetic = 5;
x = 1125;
y = 0;
}
);
};
vertWidth = 0;
width = 1092;
}
);
unicode = 956;
},
{
glyphname = zero;
layers = (
{
layerId = "3E12A9BE-1094-4827-ACE3-4E9390329AA7";
shapes = (
{
closed = 1;
nodes = (
(702,159,o),
(751,200,o),
(748,312,cs),
(718,1389,ls),
(715,1505,o),
(671,1521,o),
(585,1521,cs),
(499,1521,o),
(456,1505,o),
(453,1389,cs),
(423,312,ls),
(420,200,o),
(468,159,o),
(585,159,cs)
);
},
{
closed = 1;
nodes = (
(317,-12,o),
(155,100,o),
(150,273,cs),
(121,1389,ls),
(116,1589,o),
(294,1701,o),
(585,1701,cs),
(876,1701,o),
(1055,1589,o),
(1050,1389,cs),
(1021,273,ls),
(1016,100,o),
(853,-12,o),
(585,-12,cs)
);
}
);
userData = {
com.typemytype.robofont.guides = (
{
angle = 90;
isGlobal = 0;
magnetic = 5;
x = 585;
y = 0;
}
);
};
vertWidth = 0;
width = 1171;
}
);
unicode = 48;
},
{
glyphname = one;
layers = (
{
layerId = "3E12A9BE-1094-4827-ACE3-4E9390329AA7";
shapes = (
{
closed = 1;
nodes = (
(304,1690,o),
(259,1685,o),
(238,1665,cs),
(225,1652,o),
(221,1634,o),
(222,1607,cs),
(224,1524,l),
(241,1480,l),
(266,68,ls),
(267,7,o),
(285,0,o),
(391,0,cs),
(497,0,o),
(534,7,o),
(536,68,cs),
(580,1607,ls),
(582,1676,o),
(533,1690,o),
(391,1690,cs)
);
},
{
closed = 1;
nodes = (
(303,1278,l),
(303,1344,l),
(198,1344,l),
(198,1278,l)
);
},
{
closed = 1;
nodes = (
(1,1117,o),
(22,1110,o),
(39,1110,cs),
(54,1110,o),
(77,1122,o),
(98,1143,cs),
(370,1409,l),
(238,1665,l),
(46,1464,ls),
(12,1430,o),
(1,1405,o),
(1,1344,cs),
(1,1172,l)
);
}
);
vertWidth = 0;
width = 684;
}
);
unicode = 49;
},
{
glyphname = two;
layers = (
{
layerId = "3E12A9BE-1094-4827-ACE3-4E9390329AA7";
shapes = (
{
closed = 1;
nodes = (
(1019,186,o),
(1021,152,o),
(1021,101,cs),
(1021,27,o),
(1019,0,o),
(949,0,cs),
(228,0,ls),
(170,0,o),
(156,12,o),
(156,67,cs),
(156,97,ls),
(156,144,o),
(166,169,o),
(188,194,cs),
(648,813,ls),
(708,885,o),
(731,923,o),
(728,1027,cs),
(717,1389,ls),
(714,1505,o),
(670,1521,o),
(584,1521,cs),
(498,1521,o),
(455,1505,o),
(452,1389,cs),
(440,965,ls),
(438,884,o),
(401,873,o),
(283,873,cs),
(166,873,o),
(133,884,o),
(131,965,cs),
(101,1381,ls),
(96,1581,o),
(273,1701,o),
(584,1701,cs),
(887,1701,o),
(1064,1581,o),
(1059,1381,cs),
(1037,955,ls),
(1035,864,o),
(1002,801,o),
(925,720,c),
(468,194,l),
(468,186,l),
(949,186,l)
);
}
);
userData = {
com.typemytype.robofont.guides = (
{
angle = 90;
isGlobal = 0;
magnetic = 5;
x = 745;
y = 0;
}
);
};
vertWidth = 0;
width = 1170;
}
);
unicode = 50;
},
{
glyphname = three;
layers = (
{
layerId = "3E12A9BE-1094-4827-ACE3-4E9390329AA7";
shapes = (
{
closed = 1;
nodes = (
(695,661,o),
(745,640,o),
(747,536,cs),
(753,307,ls),
(756,200,o),
(703,161,o),
(589,161,cs),
(587,161,ls),
(473,161,o),
(420,200,o),
(423,307,cs),
(426,415,ls),
(429,496,o),
(395,507,o),
(287,507,cs),
(173,507,o),
(146,496,o),
(148,415,cs),
(152,278,ls),
(157,122,o),
(260,-12,o),
(587,-12,cs),
(918,-12,o),
(1020,122,o),
(1024,278,c),
(1031,482,l),
(1035,624,o),
(965,673,o),
(832,749,c),
(832,757,l),
(1007,831,o),
(1040,926,o),
(1044,1036,c),
(1058,1407,l),
(1063,1628,o),
(796,1701,o),
(587,1701,cs),
(380,1701,o),
(108,1628,o),
(113,1407,c),
(135,1044,l),
(137,962,o),
(170,952,o),
(287,952,cs),
(405,952,o),
(442,962,o),
(444,1044,c),
(457,1389,l),
(460,1493,o),
(496,1522,o),
(587,1522,cs),
(680,1522,o),
(715,1493,o),
(719,1389,cs),
(733,984,ls),
(737,872,o),
(692,838,o),
(589,838,cs),
(532,838,ls),
(461,838,o),
(459,815,o),
(459,750,cs),
(459,685,o),
(461,661,o),
(531,661,cs),
(587,661,l)
);
}
);
userData = {
com.typemytype.robofont.guides = (
{
angle = 90;
isGlobal = 0;
magnetic = 5;
x = 588;
y = 0;
}
);
};
vertWidth = 0;
width = 1176;
}
);
unicode = 51;
},
{
glyphname = four;
layers = (
{
layerId = "3E12A9BE-1094-4827-ACE3-4E9390329AA7";
shapes = (
{
closed = 1;
nodes = (
(438,1690,o),
(398,1678,o),
(371,1596,cs),
(41,577,ls),
(27,536,o),
(11,500,o),
(11,460,cs),
(11,427,ls),
(11,384,o),
(84,365,o),
(124,365,cs),
(248,365,o),
(261,381,o),
(282,432,cs),
(748,1589,ls),
(776,1657,o),
(728,1690,o),
(570,1690,cs)
);
},
{
closed = 1;
nodes = (
(896,365,o),
(898,382,o),
(898,463,cs),
(898,543,o),
(896,561,o),
(826,561,cs),
(104,561,l),
(154,365,l),
(826,365,l)
);
},
{
closed = 1;
nodes = (
(663,1000,o),
(618,986,o),
(620,917,cs),
(644,68,ls),
(645,7,o),
(663,0,o),
(769,0,cs),
(875,0,o),
(912,7,o),
(914,68,cs),
(938,917,ls),
(940,989,o),
(931,1000,o),
(789,1000,cs)
);
}
);
vertWidth = 0;
width = 1009;
}
);
unicode = 52;
},
{
glyphname = five;
layers = (
{
layerId = "3E12A9BE-1094-4827-ACE3-4E9390329AA7";
shapes = (
{
closed = 1;
nodes = (
(399,960,o),
(413,971,o),
(415,1023,cs),
(439,1594,ls),
(441,1671,o),
(417,1690,o),
(275,1690,cs),
(142,1690,o),
(109,1676,o),
(111,1607,cs),
(135,1028,ls),
(137,967,o),
(151,960,o),
(275,960,c)
);
},
{
closed = 1;
nodes = (
(917,1468,ls),
(987,1468,o),
(989,1491,o),
(989,1579,cs),
(989,1667,o),
(987,1690,o),
(917,1690,cs),
(276,1690,l),
(276,1468,l)
);
},
{
closed = 1;
nodes = (
(414,486,o),
(395,500,o),
(262,500,cs),
(138,500,o),
(120,486,o),
(122,417,cs),
(126,273,ls),
(131,100,o),
(289,-12,o),
(551,-12,cs),
(813,-12,o),
(972,100,o),
(977,273,cs),
(1014,890,ls),
(1019,1090,o),
(834,1147,o),
(735,1147,cs),
(275,1147,l),
(275,961,l),
(531,961,ls),
(636,961,o),
(677,930,o),
(680,818,cs),
(694,312,ls),
(697,200,o),
(654,159,o),
(551,159,cs),
(448,159,o),
(406,200,o),
(409,312,cs),
(412,417,l)
);
}
);
userData = {
com.typemytype.robofont.guides = (
{
angle = 90;
isGlobal = 0;
magnetic = 5;
x = 558;
y = 0;
}
);
};
vertWidth = 0;
width = 1115;
}
);
unicode = 53;
},
{
glyphname = six;
layers = (
{
layerId = "3E12A9BE-1094-4827-ACE3-4E9390329AA7";
shapes = (
{
closed = 1;
nodes = (
(489,950,o),
(536,955,o),
(585,955,cs),
(690,955,o),
(731,922,o),
(734,810,cs),
(748,312,ls),
(751,200,o),
(702,159,o),
(585,159,cs),
(468,159,o),
(420,200,o),
(423,312,cs),
(442,932,l)
);
},
{
closed = 1;
nodes = (
(288,1690,o),
(106,1578,o),
(111,1378,cs),
(150,273,ls),
(155,100,o),
(317,-12,o),
(585,-12,cs),
(853,-12,o),
(1016,100,o),
(1021,273,cs),
(1048,882,ls),
(1053,1082,o),
(796,1139,o),
(649,1139,cs),
(568,1139,o),
(500,1127,o),
(446,1111,c),
(452,1337,ls),
(456,1454,o),
(499,1469,o),
(585,1469,cs),
(954,1469,ls),
(1001,1469,o),
(1014,1497,o),
(1014,1577,cs),
(1014,1675,o),
(1008,1690,o),
(925,1690,cs),
(586,1690,l)
);
}
);
userData = {
com.typemytype.robofont.guides = (
{
angle = 90;
isGlobal = 0;
magnetic = 5;
x = 585;
y = 0;
},
{
angle = 90;
isGlobal = 0;
magnetic = 5;
x = 1049;
y = 0;
}
);
};
vertWidth = 0;
width = 1159;
}
);
unicode = 54;
},
{
glyphname = seven;
layers = (
{
layerId = "3E12A9BE-1094-4827-ACE3-4E9390329AA7";
shapes = (
{
closed = 1;
nodes = (
(285,1214,o),
(302,1221,o),
(303,1271,c),
(329,1484,l),
(637,1485,l),
(237,68,l),
(224,8,o),
(256,0,o),
(362,0,cs),
(452,0,o),
(467,17,o),
(487,68,cs),
(1003,1516,l),
(1005,1526,o),
(1009,1550,o),
(1008,1592,cs),
(1006,1672,o),
(1006,1690,o),
(936,1690,cs),
(182,1690,ls),
(46,1689,o),
(29,1672,o),
(30,1617,c),
(42,1271,l),
(43,1221,o),
(61,1214,o),
(182,1214,cs)
);
}
);
vertWidth = 0;
width = 1029;
}
);
unicode = 55;
},
{
glyphname = eight;
layers = (
{
layerId = "3E12A9BE-1094-4827-ACE3-4E9390329AA7";
shapes = (
{
closed = 1;
nodes = (
(376,1701,o),
(106,1628,o),
(111,1407,cs),
(132,1036,ls),
(134,926,o),
(169,831,o),
(344,757,c),
(344,749,l),
(211,673,o),
(141,624,o),
(145,482,cs),
(152,278,ls),
(156,122,o),
(260,-12,o),
(587,-12,cs),
(918,-12,o),
(1020,122,o),
(1024,278,cs),
(1031,482,ls),
(1035,624,o),
(965,673,o),
(832,749,c),
(832,757,l),
(1007,831,o),
(1042,926,o),
(1044,1036,cs),
(1065,1407,ls),
(1070,1628,o),
(800,1701,o),
(587,1701,cs)
);
},
{
closed = 1;
nodes = (
(484,837,o),
(439,872,o),
(443,984,cs),
(457,1389,ls),
(461,1493,o),
(496,1522,o),
(587,1522,cs),
(680,1522,o),
(715,1493,o),
(719,1389,cs),
(733,984,ls),
(737,872,o),
(692,837,o),
(589,837,cs)
);
},
{
closed = 1;
nodes = (
(473,161,o),
(420,200,o),
(423,307,cs),
(429,536,ls),
(431,640,o),
(481,661,o),
(587,661,cs),
(695,661,o),
(745,640,o),
(747,536,cs),
(753,307,ls),
(756,200,o),
(703,161,o),
(589,161,cs),
(587,161,l)
);
}
);
userData = {
com.typemytype.robofont.guides = (
{
angle = 0;
isGlobal = 0;
magnetic = 5;
x = 0;
y = 689;
},
{
angle = 0;
isGlobal = 0;
magnetic = 5;
x = 0;
y = 880;
},
{
angle = 90;
isGlobal = 0;
magnetic = 5;
x = 588;
y = 0;
}
);
};
vertWidth = 0;
width = 1176;
}
);
unicode = 56;
},
{
glyphname = nine;
layers = (
{
layerId = "3E12A9BE-1094-4827-ACE3-4E9390329AA7";
shapes = (
{
closed = 1;
nodes = (
(474,727,o),
(429,762,o),
(433,874,cs),
(447,1389,ls),
(451,1493,o),
(486,1522,o),
(577,1522,cs),
(670,1522,o),
(706,1493,o),
(709,1389,cs),
(726,751,l),
(679,733,o),
(628,727,o),
(579,727,cs)
);
},
{
closed = 1;
nodes = (
(224,186,o),
(211,174,o),
(211,94,cs),
(211,-4,o),
(217,0,o),
(300,0,cs),
(559,0,ls),
(900,0,o),
(1000,134,o),
(1004,290,cs),
(1055,1407,ls),
(1062,1628,o),
(790,1701,o),
(577,1701,cs),
(366,1701,o),
(96,1628,o),
(101,1407,cs),
(126,803,ls),
(132,603,o),
(378,551,o),
(525,551,cs),
(630,551,o),
(681,566,o),
(732,582,c),
(732,353,ls),
(732,232,o),
(688,186,o),
(560,186,cs),
(271,186,l)
);
}
);
userData = {
com.typemytype.robofont.guides = (
{
angle = 0;
isGlobal = 0;
magnetic = 5;
x = 0;
y = 689;
},
{
angle = 0;
isGlobal = 0;
magnetic = 5;
x = 0;
y = 802;
},
{
angle = 90;
isGlobal = 0;
magnetic = 5;
x = 190;
y = 0;
}
);
};
vertWidth = 0;
width = 1166;
}
);
unicode = 57;
},
{
glyphname = fraction;
layers = (
{
layerId = "3E12A9BE-1094-4827-ACE3-4E9390329AA7";
shapes = (
{
closed = 1;
nodes = (
(19,-2,o),
(40,2,o),
(55,48,c),
(618,1616,l),
(633,1668,o),
(611,1685,o),
(508,1686,cs),
(409,1687,o),
(402,1668,o),
(386,1615,c),
(-116,57,ls),
(-131,10,o),
(-118,0,o),
(-40,-1,cs)
);
}
);
vertWidth = 0;
width = 500;
}
);
unicode = 8260;
},
{
glyphname = onehalf;
layers = (
{
layerId = "3E12A9BE-1094-4827-ACE3-4E9390329AA7";
shapes = (
{
closed = 1;
nodes = (
(1701,172,o),
(1704,138,o),
(1704,87,cs),
(1704,29,o),
(1702,1,o),
(1660,1,cs),
(1083,1,ls),
(1048,1,o),
(1039,8,o),
(1039,41,cs),
(1039,59,ls),
(1039,87,o),
(1046,102,o),
(1058,118,c),
(1385,489,l),
(1419,533,o),
(1434,555,o),
(1431,617,c),
(1425,790,ls),
(1423,859,o),
(1396,868,o),
(1355,868,cs),
(1306,868,o),
(1278,859,o),
(1276,789,cs),
(1269,580,ls),
(1267,531,o),
(1240,525,o),
(1149,525,cs),
(1051,525,o),
(1025,532,o),
(1022,580,cs),
(1007,830,ls),
(1000,949,o),
(1135,1022,o),
(1355,1022,cs),
(1576,1022,o),
(1714,950,o),
(1709,830,cs),
(1697,574,ls),
(1695,519,o),
(1676,482,o),
(1630,433,c),
(1366,177,l),
(1366,172,l),
(1660,172,ls)
);
},
{
pos = (550,0);
ref = fraction;
},
{
pos = (40,0);
ref = onesuperior;
}
);
vertWidth = 0;
width = 1810;
}
);
unicode = 189;
},
{
glyphname = onequarter;
layers = (
{
layerId = "3E12A9BE-1094-4827-ACE3-4E9390329AA7";
shapes = (
{
closed = 1;
nodes = (
(1230,1033,o),
(1193,1026,o),
(1175,976,cs),
(945,345,ls),
(936,321,o),
(927,299,o),
(927,275,cs),
(927,255,ls),
(927,229,o),
(971,218,o),
(995,218,cs),
(1102,218,o),
(1114,231,o),
(1130,276,c),
(1463,971,l),
(1478,1014,o),
(1447,1033,o),
(1348,1033,cs)
);
},
{
closed = 1;
nodes = (
(1530,389,l),
(1036,389,l),
(995,218,l),
(1530,218,l)
);
},
{
closed = 1;
nodes = (
(1415,599,o),
(1377,590,o),
(1378,549,cs),
(1392,40,ls),
(1393,3,o),
(1412,-1,o),
(1496,-1,cs),
(1577,-1,o),
(1611,3,o),
(1612,40,cs),
(1627,550,ls),
(1628,592,o),
(1619,599,o),
(1508,599,cs)
);
},
{
pos = (550,0);
ref = fraction;
},
{
pos = (40,0);
ref = onesuperior;
}
);
vertWidth = 0;
width = 1699;
}
);
unicode = 188;
},
{
glyphname = threequarters;
layers = (
{
layerId = "3E12A9BE-1094-4827-ACE3-4E9390329AA7";
shapes = (
{
closed = 1;
nodes = (
(1470,1033,o),
(1433,1026,o),
(1415,976,cs),
(1185,345,ls),
(1176,321,o),
(1167,299,o),
(1167,275,cs),
(1167,255,ls),
(1167,229,o),
(1211,218,o),
(1235,218,cs),
(1342,218,o),
(1354,231,o),
(1370,276,c),
(1703,971,ls),
(1718,1014,o),
(1687,1033,o),
(1588,1033,cs)
);
},
{
closed = 1;
nodes = (
(1770,389,l),
(1276,389,l),
(1235,218,l),
(1770,218,l)
);
},
{
closed = 1;
nodes = (
(1655,599,o),
(1617,590,o),
(1618,549,cs),
(1632,40,ls),
(1633,3,o),
(1652,-1,o),
(1736,-1,cs),
(1817,-1,o),
(1851,3,o),
(1852,40,c),
(1867,550,ls),
(1868,592,o),
(1859,599,o),
(1748,599,cs)
);
},
{
closed = 1;
nodes = (
(503,1048,o),
(524,1039,o),
(526,991,cs),
(529,907,l),
(534,829,o),
(501,819,o),
(463,819,cs),
(396,819,o),
(375,827,o),
(377,879,cs),
(378,925,ls),
(380,973,o),
(346,980,o),
(245,980,cs),
(128,980,o),
(105,973,o),
(106,924,cs),
(108,829,ls),
(110,743,o),
(191,672,o),
(440,672,cs),
(698,672,o),
(780,752,o),
(782,846,c),
(786,968,ls),
(789,1053,o),
(744,1083,o),
(626,1128,c),
(626,1133,l),
(768,1178,o),
(782,1235,o),
(784,1301,cs),
(792,1523,l),
(795,1656,o),
(591,1700,o),
(440,1700,cs),
(293,1700,o),
(88,1656,o),
(91,1523,c),
(104,1323,l),
(105,1274,o),
(136,1268,o),
(235,1268,cs),
(326,1268,o),
(353,1274,o),
(354,1323,c),
(362,1468,l),
(364,1531,o),
(381,1548,o),
(440,1548,cs),
(492,1548,o),
(504,1530,o),
(509,1468,c),
(517,1277,ls),
(519,1224,o),
(498,1207,o),
(461,1207,cs),
(423,1207,ls),
(380,1207,o),
(379,1186,o),
(379,1129,cs),
(379,1065,o),
(380,1048,o),
(422,1048,cs),
(460,1048,ls)
);
},
{
pos = (799,0);
ref = fraction;
}
);
vertWidth = 0;
width = 1948;
}
);
unicode = 190;
},
{
glyphname = onesuperior;
layers = (
{
layerId = "3E12A9BE-1094-4827-ACE3-4E9390329AA7";
shapes = (
{
closed = 1;
nodes = (
(269,1685,o),
(244,1675,o),
(228,1662,cs),
(220,1655,o),
(218,1643,o),
(218,1627,cs),
(219,1578,l),
(230,1551,l),
(245,712,ls),
(246,675,o),
(265,671,o),
(365,671,cs),
(439,671,o),
(466,675,o),
(467,712,cs),
(493,1628,ls),
(494,1669,o),
(478,1685,o),
(365,1685,cs)
);
},
{
closed = 1;
nodes = (
(60,1252,o),
(72,1248,o),
(83,1248,cs),
(91,1248,o),
(105,1255,o),
(118,1268,cs),
(307,1456,l),
(228,1662,l),
(87,1513,ls),
(68,1493,o),
(60,1478,o),
(60,1441,cs),
(60,1285,l)
);
}
);
vertWidth = 0;
width = 614;
}
);
unicode = 185;
},
{
glyphname = twosuperior;
layers = (
{
layerId = "3E12A9BE-1094-4827-ACE3-4E9390329AA7";
shapes = (
{
closed = 1;
nodes = (
(795,851,o),
(798,817,o),
(798,766,cs),
(798,708,o),
(796,680,o),
(754,680,cs),
(177,680,ls),
(142,680,o),
(133,687,o),
(133,720,cs),
(133,738,ls),
(133,766,o),
(140,781,o),
(152,797,c),
(479,1168,l),
(513,1212,o),
(528,1234,o),
(525,1296,c),
(519,1469,ls),
(517,1538,o),
(490,1547,o),
(449,1547,cs),
(400,1547,o),
(372,1538,o),
(370,1468,cs),
(363,1259,ls),
(361,1210,o),
(334,1204,o),
(243,1204,cs),
(145,1204,o),
(119,1211,o),
(116,1259,cs),
(101,1509,ls),
(94,1628,o),
(229,1701,o),
(449,1701,cs),
(670,1701,o),
(808,1629,o),
(803,1509,cs),
(791,1253,ls),
(789,1198,o),
(770,1161,o),
(724,1112,c),
(460,856,l),
(460,851,l),
(754,851,l)
);
}
);
vertWidth = 0;
width = 884;
}
);
unicode = 178;
},
{
glyphname = threesuperior;
layers = (
{
layerId = "3E12A9BE-1094-4827-ACE3-4E9390329AA7";
shapes = (
{
closed = 1;
nodes = (
(493,1048,o),
(514,1039,o),
(516,991,cs),
(519,907,ls),
(524,829,o),
(491,819,o),
(453,819,cs),
(386,819,o),
(365,827,o),
(367,879,cs),
(368,925,ls),
(370,973,o),
(336,980,o),
(235,980,cs),
(118,980,o),
(95,973,o),
(96,924,cs),
(98,829,ls),
(100,743,o),
(181,672,o),
(430,672,cs),
(688,672,o),
(770,752,o),
(772,846,cs),
(776,968,ls),
(779,1053,o),
(734,1083,o),
(616,1128,c),
(616,1133,l),
(758,1178,o),
(772,1235,o),
(774,1301,cs),
(782,1523,l),
(785,1656,o),
(581,1700,o),
(430,1700,cs),
(283,1700,o),
(78,1656,o),
(81,1523,c),
(94,1323,l),
(95,1274,o),
(126,1268,o),
(225,1268,cs),
(316,1268,o),
(343,1274,o),
(344,1323,c),
(352,1468,ls),
(354,1531,o),
(371,1548,o),
(430,1548,cs),
(482,1548,o),
(494,1530,o),
(499,1468,cs),
(507,1277,ls),
(509,1224,o),
(488,1207,o),
(451,1207,cs),
(413,1207,ls),
(370,1207,o),
(369,1186,o),
(369,1129,cs),
(369,1065,o),
(370,1048,o),
(412,1048,cs),
(450,1048,l)
);
}
);
vertWidth = 0;
width = 869;
}
);
unicode = 179;
},
{
glyphname = period;
layers = (
{
layerId = "3E12A9BE-1094-4827-ACE3-4E9390329AA7";
shapes = (
{
closed = 1;
nodes = (
(430,0,o),
(448,7,o),
(451,57,cs),
(462,252,ls),
(465,309,o),
(445,325,o),
(300,325,cs),
(155,325,o),
(134,309,o),
(138,252,cs),
(150,57,ls),
(153,7,o),
(170,0,o),
(300,0,cs)
);
}
);
vertWidth = 0;
width = 600;
}
);
unicode = 46;
},
{
glyphname = comma;
layers = (
{
layerId = "3E12A9BE-1094-4827-ACE3-4E9390329AA7";
shapes = (
{
closed = 1;
nodes = (
(196,-309,o),
(224,-313,o),
(276,-313,cs),
(341,-313,o),
(350,-305,o),
(377,-237,cs),
(464,0,ls),
(476,31,o),
(480,47,o),
(482,89,cs),
(490,252,ls),
(492,309,o),
(472,325,o),
(318,325,cs),
(155,325,o),
(132,309,o),
(136,252,cs),
(144,65,ls),
(146,32,o),
(155,8,o),
(203,8,cs),
(261,8,l),
(219,-166,ls),
(205,-221,o),
(196,-255,o),
(196,-278,cs)
);
}
);
vertWidth = 0;
width = 619;
}
);
unicode = 44;
},
{
glyphname = colon;
layers = (
{
layerId = "3E12A9BE-1094-4827-ACE3-4E9390329AA7";
shapes = (
{
closed = 1;
nodes = (
(437,843,o),
(463,850,o),
(466,900,c),
(475,1128,l),
(478,1185,o),
(452,1201,o),
(298,1201,cs),
(144,1201,o),
(117,1185,o),
(121,1128,c),
(130,900,l),
(133,850,o),
(159,843,o),
(298,843,cs)
);
},
{
ref = period;
}
);
userData = {
com.typemytype.robofont.guides = (
{
angle = 90;
isGlobal = 0;
magnetic = 5;
x = 300;
y = 0;
}
);
};
vertWidth = 0;
width = 596;
}
);
unicode = 58;
},
{
glyphname = semicolon;
layers = (
{
layerId = "3E12A9BE-1094-4827-ACE3-4E9390329AA7";
shapes = (
{
closed = 1;
nodes = (
(437,843,o),
(463,850,o),
(466,900,c),
(475,1128,l),
(478,1185,o),
(452,1201,o),
(298,1201,cs),
(144,1201,o),
(117,1185,o),
(121,1128,c),
(130,900,l),
(133,850,o),
(159,843,o),
(298,843,cs)
);
},
{
ref = comma;
}
);
userData = {
com.typemytype.robofont.guides = (
{
angle = 90;
isGlobal = 0;
magnetic = 5;
x = 314;
y = 0;
}
);
};
vertWidth = 0;
width = 596;
}
);
unicode = 59;
},
{
glyphname = ellipsis;
layers = (
{
layerId = "3E12A9BE-1094-4827-ACE3-4E9390329AA7";
shapes = (
{
closed = 1;
nodes = (
(430,0,o),
(448,7,o),
(451,57,cs),
(462,252,ls),
(465,309,o),
(445,325,o),
(300,325,cs),
(155,325,o),
(134,309,o),
(138,252,cs),
(150,57,ls),
(153,7,o),
(170,0,o),
(300,0,cs)
);
},
{
closed = 1;
nodes = (
(1030,0,o),
(1048,7,o),
(1051,57,cs),
(1062,252,ls),
(1065,309,o),
(1045,325,o),
(900,325,cs),
(755,325,o),
(734,309,o),
(738,252,cs),
(750,57,ls),
(753,7,o),
(770,0,o),
(900,0,cs)
);
},
{
closed = 1;
nodes = (
(1630,0,o),
(1648,7,o),
(1651,57,cs),
(1662,252,ls),
(1665,309,o),
(1645,325,o),
(1500,325,cs),
(1355,325,o),
(1334,309,o),
(1338,252,cs),
(1350,57,ls),
(1353,7,o),
(1370,0,o),
(1500,0,cs)
);
}
);
vertWidth = 0;
width = 1800;
}
);
unicode = 8230;
},
{
glyphname = exclam;
layers = (
{
layerId = "3E12A9BE-1094-4827-ACE3-4E9390329AA7";
shapes = (
{
closed = 1;
nodes = (
(434,600,o),
(448,607,o),
(450,669,c),
(494,1640,l),
(496,1710,o),
(470,1724,o),
(310,1724,cs),
(150,1724,o),
(124,1710,o),
(126,1640,c),
(170,669,l),
(172,607,o),
(186,600,o),
(310,600,cs)
);
},
{
closed = 1;
nodes = (
(440,0,o),
(458,7,o),
(461,57,cs),
(472,252,ls),
(475,309,o),
(455,325,o),
(310,325,cs),
(165,325,o),
(144,309,o),
(148,252,cs),
(160,57,ls),
(163,7,o),
(180,0,o),
(310,0,cs)
);
}
);
userData = {
com.typemytype.robofont.guides = (
{
angle = 90;
isGlobal = 0;
magnetic = 5;
x = 310;
y = 0;
}
);
};
vertWidth = 0;
width = 620;
}
);
unicode = 33;
},
{
glyphname = exclamdown;
layers = (
{
layerId = "3E12A9BE-1094-4827-ACE3-4E9390329AA7";
shapes = (
{
closed = 1;
nodes = (
(434,0,o),
(444,7,o),
(447,69,cs),
(477,1040,ls),
(480,1110,o),
(452,1124,o),
(310,1124,cs),
(168,1124,o),
(140,1110,o),
(143,1040,cs),
(169,69,ls),
(171,7,o),
(186,0,o),
(310,0,cs)
);
},
{
closed = 1;
nodes = (
(458,1375,o),
(485,1382,o),
(488,1432,cs),
(494,1638,ls),
(496,1703,o),
(480,1724,o),
(310,1724,cs),
(140,1724,o),
(124,1702,o),
(126,1637,cs),
(132,1432,ls),
(136,1377,o),
(170,1375,o),
(310,1375,cs)
);
}
);
vertWidth = 0;
width = 620;
}
);
unicode = 161;
},
{
glyphname = question;
layers = (
{
layerId = "3E12A9BE-1094-4827-ACE3-4E9390329AA7";
shapes = (
{
closed = 1;
nodes = (
(466,670,o),
(472,698,o),
(497,721,c),
(637,840,l),
(722,917,o),
(732,947,o),
(728,1079,cs),
(717,1378,l),
(714,1497,o),
(670,1513,o),
(584,1513,cs),
(498,1513,o),
(455,1497,o),
(452,1378,c),
(440,1028,l),
(438,945,o),
(401,934,o),
(283,934,cs),
(166,934,o),
(133,945,o),
(131,1028,cs),
(121,1370,l),
(116,1574,o),
(273,1697,o),
(584,1697,cs),
(887,1697,o),
(1054,1574,o),
(1049,1370,c),
(1037,1056,l),
(1035,964,o),
(1010,914,o),
(925,841,cs),
(724,668,l),
(714,534,ls),
(710,464,o),
(686,462,o),
(596,462,cs),
(504,462,o),
(478,464,o),
(478,534,c),
(468,622,l)
);
},
{
closed = 1;
nodes = (
(725,0,o),
(743,7,o),
(746,57,cs),
(757,252,ls),
(760,309,o),
(740,325,o),
(595,325,cs),
(450,325,o),
(429,309,o),
(433,252,cs),
(445,57,ls),
(448,7,o),
(465,0,o),
(595,0,cs)
);
}
);
userData = {
com.typemytype.robofont.guides = (
{
angle = 90;
isGlobal = 0;
magnetic = 5;
x = 595;
y = 0;
},
{
angle = 90;
isGlobal = 0;
magnetic = 5;
x = 1780;
y = 0;
}
);
};
vertWidth = 0;
width = 1170;
}
);
unicode = 63;
},
{
glyphname = questiondown;
layers = (
{
layerId = "3E12A9BE-1094-4827-ACE3-4E9390329AA7";
shapes = (
{
closed = 1;
nodes = (
(711,1023,o),
(709,1002,o),
(683,980,cs),
(527,845,ls),
(439,770,o),
(440,751,o),
(436,619,cs),
(427,295,ls),
(424,176,o),
(490,154,o),
(594,154,cs),
(701,154,o),
(759,180,o),
(753,299,c),
(743,670,ls),
(741,753,o),
(777,764,o),
(895,764,cs),
(1020,764,o),
(1061,753,o),
(1059,670,cs),
(1051,323,ls),
(1046,119,o),
(905,-12,o),
(594,-12,cs),
(291,-12,o),
(134,114,o),
(129,318,cs),
(121,642,ls),
(119,734,o),
(168,784,o),
(253,857,cs),
(459,1034,l),
(449,1194,ls),
(445,1264,o),
(492,1266,o),
(582,1266,cs),
(690,1266,o),
(725,1263,o),
(721,1193,cs),
(715,1071,l)
);
},
{
closed = 1;
nodes = (
(708,1399,o),
(726,1406,o),
(729,1456,cs),
(740,1651,ls),
(743,1708,o),
(723,1724,o),
(578,1724,cs),
(433,1724,o),
(412,1708,o),
(416,1651,cs),
(428,1456,ls),
(431,1406,o),
(448,1399,o),
(578,1399,cs)
);
}
);
vertWidth = 0;
width = 1189;
}
);
unicode = 191;
},
{
glyphname = bullet;
layers = (
{
layerId = "3E12A9BE-1094-4827-ACE3-4E9390329AA7";
shapes = (
{
closed = 1;
nodes = (
(556,1045,o),
(655,983,o),
(648,836,cs),
(641,689,ls),
(633,531,o),
(538,480,o),
(379,480,cs),
(220,480,o),
(125,531,o),
(117,689,cs),
(110,836,ls),
(103,983,o),
(202,1045,o),
(379,1045,cs)
);
}
);
vertWidth = 0;
width = 763;
}
);
unicode = 8226;
},
{
glyphname = asterisk;
layers = (
{
layerId = "3E12A9BE-1094-4827-ACE3-4E9390329AA7";
shapes = (
{
closed = 1;
nodes = (
(624,1112,ls),
(654,1072,o),
(675,1083,o),
(730,1123,cs),
(786,1163,o),
(794,1181,o),
(765,1222,cs),
(662,1362,l),
(836,1405,ls),
(891,1419,o),
(905,1434,o),
(876,1530,cs),
(847,1625,o),
(825,1637,o),
(771,1619,cs),
(617,1560,l),
(628,1803,ls),
(631,1860,o),
(612,1875,o),
(511,1875,cs),
(411,1875,o),
(391,1859,o),
(394,1802,cs),
(405,1558,l),
(246,1619,ls),
(192,1637,o),
(170,1625,o),
(141,1530,cs),
(112,1434,o),
(127,1420,o),
(181,1405,cs),
(357,1361,l),
(255,1223,ls),
(226,1182,o),
(234,1163,o),
(290,1123,cs),
(345,1083,o),
(366,1072,o),
(396,1112,cs),
(510,1274,l)
);
}
);
userData = {
com.typemytype.robofont.guides = (
{
angle = 90;
isGlobal = 0;
magnetic = 5;
x = 509;
y = 0;
}
);
};
vertWidth = 0;
width = 1018;
}
);
unicode = 42;
},
{
glyphname = numbersign;
layers = (
{
layerId = "3E12A9BE-1094-4827-ACE3-4E9390329AA7";
shapes = (
{
closed = 1;
nodes = (
(354,-2,o),
(381,2,o),
(398,48,cs),
(677,1334,ls),
(689,1388,o),
(667,1403,o),
(553,1404,cs),
(430,1405,o),
(424,1386,o),
(405,1333,cs),
(197,57,ls),
(189,8,o),
(195,0,o),
(283,-1,cs)
);
},
{
closed = 1;
nodes = (
(828,-2,o),
(855,2,o),
(872,48,cs),
(1151,1334,ls),
(1163,1388,o),
(1141,1403,o),
(1027,1404,cs),
(904,1405,o),
(888,1389,o),
(879,1333,cs),
(671,57,ls),
(663,8,o),
(669,0,o),
(757,-1,cs)
);
},
{
closed = 1;
nodes = (
(1257,849,o),
(1259,870,o),
(1259,936,cs),
(1259,1010,o),
(1257,1035,o),
(1187,1035,cs),
(214,1035,ls),
(144,1035,o),
(142,1011,o),
(142,937,cs),
(142,871,o),
(144,849,o),
(214,849,cs),
(1187,849,l)
);
},
{
closed = 1;
nodes = (
(1149,341,o),
(1151,362,o),
(1151,428,cs),
(1151,502,o),
(1149,527,o),
(1079,527,cs),
(132,527,ls),
(62,527,o),
(60,503,o),
(60,429,cs),
(60,363,o),
(62,341,o),
(132,341,cs),
(1079,341,l)
);
}
);
userData = {
com.typemytype.robofont.guides = (
{
angle = 0;
isGlobal = 0;
magnetic = 5;
x = 0;
y = 1499;
},
{
angle = 90;
isGlobal = 0;
magnetic = 5;
x = 1199;
y = 0;
},
{
angle = 90;
isGlobal = 0;
magnetic = 5;
x = 174;
y = 0;
}
);
};
vertWidth = 0;
width = 1319;
}
);
unicode = 35;
},
{
glyphname = slash;
layers = (
{
layerId = "3E12A9BE-1094-4827-ACE3-4E9390329AA7";
shapes = (
{
closed = 1;
nodes = (
(245,-2,o),
(272,2,o),
(289,48,cs),
(878,1687,ls),
(897,1739,o),
(872,1756,o),
(758,1757,cs),
(643,1758,o),
(634,1739,o),
(616,1686,cs),
(88,57,ls),
(67,12,o),
(86,0,o),
(174,-1,cs)
);
}
);
userData = {
com.typemytype.robofont.guides = (
{
angle = 90;
isGlobal = 0;
magnetic = 5;
x = 1009;
y = 0;
},
{
angle = 90;
isGlobal = 0;
magnetic = 5;
x = -16;
y = 0;
}
);
};
vertWidth = 0;
width = 964;
}
);
unicode = 47;
},
{
glyphname = hyphen;
layers = (
{
layerId = "3E12A9BE-1094-4827-ACE3-4E9390329AA7";
shapes = (
{
closed = 1;
nodes = (
(722,480,o),
(724,505,o),
(724,587,cs),
(724,677,o),
(722,706,o),
(652,706,cs),
(196,706,ls),
(126,706,o),
(124,678,o),
(124,588,cs),
(124,506,o),
(126,480,o),
(196,480,cs),
(652,480,l)
);
}
);
userData = {
com.typemytype.robofont.guides = (
{
angle = 90;
isGlobal = 0;
magnetic = 5;
x = 2199;
y = 0;
}
);
};
vertWidth = 0;
width = 849;
}
);
unicode = 45;
},
{
glyphname = uni00AD;
layers = (
{
layerId = "3E12A9BE-1094-4827-ACE3-4E9390329AA7";
shapes = (
{
closed = 1;
nodes = (
(722,480,o),
(724,505,o),
(724,587,cs),
(724,677,o),
(722,706,o),
(652,706,cs),
(196,706,ls),
(126,706,o),
(124,678,o),
(124,588,cs),
(124,506,o),
(126,480,o),
(196,480,cs),
(652,480,l)
);
}
);
userData = {
com.typemytype.robofont.guides = (
{
angle = 90;
isGlobal = 0;
magnetic = 5;
x = 2199;
y = 0;
}
);
};
vertWidth = 0;
width = 849;
}
);
unicode = 173;
},
{
glyphname = endash;
layers = (
{
layerId = "3E12A9BE-1094-4827-ACE3-4E9390329AA7";
shapes = (
{
closed = 1;
nodes = (
(968,480,o),
(970,505,o),
(970,587,cs),
(970,677,o),
(968,706,o),
(898,706,cs),
(182,706,ls),
(112,706,o),
(110,678,o),
(110,588,cs),
(110,506,o),
(112,480,o),
(182,480,cs),
(898,480,l)
);
}
);
userData = {
com.typemytype.robofont.guides = (
{
angle = 90;
isGlobal = 0;
magnetic = 5;
x = 741;
y = 0;
},
{
angle = 90;
isGlobal = 0;
magnetic = 5;
x = 117;
y = 0;
},
{
angle = 90;
isGlobal = 0;
magnetic = 5;
x = 975;
y = 0;
}
);
};
vertWidth = 0;
width = 1080;
}
);
unicode = 8211;
},
{
glyphname = emdash;
layers = (
{
layerId = "3E12A9BE-1094-4827-ACE3-4E9390329AA7";
shapes = (
{
closed = 1;
nodes = (
(1508,480,o),
(1510,505,o),
(1510,587,cs),
(1510,677,o),
(1508,706,o),
(1438,706,cs),
(182,706,ls),
(112,706,o),
(110,678,o),
(110,588,cs),
(110,506,o),
(112,480,o),
(182,480,cs),
(1438,480,l)
);
}
);
userData = {
com.typemytype.robofont.guides = (
{
angle = 90;
isGlobal = 0;
magnetic = 5;
x = 1514;
y = 0;
},
{
angle = 90;
isGlobal = 0;
magnetic = 5;
x = 117;
y = 0;
},
{
angle = 90;
isGlobal = 0;
magnetic = 5;
x = 975;
y = 0;
}
);
};
vertWidth = 0;
width = 1620;
}
);
unicode = 8212;
},
{
glyphname = underscore;
layers = (
{
layerId = "3E12A9BE-1094-4827-ACE3-4E9390329AA7";
shapes = (
{
closed = 1;
nodes = (
(1253,-100,l),
(-10,-100,l),
(-10,-257,l),
(1253,-257,l)
);
}
);
userData = {
com.typemytype.robofont.guides = (
{
angle = 90;
isGlobal = 0;
magnetic = 5;
x = 739;
y = 0;
}
);
};
vertWidth = 0;
width = 1243;
}
);
unicode = 95;
},
{
glyphname = parenleft;
layers = (
{
layerId = "3E12A9BE-1094-4827-ACE3-4E9390329AA7";
shapes = (
{
closed = 1;
nodes = (
(93,1702,o),
(320,1900,o),
(566,1900,cs),
(607,1900,ls),
(663,1900,o),
(667,1890,o),
(667,1817,cs),
(667,1736,o),
(655,1729,o),
(608,1729,cs),
(430,1730,o),
(361,1643,o),
(357,1426,cs),
(344,150,ls),
(340,-65,o),
(420,-140,o),
(579,-140,cs),
(622,-140,o),
(638,-146,o),
(638,-218,cs),
(638,-282,o),
(630,-291,o),
(578,-291,cs),
(529,-291,ls),
(276,-291,o),
(125,-106,o),
(119,244,cs),
(101,1324,l)
);
}
);
userData = {
com.typemytype.robofont.guides = (
{
angle = 90;
isGlobal = 0;
magnetic = 5;
x = 101;
y = 0;
},
{
angle = 90;
isGlobal = 0;
magnetic = 5;
x = 669;
y = 0;
}
);
};
vertWidth = 0;
width = 687;
}
);
unicode = 40;
},
{
glyphname = braceleft;
layers = (
{
layerId = "3E12A9BE-1094-4827-ACE3-4E9390329AA7";
shapes = (
{
closed = 1;
nodes = (
(204,624,o),
(256,597,o),
(259,497,cs),
(271,46,ls),
(277,-175,o),
(354,-294,o),
(610,-294,cs),
(663,-294,ls),
(713,-294,o),
(724,-287,o),
(724,-214,cs),
(724,-141,o),
(719,-129,o),
(669,-128,cs),
(627,-128,ls),
(506,-128,o),
(471,-72,o),
(474,46,cs),
(483,425,ls),
(486,570,o),
(476,629,o),
(343,714,c),
(343,722,l),
(480,804,o),
(492,905,o),
(494,1039,cs),
(503,1540,ls),
(506,1684,o),
(530,1725,o),
(642,1725,cs),
(696,1725,ls),
(743,1725,o),
(755,1737,o),
(755,1818,cs),
(755,1891,o),
(751,1902,o),
(695,1902,cs),
(576,1902,ls),
(288,1902,o),
(226,1748,o),
(231,1540,cs),
(246,954,ls),
(249,847,o),
(202,804,o),
(120,804,cs),
(102,804,ls),
(41,804,o),
(40,781,o),
(40,714,cs),
(40,648,o),
(42,624,o),
(102,624,cs),
(120,624,l)
);
}
);
userData = {
com.typemytype.robofont.guides = (
{
angle = 90;
isGlobal = 0;
magnetic = 5;
x = 120;
y = 0;
}
);
};
vertWidth = 0;
width = 775;
}
);
unicode = 123;
},
{
glyphname = braceright;
layers = (
{
layerId = "3E12A9BE-1094-4827-ACE3-4E9390329AA7";
shapes = (
{
closed = 1;
nodes = (
(571,624,o),
(519,597,o),
(516,497,cs),
(504,46,ls),
(498,-175,o),
(421,-294,o),
(165,-294,cs),
(112,-294,ls),
(62,-294,o),
(51,-287,o),
(51,-214,cs),
(51,-141,o),
(56,-129,o),
(106,-128,cs),
(148,-128,ls),
(269,-128,o),
(304,-72,o),
(301,46,cs),
(292,425,ls),
(289,570,o),
(299,629,o),
(432,714,c),
(432,722,l),
(295,804,o),
(283,905,o),
(281,1039,cs),
(272,1540,ls),
(269,1684,o),
(245,1725,o),
(133,1725,cs),
(79,1725,ls),
(32,1725,o),
(20,1737,o),
(20,1818,cs),
(20,1891,o),
(24,1902,o),
(80,1902,cs),
(199,1902,ls),
(487,1902,o),
(549,1748,o),
(544,1540,cs),
(529,954,ls),
(526,847,o),
(573,804,o),
(655,804,cs),
(673,804,ls),
(734,804,o),
(735,781,o),
(735,714,cs),
(735,648,o),
(733,624,o),
(673,624,cs),
(655,624,l)
);
}
);
userData = {
com.typemytype.robofont.guides = (
{
angle = 90;
isGlobal = 0;
magnetic = 5;
x = 100;
y = 0;
}
);
};
vertWidth = 0;
width = 775;
}
);
unicode = 125;
},
{
glyphname = bracketleft;
layers = (
{
layerId = "3E12A9BE-1094-4827-ACE3-4E9390329AA7";
shapes = (
{
closed = 1;
nodes = (
(614,-294,o),
(625,-287,o),
(625,-214,cs),
(625,-141,o),
(620,-129,o),
(570,-128,cs),
(371,-128,l),
(408,1724,l),
(597,1725,ls),
(644,1725,o),
(656,1737,o),
(656,1818,cs),
(656,1891,o),
(652,1902,o),
(596,1902,cs),
(285,1902,ls),
(148,1903,o),
(122,1888,o),
(126,1758,cs),
(180,-200,ls),
(182,-282,o),
(200,-294,o),
(274,-294,cs),
(564,-294,l)
);
}
);
userData = {
com.typemytype.robofont.guides = (
{
angle = 90;
isGlobal = 0;
magnetic = 5;
x = 88;
y = 0;
}
);
};
vertWidth = 0;
width = 666;
}
);
unicode = 91;
},
{
glyphname = bracketright;
layers = (
{
layerId = "3E12A9BE-1094-4827-ACE3-4E9390329AA7";
shapes = (
{
closed = 1;
nodes = (
(52,-294,o),
(41,-287,o),
(41,-214,cs),
(41,-141,o),
(46,-129,o),
(96,-128,cs),
(295,-128,l),
(258,1724,l),
(69,1725,ls),
(22,1725,o),
(10,1737,o),
(10,1818,cs),
(10,1891,o),
(14,1902,o),
(70,1902,cs),
(381,1902,ls),
(518,1903,o),
(544,1888,o),
(540,1758,cs),
(486,-200,ls),
(484,-282,o),
(466,-294,o),
(392,-294,cs),
(102,-294,l)
);
}
);
userData = {
com.typemytype.robofont.guides = (
{
angle = 90;
isGlobal = 0;
magnetic = 5;
x = -24;
y = 0;
}
);
};
vertWidth = 0;
width = 666;
}
);
unicode = 93;
},
{
glyphname = quoteright;
layers = (
{
layerId = "3E12A9BE-1094-4827-ACE3-4E9390329AA7";
shapes = (
{
closed = 1;
nodes = (
(50,1013,o),
(78,1006,o),
(144,1006,cs),
(228,1006,o),
(244,1016,o),
(272,1074,cs),
(405,1370,ls),
(428,1420,o),
(429,1451,o),
(432,1510,cs),
(439,1651,ls),
(442,1708,o),
(418,1724,o),
(255,1724,cs),
(101,1724,o),
(78,1708,o),
(82,1651,cs),
(92,1515,ls),
(94,1482,o),
(103,1450,o),
(159,1450,cs),
(216,1450,l),
(93,1153,ls),
(67,1092,o),
(50,1065,o),
(50,1046,cs)
);
}
);
vertWidth = 0;
width = 520;
}
);
unicode = 8217;
},
{
glyphname = guillemotleft;
layers = (
{
layerId = "3E12A9BE-1094-4827-ACE3-4E9390329AA7";
shapes = (
{
closed = 1;
nodes = (
(542,291,ls),
(573,250,o),
(588,231,o),
(588,210,cs),
(588,177,o),
(572,170,o),
(477,170,cs),
(420,170,o),
(377,171,o),
(341,216,cs),
(82,525,ls),
(57,556,o),
(50,572,o),
(50,593,cs),
(50,614,o),
(57,625,o),
(77,661,cs),
(266,1027,ls),
(298,1089,o),
(339,1089,o),
(447,1089,cs),
(554,1089,o),
(588,1079,o),
(588,1046,cs),
(588,1025,o),
(581,1011,o),
(554,968,cs),
(313,593,l)
);
},
{
closed = 1;
nodes = (
(1084,291,ls),
(1115,250,o),
(1130,231,o),
(1130,210,cs),
(1130,177,o),
(1114,170,o),
(1019,170,cs),
(962,170,o),
(920,172,o),
(883,216,cs),
(624,525,ls),
(599,556,o),
(592,572,o),
(592,593,cs),
(592,614,o),
(600,624,o),
(619,661,cs),
(808,1027,ls),
(838,1090,o),
(881,1089,o),
(989,1089,cs),
(1096,1089,o),
(1130,1079,o),
(1130,1046,cs),
(1130,1025,o),
(1123,1011,o),
(1096,968,cs),
(855,593,l)
);
}
);
userData = {
com.typemytype.robofont.guides = (
{
angle = 90;
isGlobal = 0;
magnetic = 5;
x = 599;
y = 0;
}
);
};
vertWidth = 0;
width = 1210;
}
);
unicode = 171;
},
{
glyphname = guilsinglleft;
layers = (
{
layerId = "3E12A9BE-1094-4827-ACE3-4E9390329AA7";
shapes = (
{
closed = 1;
nodes = (
(542,291,ls),
(573,250,o),
(588,231,o),
(588,210,cs),
(588,177,o),
(572,170,o),
(477,170,cs),
(420,170,o),
(377,171,o),
(341,216,c),
(82,525,ls),
(57,556,o),
(50,572,o),
(50,593,cs),
(50,614,o),
(57,625,o),
(77,661,c),
(266,1027,l),
(298,1089,o),
(339,1089,o),
(447,1089,cs),
(554,1089,o),
(588,1079,o),
(588,1046,cs),
(588,1025,o),
(581,1011,o),
(554,968,cs),
(313,593,l)
);
}
);
userData = {
com.typemytype.robofont.guides = (
{
angle = 0;
isGlobal = 0;
magnetic = 5;
x = 0;
y = 593;
}
);
};
vertWidth = 0;
width = 668;
}
);
unicode = 8249;
},
{
glyphname = quotesingle;
layers = (
{
layerId = "3E12A9BE-1094-4827-ACE3-4E9390329AA7";
shapes = (
{
closed = 1;
nodes = (
(341,1016,o),
(352,1023,o),
(357,1085,cs),
(397,1640,ls),
(399,1710,o),
(374,1724,o),
(249,1724,cs),
(124,1724,o),
(99,1710,o),
(101,1640,cs),
(141,1085,ls),
(146,1023,o),
(157,1016,o),
(249,1016,cs)
);
}
);
userData = {
com.typemytype.robofont.guides = (
{
angle = 0;
isGlobal = 0;
magnetic = 5;
x = 0;
y = 1085;
}
);
};
vertWidth = 0;
width = 498;
}
);
unicode = 39;
},
{
glyphname = florin;
layers = (
{
anchors = (
{
name = btm;
pos = (349,-170);
},
{
name = top;
pos = (349,1700);
}
);
layerId = "3E12A9BE-1094-4827-ACE3-4E9390329AA7";
shapes = (
{
closed = 1;
nodes = (
(759,1544,o),
(764,1567,o),
(775,1634,cs),
(786,1708,o),
(787,1724,o),
(717,1724,cs),
(585,1724,ls),
(375,1724,o),
(251,1557,o),
(227,1384,cs),
(48,57,ls),
(41,7,o),
(57,0,o),
(169,0,cs),
(281,0,o),
(300,7,o),
(309,57,cs),
(546,1413,ls),
(565,1520,o),
(627,1544,o),
(667,1544,cs),
(707,1544,l)
);
},
{
closed = 1;
nodes = (
(615,926,o),
(619,944,o),
(632,1026,cs),
(644,1100,o),
(644,1116,o),
(574,1116,cs),
(160,1116,ls),
(90,1116,o),
(86,1100,o),
(74,1026,cs),
(61,944,o),
(61,926,o),
(131,926,cs),
(545,926,l)
);
}
);
userData = {
com.typemytype.robofont.guides = (
{
angle = 90;
isGlobal = 0;
magnetic = 5;
x = 626;
y = 0;
}
);
};
vertWidth = 0;
width = 635;
}
);
unicode = 402;
},
{
glyphname = at;
layers = (
{
layerId = "3E12A9BE-1094-4827-ACE3-4E9390329AA7";
shapes = (
{
closed = 1;
nodes = (
(1130,1104,o),
(1059,1164,o),
(931,1164,cs),
(746,1164,o),
(632,1050,o),
(637,857,cs),
(650,288,ls),
(656,47,o),
(795,-15,o),
(944,-15,cs),
(1058,-15,o),
(1151,43,o),
(1222,124,c),
(1189,227,l),
(1164,193,o),
(1115,151,o),
(1042,151,cs),
(965,151,o),
(907,182,o),
(910,288,cs),
(926,857,ls),
(928,949,o),
(965,997,o),
(1047,997,cs),
(1094,997,o),
(1144,961,o),
(1169,929,c),
(1168,1056,l)
);
},
{
closed = 1;
nodes = (
(1302,-442,o),
(1304,-421,o),
(1304,-361,cs),
(1304,-311,o),
(1302,-292,o),
(1242,-292,cs),
(972,-292,ls),
(680,-292,o),
(402,-187,o),
(406,132,cs),
(414,1054,ls),
(418,1373,o),
(696,1476,o),
(1051,1476,cs),
(1407,1476,o),
(1685,1373,o),
(1689,1054,cs),
(1697,282,ls),
(1699,181,o),
(1660,144,o),
(1595,144,cs),
(1430,144,l),
(1456,1080,ls),
(1458,1137,o),
(1430,1153,o),
(1302,1153,cs),
(1174,1153,o),
(1147,1137,o),
(1149,1080,cs),
(1176,168,l),
(1191,141,l),
(1193,115,ls),
(1202,19,o),
(1267,0,o),
(1348,0,cs),
(1606,0,ls),
(1791,0,o),
(1900,64,o),
(1905,282,cs),
(1913,1078,ls),
(1918,1488,o),
(1507,1676,o),
(1051,1676,cs),
(596,1676,o),
(185,1488,o),
(190,1078,cs),
(198,132,ls),
(203,-287,o),
(541,-442,o),
(972,-442,cs),
(1242,-442,l)
);
}
);
userData = {
com.typemytype.robofont.guides = (
{
angle = 0;
isGlobal = 0;
magnetic = 5;
x = 0;
y = 1064;
},
{
angle = 0;
isGlobal = 0;
magnetic = 5;
x = 0;
y = 1213;
}
);
};
vertWidth = 0;
width = 2089;
}
);
unicode = 64;
},
{
glyphname = ampersand;
layers = (
{
layerId = "3E12A9BE-1094-4827-ACE3-4E9390329AA7";
shapes = (
{
closed = 1;
nodes = (
(481,607,o),
(431,585,o),
(429,481,cs),
(423,307,ls),
(420,200,o),
(473,161,o),
(587,161,cs),
(589,161,ls),
(703,161,o),
(756,200,o),
(753,307,cs),
(742,673,ls),
(740,755,o),
(781,765,o),
(889,765,cs),
(1003,765,o),
(1030,755,o),
(1028,673,cs),
(1024,278,ls),
(1019,122,o),
(916,-12,o),
(589,-12,cs),
(258,-12,o),
(158,122,o),
(152,278,cs),
(145,427,ls),
(139,569,o),
(211,618,o),
(344,694,c),
(344,702,l),
(169,776,o),
(135,871,o),
(132,981,cs),
(121,1402,ls),
(115,1623,o),
(380,1696,o),
(589,1696,cs),
(796,1696,o),
(1063,1623,o),
(1055,1402,cs),
(1041,1044,ls),
(1038,962,o),
(1006,952,o),
(889,952,cs),
(771,952,o),
(735,962,o),
(732,1044,cs),
(719,1384,ls),
(715,1488,o),
(680,1517,o),
(589,1517,cs),
(496,1517,o),
(461,1488,o),
(457,1384,cs),
(443,929,ls),
(439,817,o),
(484,783,o),
(587,783,cs),
(1132,783,ls),
(1203,783,o),
(1205,760,o),
(1205,695,cs),
(1205,630,o),
(1203,607,o),
(1133,607,cs),
(589,607,l)
);
}
);
vertWidth = 0;
width = 1237;
}
);
unicode = 38;
},
{
glyphname = paragraph;
layers = (
{
layerId = "3E12A9BE-1094-4827-ACE3-4E9390329AA7";
shapes = (
{
closed = 1;
nodes = (
(352,1722,o),
(77,1647,o),
(86,1422,c),
(106,1003,ls),
(110,891,o),
(168,742,o),
(444,707,c),
(428,1009,l),
(454,57,ls),
(455,7,o),
(474,0,o),
(557,0,cs),
(638,0,o),
(658,8,o),
(659,58,cs),
(697,1652,ls),
(698,1709,o),
(672,1722,o),
(572,1722,cs)
);
},
{
closed = 1;
nodes = (
(1091,0,o),
(1110,8,o),
(1112,58,cs),
(1150,1652,ls),
(1151,1709,o),
(1130,1724,o),
(1008,1724,cs),
(887,1724,o),
(865,1708,o),
(866,1651,cs),
(907,57,ls),
(908,7,o),
(927,0,o),
(1009,0,cs)
);
}
);
vertWidth = 0;
width = 1277;
}
);
unicode = 182;
},
{
glyphname = section;
layers = (
{
layerId = "3E12A9BE-1094-4827-ACE3-4E9390329AA7";
shapes = (
{
closed = 1;
nodes = (
(1101,690,o),
(1032,741,o),
(927,786,cs),
(626,921,ls),
(546,957,o),
(527,994,o),
(530,1079,cs),
(541,1410,ls),
(544,1527,o),
(589,1543,o),
(675,1543,cs),
(761,1543,o),
(796,1527,o),
(801,1410,cs),
(816,1059,ls),
(819,984,o),
(855,974,o),
(958,974,cs),
(1082,974,o),
(1120,985,o),
(1125,1066,cs),
(1146,1403,ls),
(1159,1603,o),
(980,1723,o),
(675,1723,cs),
(364,1723,o),
(196,1587,o),
(201,1436,cs),
(212,1102,ls),
(216,976,o),
(256,913,o),
(398,852,cs),
(521,799,l),
(547,744,l),
(727,668,ls),
(817,634,o),
(818,592,o),
(818,526,cs),
(818,361,ls),
(818,274,o),
(763,241,o),
(671,241,c),
(671,126,l),
(865,126,o),
(1101,228,o),
(1101,387,cs),
(1101,545,l)
);
},
{
closed = 1;
nodes = (
(262,-351,o),
(464,-420,o),
(660,-420,cs),
(892,-420,o),
(1075,-331,o),
(1075,-132,cs),
(1075,-75,ls),
(1075,22,o),
(1051,67,o),
(954,118,cs),
(798,192,l),
(798,212,l),
(602,278,ls),
(536,301,o),
(519,335,o),
(519,400,cs),
(520,604,ls),
(520,690,o),
(578,718,o),
(639,718,c),
(639,855,l),
(551,855,o),
(237,773,o),
(238,589,cs),
(238,425,ls),
(239,263,o),
(285,221,o),
(415,172,cs),
(652,86,ls),
(766,37,o),
(803,26,o),
(803,-81,cs),
(803,-157,ls),
(803,-242,o),
(769,-276,o),
(675,-276,cs),
(573,-276,o),
(537,-251,o),
(537,-177,cs),
(537,-118,ls),
(537,-44,o),
(518,-23,o),
(399,-23,cs),
(281,-23,o),
(262,-43,o),
(262,-117,cs),
(262,-168,l)
);
}
);
vertWidth = 0;
width = 1347;
}
);
unicode = 167;
},
{
glyphname = copyright;
layers = (
{
layerId = "3E12A9BE-1094-4827-ACE3-4E9390329AA7";
shapes = (
{
closed = 1;
nodes = (
(1261,528,o),
(1166,442,o),
(933,442,cs),
(700,442,o),
(605,528,o),
(603,633,c),
(586,1235,ls),
(583,1354,o),
(686,1444,o),
(933,1444,cs),
(1180,1444,o),
(1283,1354,o),
(1280,1235,cs),
(1273,968,ls),
(1272,919,o),
(1239,913,o),
(1145,913,cs),
(1047,913,o),
(1020,919,o),
(1019,968,c),
(1010,1222,ls),
(1008,1291,o),
(984,1301,o),
(933,1301,cs),
(882,1301,o),
(857,1291,o),
(856,1222,c),
(837,652,l),
(836,584,o),
(863,563,o),
(933,563,cs),
(1003,563,o),
(1030,584,o),
(1028,652,c),
(1026,688,ls),
(1024,738,o),
(1054,745,o),
(1151,745,cs),
(1250,745,o),
(1266,738,o),
(1265,688,cs),
(1263,631,l)
);
},
{
closed = 1;
nodes = (
(517,1897,o),
(146,1709,o),
(151,1299,cs),
(159,643,ls),
(164,224,o),
(501,71,o),
(932,71,cs),
(1364,71,o),
(1701,224,o),
(1706,643,cs),
(1714,1299,ls),
(1719,1709,o),
(1348,1897,o),
(932,1897,cs)
);
},
{
closed = 1;
nodes = (
(640,221,o),
(363,324,o),
(367,643,cs),
(375,1275,ls),
(379,1594,o),
(625,1697,o),
(932,1697,cs),
(1240,1697,o),
(1486,1594,o),
(1490,1275,cs),
(1498,643,ls),
(1502,324,o),
(1225,221,o),
(932,221,cs)
);
}
);
userData = {
com.typemytype.robofont.guides = (
{
angle = 0;
isGlobal = 0;
magnetic = 5;
x = 0;
y = 1064;
},
{
angle = 0;
isGlobal = 0;
magnetic = 5;
x = 0;
y = 1213;
},
{
angle = 90;
isGlobal = 0;
magnetic = 5;
x = 932;
y = 0;
},
{
angle = 90;
isGlobal = 0;
magnetic = 5;
x = 2740;
y = 0;
}
);
};
vertWidth = 0;
width = 1865;
}
);
unicode = 169;
},
{
glyphname = registered;
layers = (
{
layerId = "3E12A9BE-1094-4827-ACE3-4E9390329AA7";
shapes = (
{
closed = 1;
nodes = (
(1025,791,ls),
(1219,791,o),
(1278,887,o),
(1282,1002,cs),
(1288,1171,ls),
(1295,1367,o),
(1189,1438,o),
(1012,1438,cs),
(730,1438,l),
(730,1301,l),
(925,1301,ls),
(1000,1301,o),
(1015,1282,o),
(1018,1222,cs),
(1030,997,ls),
(1033,932,o),
(1010,903,o),
(936,903,cs),
(725,903,l),
(725,791,l)
);
},
{
closed = 1;
nodes = (
(874,854,l),
(1074,498,ls),
(1097,460,o),
(1116,451,o),
(1183,451,cs),
(1266,451,o),
(1282,466,o),
(1282,485,cs),
(1282,497,o),
(1276,515,o),
(1263,542,cs),
(1115,854,l)
);
},
{
closed = 1;
nodes = (
(868,1425,o),
(849,1438,o),
(730,1438,cs),
(612,1438,o),
(592,1424,o),
(593,1367,cs),
(615,508,ls),
(616,458,o),
(639,450,o),
(731,450,cs),
(823,450,o),
(844,458,o),
(845,508,cs),
(867,1368,l)
);
},
{
closed = 1;
nodes = (
(517,1897,o),
(146,1709,o),
(151,1299,cs),
(159,643,ls),
(164,224,o),
(501,71,o),
(932,71,cs),
(1364,71,o),
(1701,224,o),
(1706,643,cs),
(1714,1299,ls),
(1719,1709,o),
(1348,1897,o),
(932,1897,cs)
);
},
{
closed = 1;
nodes = (
(640,221,o),
(363,324,o),
(367,643,cs),
(375,1275,ls),
(379,1594,o),
(625,1697,o),
(932,1697,cs),
(1240,1697,o),
(1486,1594,o),
(1490,1275,cs),
(1498,643,ls),
(1502,324,o),
(1225,221,o),
(932,221,cs)
);
}
);
userData = {
com.typemytype.robofont.guides = (
{
angle = 90;
isGlobal = 0;
magnetic = 5;
x = 932;
y = 0;
}
);
};
vertWidth = 0;
width = 1865;
}
);
unicode = 174;
},
{
glyphname = uni2117;
layers = (
{
layerId = "3E12A9BE-1094-4827-ACE3-4E9390329AA7";
shapes = (
{
closed = 1;
nodes = (
(1028,741,ls),
(1222,741,o),
(1281,837,o),
(1285,952,cs),
(1301,1171,ls),
(1308,1367,o),
(1202,1438,o),
(1025,1438,cs),
(743,1438,l),
(743,1301,l),
(938,1301,ls),
(1013,1301,o),
(1028,1282,o),
(1031,1222,cs),
(1033,947,ls),
(1036,882,o),
(1013,853,o),
(939,853,cs),
(738,853,l),
(738,741,l)
);
},
{
closed = 1;
nodes = (
(881,1425,o),
(862,1438,o),
(743,1438,cs),
(625,1438,o),
(605,1424,o),
(606,1367,cs),
(628,508,ls),
(629,458,o),
(652,450,o),
(744,450,cs),
(836,450,o),
(857,458,o),
(858,508,cs),
(880,1368,l)
);
},
{
closed = 1;
nodes = (
(517,1897,o),
(146,1709,o),
(151,1299,cs),
(159,643,ls),
(164,224,o),
(501,71,o),
(932,71,cs),
(1364,71,o),
(1701,224,o),
(1706,643,cs),
(1714,1299,ls),
(1719,1709,o),
(1348,1897,o),
(932,1897,cs)
);
},
{
closed = 1;
nodes = (
(640,221,o),
(363,324,o),
(367,643,cs),
(375,1275,ls),
(379,1594,o),
(625,1697,o),
(932,1697,cs),
(1240,1697,o),
(1486,1594,o),
(1490,1275,cs),
(1498,643,ls),
(1502,324,o),
(1225,221,o),
(932,221,cs)
);
}
);
userData = {
com.typemytype.robofont.guides = (
{
angle = 90;
isGlobal = 0;
magnetic = 5;
x = 932;
y = 0;
}
);
};
vertWidth = 0;
width = 1865;
}
);
unicode = 8471;
},
{
glyphname = trademark;
layers = (
{
layerId = "3E12A9BE-1094-4827-ACE3-4E9390329AA7";
shapes = (
{
closed = 1;
nodes = (
(1229,1617,ls),
(1210,1685,o),
(1203,1690,o),
(1038,1690,cs),
(877,1690,o),
(846,1681,o),
(849,1606,cs),
(881,742,ls),
(883,684,o),
(894,680,o),
(981,680,cs),
(1088,680,o),
(1101,684,o),
(1101,740,cs),
(1098,1331,l),
(1108,1331,l),
(1259,890,ls),
(1268,857,o),
(1277,852,o),
(1352,852,cs),
(1436,852,o),
(1448,856,o),
(1457,888,cs),
(1599,1331,l),
(1608,1331,l),
(1603,740,ls),
(1603,684,o),
(1617,680,o),
(1723,680,cs),
(1819,680,o),
(1831,684,o),
(1833,740,cs),
(1866,1607,ls),
(1869,1682,o),
(1846,1690,o),
(1689,1690,cs),
(1528,1690,o),
(1511,1685,o),
(1493,1617,cs),
(1366,1147,l),
(1359,1147,l)
);
},
{
closed = 1;
nodes = (
(511,680,o),
(544,687,o),
(545,718,cs),
(572,1590,l),
(299,1589,l),
(327,721,ls),
(328,684,o),
(361,680,o),
(436,680,cs)
);
},
{
closed = 1;
nodes = (
(749,1479,o),
(751,1501,o),
(751,1581,cs),
(751,1658,o),
(749,1690,o),
(693,1690,cs),
(177,1690,ls),
(122,1690,o),
(120,1658,o),
(120,1581,cs),
(120,1501,o),
(122,1479,o),
(177,1479,cs),
(693,1479,l)
);
}
);
userData = {
com.typemytype.robofont.guides = (
{
angle = 0;
isGlobal = 0;
magnetic = 5;
x = 0;
y = 719;
}
);
};
vertWidth = 0;
width = 2027;
}
);
unicode = 8482;
},
{
glyphname = degree;
layers = (
{
anchors = (
{
name = _top;
pos = (373,1700);
}
);
layerId = "3E12A9BE-1094-4827-ACE3-4E9390329AA7";
shapes = (
{
closed = 1;
nodes = (
(239,1699,o),
(69,1633,o),
(80,1463,cs),
(96,1222,ls),
(106,1065,o),
(261,1020,o),
(424,1020,cs),
(586,1020,o),
(743,1065,o),
(752,1222,cs),
(766,1463,ls),
(776,1633,o),
(607,1699,o),
(424,1699,cs)
);
},
{
closed = 1;
nodes = (
(357,1150,o),
(310,1178,o),
(314,1263,cs),
(323,1463,ls),
(327,1540,o),
(358,1559,o),
(424,1559,cs),
(488,1559,o),
(520,1540,o),
(524,1463,cs),
(533,1263,ls),
(537,1178,o),
(489,1150,o),
(424,1150,cs)
);
}
);
vertWidth = 0;
width = 849;
}
);
unicode = 176;
},
{
glyphname = minute;
layers = (
{
layerId = "3E12A9BE-1094-4827-ACE3-4E9390329AA7";
shapes = (
{
closed = 1;
nodes = (
(291,1016,o),
(303,1023,o),
(317,1085,cs),
(435,1640,ls),
(447,1710,o),
(424,1724,o),
(299,1724,cs),
(174,1724,o),
(147,1710,o),
(139,1640,cs),
(101,1085,ls),
(97,1023,o),
(107,1016,o),
(199,1016,cs)
);
}
);
userData = {
com.typemytype.robofont.guides = (
{
angle = 0;
isGlobal = 0;
magnetic = 5;
x = 0;
y = 1085;
}
);
};
vertWidth = 0;
width = 498;
}
);
unicode = 8242;
},
{
glyphname = bar;
layers = (
{
layerId = "3E12A9BE-1094-4827-ACE3-4E9390329AA7";
shapes = (
{
closed = 1;
nodes = (
(323,-420,o),
(339,-412,o),
(340,-362,cs),
(371,1652,ls),
(372,1709,o),
(355,1724,o),
(254,1724,cs),
(154,1724,o),
(136,1708,o),
(137,1651,cs),
(170,-363,ls),
(171,-413,o),
(187,-421,o),
(255,-420,c)
);
}
);
vertWidth = 0;
width = 508;
}
);
unicode = 124;
},
{
glyphname = brokenbar;
layers = (
{
layerId = "3E12A9BE-1094-4827-ACE3-4E9390329AA7";
shapes = (
{
closed = 1;
nodes = (
(372,1709,o),
(355,1724,o),
(254,1724,cs),
(154,1724,o),
(136,1708,o),
(137,1651,cs),
(149,878,ls),
(150,828,o),
(171,820,o),
(255,820,cs),
(339,820,o),
(358,828,o),
(359,878,cs),
(371,1652,l)
);
},
{
closed = 1;
nodes = (
(357,390,o),
(337,397,o),
(254,397,cs),
(172,397,o),
(152,389,o),
(154,324,cs),
(163,-363,ls),
(164,-413,o),
(187,-420,o),
(255,-420,cs),
(323,-420,o),
(346,-412,o),
(347,-362,cs),
(355,325,l)
);
}
);
vertWidth = 0;
width = 508;
}
);
unicode = 166;
},
{
glyphname = afii61352;
layers = (
{
layerId = "3E12A9BE-1094-4827-ACE3-4E9390329AA7";
shapes = (
{
closed = 1;
nodes = (
(283,1518,l),
(866,28,l),
(1002,146,l),
(451,1646,l)
);
},
{
closed = 1;
nodes = (
(428,0,o),
(440,7,o),
(442,68,cs),
(455,1607,ls),
(457,1676,o),
(433,1690,o),
(302,1690,cs),
(162,1690,o),
(142,1676,o),
(144,1607,cs),
(187,68,ls),
(189,7,o),
(204,0,o),
(323,0,cs)
);
},
{
closed = 1;
nodes = (
(1070,0,o),
(1082,37,o),
(1084,98,cs),
(1128,1607,ls),
(1130,1676,o),
(1107,1690,o),
(949,1690,cs),
(808,1690,o),
(784,1676,o),
(786,1607,cs),
(860,68,ls),
(862,7,o),
(896,0,o),
(965,0,cs)
);
},
{
closed = 1;
nodes = (
(518,1063,l),
(518,1120,l),
(433,1120,l),
(433,1063,l)
);
},
{
closed = 1;
nodes = (
(872,569,l),
(872,627,l),
(787,627,l),
(787,569,l)
);
},
{
closed = 1;
nodes = (
(1542,1684,o),
(1326,1593,o),
(1334,1380,cs),
(1357,746,ls),
(1365,528,o),
(1558,458,o),
(1765,458,cs),
(1970,458,o),
(2163,529,o),
(2171,747,cs),
(2194,1380,ls),
(2202,1593,o),
(1986,1684,o),
(1764,1684,cs)
);
},
{
closed = 1;
nodes = (
(1671,602,o),
(1628,636,o),
(1631,738,cs),
(1651,1397,ls),
(1654,1510,o),
(1698,1528,o),
(1764,1528,cs),
(1830,1528,o),
(1874,1510,o),
(1877,1397,cs),
(1897,739,ls),
(1900,637,o),
(1857,602,o),
(1764,602,cs)
);
},
{
pos = (1467,0);
ref = period;
}
);
vertWidth = 0;
width = 2315;
}
);
unicode = 8470;
},
{
glyphname = Euro;
layers = (
{
layerId = "3E12A9BE-1094-4827-ACE3-4E9390329AA7";
shapes = (
{
closed = 1;
nodes = (
(952,432,o),
(954,453,o),
(954,518,cs),
(954,583,o),
(952,605,o),
(882,605,cs),
(162,605,ls),
(92,605,o),
(90,583,o),
(90,519,cs),
(90,454,o),
(92,432,o),
(162,432,cs),
(882,432,l)
);
},
{
closed = 1;
nodes = (
(973,755,o),
(975,775,o),
(975,840,cs),
(975,912,o),
(973,937,o),
(903,937,cs),
(186,937,ls),
(116,937,o),
(114,913,o),
(114,841,cs),
(114,776,o),
(116,755,o),
(186,755,cs),
(903,755,l)
);
},
{
closed = 1;
nodes = (
(581,193,o),
(534,212,o),
(537,323,cs),
(567,1391,ls),
(570,1508,o),
(610,1524,o),
(690,1524,cs),
(770,1524,o),
(807,1508,o),
(813,1391,cs),
(820,1177,ls),
(824,1095,o),
(856,1085,o),
(974,1085,cs),
(1091,1085,o),
(1125,1095,o),
(1130,1177,cs),
(1141,1360,ls),
(1153,1560,o),
(1018,1696,o),
(690,1696,cs),
(362,1696,o),
(229,1560,o),
(234,1360,cs),
(262,289,ls),
(267,122,o),
(402,0,o),
(700,0,cs),
(998,0,ls),
(1068,0,o),
(1070,24,o),
(1070,96,cs),
(1070,169,o),
(1068,193,o),
(998,193,cs),
(700,193,l)
);
}
);
userData = {
com.typemytype.robofont.guides = (
{
angle = 90;
isGlobal = 0;
magnetic = 5;
x = 974;
y = 0;
}
);
};
vertWidth = 0;
width = 1271;
}
);
unicode = 8364;
},
{
glyphname = cent;
layers = (
{
layerId = "3E12A9BE-1094-4827-ACE3-4E9390329AA7";
shapes = (
{
closed = 1;
nodes = (
(663,1458,ls),
(664,1515,o),
(647,1530,o),
(546,1530,cs),
(446,1530,o),
(428,1514,o),
(429,1457,cs),
(438,1117,l),
(655,1117,l)
);
},
{
closed = 1;
nodes = (
(462,-187,ls),
(463,-237,o),
(479,-245,o),
(547,-244,cs),
(615,-244,o),
(631,-236,o),
(632,-186,cs),
(639,79,l),
(455,79,l)
);
},
{
ref = c;
}
);
vertWidth = 0;
width = 1062;
}
);
unicode = 162;
},
{
glyphname = currency;
layers = (
{
layerId = "3E12A9BE-1094-4827-ACE3-4E9390329AA7";
shapes = (
{
closed = 1;
nodes = (
(861,326,o),
(1040,392,o),
(1044,546,cs),
(1050,807,ls),
(1054,954,o),
(869,1026,o),
(682,1026,cs),
(494,1026,o),
(304,953,o),
(308,805,cs),
(314,544,ls),
(318,390,o),
(497,326,o),
(679,326,cs)
);
},
{
closed = 1;
nodes = (
(755,864,o),
(842,850,o),
(845,745,c),
(850,612,ls),
(853,518,o),
(769,487,o),
(679,485,c),
(589,485,o),
(505,516,o),
(508,610,cs),
(513,743,l),
(516,848,o),
(603,864,o),
(679,864,cs)
);
},
{
closed = 1;
nodes = (
(429,1148,ls),
(390,1205,o),
(375,1210,o),
(271,1210,cs),
(160,1210,o),
(128,1200,o),
(128,1167,cs),
(128,1146,o),
(139,1127,o),
(173,1089,cs),
(365,869,l),
(578,932,l)
);
},
{
closed = 1;
nodes = (
(209,280,ls),
(181,242,o),
(162,220,o),
(162,199,cs),
(162,166,o),
(179,159,o),
(258,159,cs),
(311,159,o),
(343,156,o),
(384,205,cs),
(529,379,l),
(388,520,l)
);
},
{
closed = 1;
nodes = (
(1185,1089,ls),
(1219,1127,o),
(1230,1146,o),
(1230,1167,cs),
(1230,1200,o),
(1198,1210,o),
(1087,1210,cs),
(983,1210,o),
(968,1205,o),
(929,1148,cs),
(780,932,l),
(993,869,l)
);
},
{
closed = 1;
nodes = (
(974,206,ls),
(1014,157,o),
(1047,160,o),
(1100,160,cs),
(1179,160,o),
(1196,167,o),
(1196,200,cs),
(1196,221,o),
(1177,243,o),
(1149,281,cs),
(970,522,l),
(829,381,l)
);
}
);
userData = {
com.typemytype.robofont.guides = (
{
angle = 0;
isGlobal = 0;
magnetic = 5;
x = 0;
y = 160;
},
{
angle = 90;
isGlobal = 0;
magnetic = 5;
x = 131;
y = 0;
}
);
};
vertWidth = 0;
width = 1360;
}
);
unicode = 164;
},
{
glyphname = dollar;
layers = (
{
layerId = "3E12A9BE-1094-4827-ACE3-4E9390329AA7";
shapes = (
{
closed = 1;
nodes = (
(719,1874,ls),
(720,1930,o),
(703,1944,o),
(602,1944,cs),
(502,1944,o),
(484,1929,o),
(485,1873,cs),
(491,1616,l),
(714,1616,l)
);
},
{
closed = 1;
nodes = (
(518,-183,ls),
(519,-232,o),
(535,-240,o),
(603,-239,cs),
(671,-239,o),
(687,-231,o),
(688,-182,cs),
(695,77,l),
(511,77,l)
);
},
{
ref = S;
}
);
vertWidth = 0;
width = 1170;
}
);
unicode = 36;
},
{
glyphname = sterling;
layers = (
{
layerId = "3E12A9BE-1094-4827-ACE3-4E9390329AA7";
shapes = (
{
closed = 1;
nodes = (
(559,1500,o),
(599,1516,o),
(679,1516,cs),
(758,1516,o),
(798,1500,o),
(801,1384,cs),
(813,960,ls),
(815,879,o),
(852,868,o),
(970,868,cs),
(1087,868,o),
(1120,879,o),
(1122,960,cs),
(1132,1376,ls),
(1137,1576,o),
(983,1696,o),
(679,1696,cs),
(383,1696,o),
(217,1576,o),
(224,1376,cs),
(262,339,l),
(264,230,o),
(241,180,o),
(219,130,c),
(208,70,o),
(222,63,o),
(308,63,cs),
(414,63,o),
(414,73,o),
(439,130,cs),
(474,188,o),
(510,266,o),
(520,406,c),
(556,1384,l)
);
},
{
closed = 1;
nodes = (
(846,480,o),
(848,503,o),
(848,575,cs),
(848,656,o),
(846,682,o),
(776,682,cs),
(176,682,ls),
(106,682,o),
(104,657,o),
(104,576,cs),
(104,504,o),
(106,480,o),
(176,480,cs),
(776,480,l)
);
},
{
closed = 1;
nodes = (
(1094,-1,o),
(1096,22,o),
(1096,94,cs),
(1096,174,o),
(1094,201,o),
(1024,201,cs),
(186,201,ls),
(116,201,o),
(114,175,o),
(114,95,cs),
(114,23,o),
(116,-1,o),
(186,-1,cs),
(1024,-1,l)
);
}
);
userData = {
com.typemytype.robofont.guides = (
{
angle = 90;
isGlobal = 0;
magnetic = 5;
x = 1104;
y = 0;
}
);
};
vertWidth = 0;
width = 1215;
}
);
unicode = 163;
},
{
glyphname = yen;
layers = (
{
layerId = "3E12A9BE-1094-4827-ACE3-4E9390329AA7";
shapes = (
{
closed = 1;
nodes = (
(1002,307,o),
(1004,327,o),
(1004,392,cs),
(1004,458,o),
(1002,479,o),
(932,479,cs),
(230,479,ls),
(160,479,o),
(158,458,o),
(158,393,cs),
(158,328,o),
(160,307,o),
(230,307,cs),
(932,307,l)
);
},
{
closed = 1;
nodes = (
(214,840,ls),
(144,840,o),
(142,816,o),
(142,744,cs),
(142,679,o),
(144,658,o),
(214,658,cs),
(429,658,l),
(429,840,l)
);
},
{
closed = 1;
nodes = (
(949,658,ls),
(1019,658,o),
(1021,678,o),
(1021,743,cs),
(1021,815,o),
(1019,840,o),
(949,840,cs),
(702,840,l),
(702,658,l)
);
},
{
closed = 1;
nodes = (
(1082,1541,ls),
(1094,1578,o),
(1105,1606,o),
(1105,1632,cs),
(1105,1682,o),
(1070,1690,o),
(922,1690,cs),
(773,1690,o),
(753,1688,o),
(735,1602,cs),
(551,751,l),
(586,751,l),
(400,1602,ls),
(383,1687,o),
(362,1690,o),
(213,1690,cs),
(65,1690,o),
(30,1682,o),
(30,1632,cs),
(30,1606,o),
(39,1577,o),
(52,1541,cs),
(415,630,l),
(428,68,ls),
(430,7,o),
(444,0,o),
(568,0,cs),
(692,0,o),
(706,7,o),
(708,68,cs),
(721,623,l)
);
},
{
closed = 1;
nodes = (
(624,769,l),
(624,835,l),
(519,835,l),
(519,769,l)
);
}
);
vertWidth = 0;
width = 1135;
}
);
unicode = 165;
},
{
glyphname = plus;
layers = (
{
layerId = "3E12A9BE-1094-4827-ACE3-4E9390329AA7";
shapes = (
{
closed = 1;
nodes = (
(934,664,o),
(938,681,o),
(938,759,cs),
(938,845,o),
(934,866,o),
(866,866,cs),
(112,866,ls),
(44,866,o),
(40,846,o),
(40,760,cs),
(40,682,o),
(44,664,o),
(112,664,cs),
(866,664,l)
);
},
{
closed = 1;
nodes = (
(615,1220,o),
(583,1222,o),
(494,1222,cs),
(397,1222,o),
(361,1220,o),
(361,1150,cs),
(387,396,ls),
(388,326,o),
(411,324,o),
(493,324,cs),
(567,324,o),
(588,326,o),
(589,396,cs),
(615,1150,l)
);
}
);
userData = {
com.typemytype.robofont.guides = (
{
angle = 90;
isGlobal = 0;
magnetic = 5;
x = 633;
y = 0;
}
);
};
vertWidth = 0;
width = 978;
}
);
unicode = 43;
},
{
glyphname = minus;
layers = (
{
layerId = "3E12A9BE-1094-4827-ACE3-4E9390329AA7";
shapes = (
{
closed = 1;
nodes = (
(844,660,o),
(848,681,o),
(848,759,cs),
(848,845,o),
(844,870,o),
(776,870,cs),
(102,870,ls),
(34,870,o),
(30,846,o),
(30,760,cs),
(30,682,o),
(34,660,o),
(102,660,cs),
(776,660,l)
);
}
);
userData = {
com.typemytype.robofont.guides = (
{
angle = 90;
isGlobal = 0;
magnetic = 5;
x = 583;
y = 0;
}
);
};
vertWidth = 0;
width = 878;
}
);
unicode = 8722;
},
{
glyphname = multiply;
layers = (
{
layerId = "3E12A9BE-1094-4827-ACE3-4E9390329AA7";
shapes = (
{
closed = 1;
nodes = (
(952,1119,o),
(973,1137,o),
(973,1158,cs),
(973,1191,o),
(941,1201,o),
(830,1201,cs),
(726,1201,o),
(710,1197,o),
(672,1139,cs),
(447,821,l),
(437,701,l),
(699,386,ls),
(738,336,o),
(772,340,o),
(825,340,cs),
(904,340,o),
(929,347,o),
(929,380,cs),
(929,401,o),
(913,424,o),
(884,461,cs),
(650,762,l),
(919,1080,l)
);
},
{
closed = 1;
nodes = (
(131,461,ls),
(102,424,o),
(84,401,o),
(84,380,cs),
(84,347,o),
(109,340,o),
(188,340,cs),
(241,340,o),
(275,336,o),
(314,386,cs),
(576,701,l),
(566,821,l),
(341,1139,ls),
(303,1197,o),
(287,1201,o),
(183,1201,cs),
(72,1201,o),
(40,1191,o),
(40,1158,cs),
(40,1137,o),
(60,1118,o),
(94,1080,cs),
(363,762,l)
);
}
);
userData = {
com.typemytype.robofont.guides = (
{
angle = 0;
isGlobal = 0;
magnetic = 5;
x = 0;
y = 1021;
},
{
angle = 0;
isGlobal = 0;
magnetic = 5;
x = 0;
y = 169;
},
{
angle = 90;
isGlobal = 0;
magnetic = 5;
x = 741;
y = 0;
},
{
angle = 90;
isGlobal = 0;
magnetic = 5;
x = 41;
y = 0;
}
);
};
vertWidth = 0;
width = 1013;
}
);
unicode = 215;
},
{
glyphname = divide;
layers = (
{
layerId = "3E12A9BE-1094-4827-ACE3-4E9390329AA7";
shapes = (
{
closed = 1;
nodes = (
(932,664,o),
(936,685,o),
(936,763,cs),
(936,849,o),
(932,866,o),
(864,866,cs),
(489,866,l),
(112,866,ls),
(44,866,o),
(40,850,o),
(40,764,cs),
(40,686,o),
(44,664,o),
(112,664,cs),
(864,664,l)
);
},
{
closed = 1;
nodes = (
(616,526,o),
(630,510,o),
(627,453,cs),
(622,297,ls),
(619,247,o),
(602,237,o),
(489,237,cs),
(375,237,o),
(359,247,o),
(357,297,cs),
(351,453,ls),
(349,510,o),
(361,526,o),
(489,526,cs)
);
},
{
closed = 1;
nodes = (
(602,1002,o),
(631,1013,o),
(633,1063,cs),
(644,1246,ls),
(646,1303,o),
(621,1323,o),
(489,1323,cs),
(357,1323,o),
(331,1303,o),
(333,1246,cs),
(342,1063,ls),
(343,1013,o),
(368,1002,o),
(489,1002,cs)
);
}
);
userData = {
com.typemytype.robofont.guides = (
{
angle = 90;
isGlobal = 0;
magnetic = 5;
x = 595;
y = 0;
}
);
};
vertWidth = 0;
width = 976;
}
);
unicode = 247;
},
{
glyphname = equal;
layers = (
{
layerId = "3E12A9BE-1094-4827-ACE3-4E9390329AA7";
shapes = (
{
closed = 1;
nodes = (
(874,831,o),
(878,852,o),
(878,930,cs),
(878,1016,o),
(874,1041,o),
(806,1041,cs),
(132,1041,ls),
(64,1041,o),
(60,1017,o),
(60,931,cs),
(60,853,o),
(64,831,o),
(132,831,cs),
(806,831,l)
);
},
{
closed = 1;
nodes = (
(874,428,o),
(878,449,o),
(878,527,cs),
(878,613,o),
(874,638,o),
(806,638,cs),
(132,638,ls),
(64,638,o),
(60,614,o),
(60,528,cs),
(60,450,o),
(64,428,o),
(132,428,cs),
(806,428,l)
);
}
);
userData = {
com.typemytype.robofont.guides = (
{
angle = 90;
isGlobal = 0;
magnetic = 5;
x = 629;
y = 0;
}
);
};
vertWidth = 0;
width = 938;
}
);
unicode = 61;
},
{
glyphname = notequal;
layers = (
{
layerId = "3E12A9BE-1094-4827-ACE3-4E9390329AA7";
shapes = (
{
closed = 1;
nodes = (
(874,831,o),
(878,852,o),
(878,930,cs),
(878,1016,o),
(874,1041,o),
(806,1041,cs),
(132,1041,ls),
(64,1041,o),
(60,1017,o),
(60,931,cs),
(60,853,o),
(64,831,o),
(132,831,cs),
(806,831,l)
);
},
{
closed = 1;
nodes = (
(874,428,o),
(878,449,o),
(878,527,cs),
(878,613,o),
(874,638,o),
(806,638,cs),
(132,638,ls),
(64,638,o),
(60,614,o),
(60,528,cs),
(60,450,o),
(64,428,o),
(132,428,cs),
(806,428,l)
);
},
{
closed = 1;
nodes = (
(376,142,o),
(403,146,o),
(420,192,cs),
(726,1267,ls),
(745,1319,o),
(720,1336,o),
(606,1337,cs),
(491,1338,o),
(482,1319,o),
(464,1266,c),
(219,201,l),
(198,156,o),
(217,144,o),
(305,143,cs)
);
}
);
userData = {
com.typemytype.robofont.guides = (
{
angle = 90;
isGlobal = 0;
magnetic = 5;
x = 629;
y = 0;
}
);
};
vertWidth = 0;
width = 938;
}
);
unicode = 8800;
},
{
glyphname = less;
layers = (
{
layerId = "3E12A9BE-1094-4827-ACE3-4E9390329AA7";
shapes = (
{
closed = 1;
nodes = (
(648,363,ls),
(685,328,o),
(715,303,o),
(715,282,cs),
(715,249,o),
(699,242,o),
(604,242,cs),
(543,242,o),
(509,244,o),
(458,288,cs),
(100,597,ls),
(69,623,o),
(60,644,o),
(60,665,cs),
(60,686,o),
(68,701,o),
(94,733,cs),
(401,1099,ls),
(447,1154,o),
(477,1161,o),
(579,1161,cs),
(690,1161,o),
(722,1151,o),
(722,1118,cs),
(722,1097,o),
(709,1079,o),
(676,1040,cs),
(323,665,l)
);
}
);
userData = {
com.typemytype.robofont.guides = (
{
angle = 0;
isGlobal = 0;
magnetic = 5;
x = 0;
y = 593;
},
{
angle = 90;
isGlobal = 0;
magnetic = 5;
x = 714;
y = 0;
}
);
};
vertWidth = 0;
width = 802;
}
);
unicode = 60;
},
{
glyphname = plusminus;
layers = (
{
layerId = "3E12A9BE-1094-4827-ACE3-4E9390329AA7";
shapes = (
{
closed = 1;
nodes = (
(912,169,o),
(916,188,o),
(916,258,cs),
(916,336,o),
(913,359,o),
(844,359,cs),
(214,359,ls),
(146,359,o),
(142,337,o),
(142,259,cs),
(142,189,o),
(145,169,o),
(214,169,cs),
(844,169,l)
);
},
{
pos = (40,203);
ref = plus;
}
);
userData = {
com.typemytype.robofont.guides = (
{
angle = 90;
isGlobal = 0;
magnetic = 5;
x = 1108;
y = 0;
},
{
angle = 90;
isGlobal = 0;
magnetic = 5;
x = 530;
y = 0;
}
);
};
vertWidth = 0;
width = 1058;
}
);
unicode = 177;
},
{
glyphname = logicalnot;
layers = (
{
layerId = "3E12A9BE-1094-4827-ACE3-4E9390329AA7";
shapes = (
{
closed = 1;
nodes = (
(854,660,o),
(858,681,o),
(858,759,cs),
(858,845,o),
(854,870,o),
(786,870,cs),
(112,870,ls),
(44,870,o),
(40,846,o),
(40,760,cs),
(40,682,o),
(44,660,o),
(112,660,cs),
(786,660,l)
);
},
{
closed = 1;
nodes = (
(672,368,ls),
(673,318,o),
(696,311,o),
(764,311,cs),
(832,311,o),
(855,319,o),
(856,369,cs),
(859,759,l),
(668,759,l)
);
}
);
userData = {
com.typemytype.robofont.guides = (
{
angle = 90;
isGlobal = 0;
magnetic = 5;
x = 1047;
y = 0;
},
{
angle = 90;
isGlobal = 0;
magnetic = 5;
x = 70;
y = 0;
}
);
};
vertWidth = 0;
width = 939;
}
);
unicode = 172;
},
{
glyphname = asciitilde;
layers = (
{
layerId = "3E12A9BE-1094-4827-ACE3-4E9390329AA7";
shapes = (
{
closed = 1;
nodes = (
(995,528,o),
(1024,545,o),
(1064,615,cs),
(1238,929,ls),
(1264,975,o),
(1275,1006,o),
(1275,1033,cs),
(1275,1071,o),
(1235,1073,o),
(1130,1073,cs),
(1017,1073,o),
(1008,1068,o),
(982,1014,cs),
(904,855,ls),
(885,816,o),
(871,788,o),
(854,788,cs),
(838,788,o),
(819,810,o),
(801,830,cs),
(621,1016,ls),
(583,1056,o),
(565,1073,o),
(483,1073,cs),
(423,1073,ls),
(336,1073,o),
(302,1068,o),
(267,997,cs),
(94,664,ls),
(72,619,o),
(60,594,o),
(60,570,cs),
(60,538,o),
(88,527,o),
(165,527,cs),
(274,527,o),
(286,531,o),
(319,587,cs),
(403,734,ls),
(426,772,o),
(435,788,o),
(453,788,cs),
(465,788,o),
(475,778,o),
(506,747,cs),
(655,598,ls),
(717,535,o),
(743,528,o),
(819,528,cs),
(915,528,l)
);
}
);
userData = {
com.typemytype.robofont.guides = (
{
angle = 0;
isGlobal = 0;
magnetic = 5;
x = 0;
y = 437;
},
{
angle = 0;
isGlobal = 0;
magnetic = 5;
x = 0;
y = 981;
}
);
};
vertWidth = 0;
width = 1335;
}
);
unicode = 126;
},
{
glyphname = asciicircum;
layers = (
{
anchors = (
{
name = btm;
pos = (532,-170);
},
{
name = top;
pos = (532,1700);
}
);
layerId = "3E12A9BE-1094-4827-ACE3-4E9390329AA7";
shapes = (
{
closed = 1;
nodes = (
(410,1684,o),
(382,1658,o),
(365,1595,cs),
(64,396,ls),
(49,341,o),
(79,323,o),
(156,323,cs),
(254,323,o),
(268,341,o),
(284,396,cs),
(526,1237,l),
(550,1237,l),
(792,396,ls),
(808,341,o),
(822,323,o),
(920,323,cs),
(1005,323,o),
(1036,341,o),
(1022,396,cs),
(721,1595,ls),
(703,1658,o),
(673,1684,o),
(538,1684,cs)
);
}
);
vertWidth = 0;
width = 1086;
}
);
unicode = 94;
},
{
glyphname = mu;
layers = (
{
layerId = "3E12A9BE-1094-4827-ACE3-4E9390329AA7";
shapes = (
{
closed = 1;
nodes = (
(933,0,o),
(935,7,o),
(936,57,cs),
(977,1129,ls),
(979,1186,o),
(960,1202,o),
(815,1202,cs),
(688,1202,o),
(671,1186,o),
(673,1129,cs),
(702,126,l),
(726,126,l),
(726,57,o),
(754,0,o),
(842,0,cs)
);
},
{
closed = 1;
nodes = (
(344,-354,o),
(358,-323,o),
(358,-247,cs),
(358,124,l),
(396,171,l),
(419,1129,ls),
(420,1186,o),
(403,1202,o),
(267,1202,cs),
(122,1202,o),
(103,1186,o),
(105,1129,cs),
(148,-247,ls),
(150,-323,o),
(164,-354,o),
(252,-354,cs)
);
},
{
closed = 1;
nodes = (
(447,192,o),
(397,242,o),
(367,287,c),
(314,184,l),
(352,90,l),
(368,90,l),
(415,36,o),
(473,0,o),
(535,0,cs),
(623,0,o),
(685,61,o),
(749,184,c),
(702,261,l),
(664,224,o),
(615,192,o),
(535,192,cs)
);
},
{
closed = 1;
nodes = (
(1061,0,o),
(1063,18,o),
(1063,100,cs),
(1063,174,o),
(1061,190,o),
(991,190,cs),
(857,190,l),
(857,0,l),
(991,0,l)
);
}
);
userData = {
com.typemytype.robofont.guides = (
{
angle = 0;
isGlobal = 0;
magnetic = 5;
x = 0;
y = 1059;
},
{
angle = 90;
isGlobal = 0;
magnetic = 5;
x = 1125;
y = 0;
}
);
};
vertWidth = 0;
width = 1092;
}
);
unicode = 181;
},
{
glyphname = percent;
layers = (
{
layerId = "3E12A9BE-1094-4827-ACE3-4E9390329AA7";
shapes = (
{
closed = 1;
nodes = (
(506,-2,o),
(533,2,o),
(550,48,cs),
(1352,1629,ls),
(1371,1681,o),
(1346,1698,o),
(1232,1699,cs),
(1109,1700,o),
(1099,1681,o),
(1080,1628,cs),
(349,57,ls),
(328,12,o),
(347,0,o),
(435,-1,cs)
);
},
{
closed = 1;
nodes = (
(239,1699,o),
(69,1633,o),
(80,1463,cs),
(96,1142,ls),
(106,985,o),
(261,940,o),
(424,940,cs),
(586,940,o),
(743,985,o),
(752,1142,cs),
(766,1463,ls),
(776,1633,o),
(607,1699,o),
(424,1699,cs)
);
},
{
closed = 1;
nodes = (
(357,1070,o),
(310,1098,o),
(314,1183,cs),
(323,1463,ls),
(327,1540,o),
(358,1559,o),
(424,1559,cs),
(488,1559,o),
(520,1540,o),
(524,1463,cs),
(533,1183,ls),
(537,1099,o),
(489,1070,o),
(424,1070,cs)
);
},
{
closed = 1;
nodes = (
(1089,759,o),
(919,693,o),
(930,523,cs),
(946,202,ls),
(956,45,o),
(1111,0,o),
(1274,0,cs),
(1436,0,o),
(1593,45,o),
(1602,202,cs),
(1616,523,ls),
(1626,693,o),
(1457,759,o),
(1274,759,cs)
);
},
{
closed = 1;
nodes = (
(1207,130,o),
(1160,158,o),
(1164,243,cs),
(1173,523,ls),
(1177,600,o),
(1208,619,o),
(1274,619,cs),
(1338,619,o),
(1370,600,o),
(1374,523,cs),
(1383,243,ls),
(1387,158,o),
(1339,130,o),
(1274,130,cs)
);
}
);
vertWidth = 0;
width = 1698;
}
);
unicode = 37;
},
{
glyphname = uni2215;
layers = (
{
layerId = "3E12A9BE-1094-4827-ACE3-4E9390329AA7";
shapes = (
{
closed = 1;
nodes = (
(245,-2,o),
(272,2,o),
(289,48,cs),
(878,1687,ls),
(897,1739,o),
(872,1756,o),
(758,1757,cs),
(643,1758,o),
(634,1739,o),
(616,1686,cs),
(88,57,ls),
(67,12,o),
(86,0,o),
(174,-1,cs)
);
}
);
userData = {
com.typemytype.robofont.guides = (
{
angle = 90;
isGlobal = 0;
magnetic = 5;
x = 1009;
y = 0;
},
{
angle = 90;
isGlobal = 0;
magnetic = 5;
x = -16;
y = 0;
}
);
};
vertWidth = 0;
width = 964;
}
);
unicode = 8725;
},
{
glyphname = dieresis;
layers = (
{
anchors = (
{
name = _top;
pos = (0,1700);
}
);
layerId = "3E12A9BE-1094-4827-ACE3-4E9390329AA7";
shapes = (
{
closed = 1;
nodes = (
(-103,1407,o),
(-87,1414,o),
(-84,1464,cs),
(-73,1635,ls),
(-70,1692,o),
(-88,1708,o),
(-215,1708,cs),
(-342,1708,o),
(-361,1692,o),
(-357,1635,cs),
(-345,1464,ls),
(-342,1414,o),
(-327,1407,o),
(-215,1407,cs)
);
},
{
closed = 1;
nodes = (
(327,1407,o),
(343,1414,o),
(346,1464,cs),
(357,1635,ls),
(360,1692,o),
(342,1708,o),
(215,1708,cs),
(88,1708,o),
(69,1692,o),
(73,1635,cs),
(85,1464,ls),
(88,1414,o),
(103,1407,o),
(215,1407,cs)
);
}
);
vertWidth = 0;
width = 0;
}
);
unicode = 168;
},
{
glyphname = dotaccent;
layers = (
{
anchors = (
{
name = _top;
pos = (286,1700);
},
{
name = btm;
pos = (286,-170);
}
);
layerId = "3E12A9BE-1094-4827-ACE3-4E9390329AA7";
shapes = (
{
closed = 1;
nodes = (
(416,1360,o),
(436,1367,o),
(437,1417,cs),
(448,1612,ls),
(449,1669,o),
(431,1685,o),
(286,1685,cs),
(141,1685,o),
(123,1669,o),
(124,1612,cs),
(136,1417,ls),
(137,1367,o),
(156,1360,o),
(286,1360,cs)
);
}
);
vertWidth = 0;
width = 568;
}
);
unicode = 729;
},
{
glyphname = grave;
layers = (
{
anchors = (
{
name = _top;
pos = (0,1700);
}
);
layerId = "3E12A9BE-1094-4827-ACE3-4E9390329AA7";
shapes = (
{
closed = 1;
nodes = (
(84,1472,o),
(106,1444,o),
(106,1419,cs),
(106,1393,o),
(78,1382,o),
(10,1382,cs),
(-86,1382,o),
(-92,1393,o),
(-129,1441,cs),
(-301,1667,ls),
(-325,1698,o),
(-343,1724,o),
(-343,1745,cs),
(-343,1772,o),
(-319,1784,o),
(-209,1784,cs),
(-98,1784,o),
(-78,1775,o),
(-50,1722,cs),
(57,1522,l)
);
}
);
vertWidth = 0;
width = 0;
}
);
unicode = 96;
},
{
glyphname = acute;
layers = (
{
anchors = (
{
name = _top;
pos = (0,1700);
}
);
layerId = "3E12A9BE-1094-4827-ACE3-4E9390329AA7";
shapes = (
{
closed = 1;
nodes = (
(-105,1472,o),
(-127,1444,o),
(-127,1419,cs),
(-127,1393,o),
(-99,1382,o),
(-31,1382,cs),
(65,1382,o),
(71,1393,o),
(108,1441,cs),
(280,1667,ls),
(304,1698,o),
(322,1724,o),
(322,1745,cs),
(322,1772,o),
(298,1784,o),
(188,1784,cs),
(77,1784,o),
(57,1775,o),
(29,1722,cs),
(-78,1522,l)
);
}
);
vertWidth = 0;
width = 0;
}
);
unicode = 180;
},
{
glyphname = hungarumlaut;
layers = (
{
anchors = (
{
name = _top;
pos = (0,1700);
}
);
layerId = "3E12A9BE-1094-4827-ACE3-4E9390329AA7";
shapes = (
{
closed = 1;
nodes = (
(-235,1472,o),
(-257,1444,o),
(-257,1419,cs),
(-257,1393,o),
(-229,1382,o),
(-161,1382,cs),
(-65,1382,o),
(-59,1393,o),
(-22,1441,cs),
(150,1667,ls),
(174,1698,o),
(192,1724,o),
(192,1745,cs),
(192,1772,o),
(168,1784,o),
(58,1784,cs),
(-53,1784,o),
(-73,1775,o),
(-101,1722,cs),
(-208,1522,l)
);
},
{
closed = 1;
nodes = (
(150,1472,o),
(128,1444,o),
(128,1419,cs),
(128,1393,o),
(156,1382,o),
(224,1382,cs),
(320,1382,o),
(326,1393,o),
(363,1441,cs),
(535,1667,ls),
(559,1698,o),
(577,1724,o),
(577,1745,cs),
(577,1772,o),
(553,1784,o),
(443,1784,cs),
(332,1784,o),
(312,1775,o),
(284,1722,cs),
(177,1522,ls)
);
}
);
vertWidth = 0;
width = 0;
}
);
unicode = 733;
},
{
glyphname = circumflex;
layers = (
{
anchors = (
{
name = _top;
pos = (0,1700);
}
);
layerId = "3E12A9BE-1094-4827-ACE3-4E9390329AA7";
shapes = (
{
closed = 1;
nodes = (
(-352,1475,o),
(-373,1449,o),
(-373,1421,cs),
(-373,1395,o),
(-348,1382,o),
(-272,1382,cs),
(-188,1382,o),
(-176,1396,o),
(-137,1441,cs),
(-39,1556,ls),
(-23,1575,o),
(-11,1585,o),
(1,1585,cs),
(13,1585,o),
(24,1575,o),
(37,1560,cs),
(138,1441,ls),
(176,1397,o),
(190,1382,o),
(271,1382,cs),
(347,1382,o),
(373,1395,o),
(373,1421,cs),
(373,1449,o),
(354,1476,o),
(324,1524,cs),
(201,1722,ls),
(168,1775,o),
(142,1792,o),
(24,1792,cs),
(-24,1792,ls),
(-142,1792,o),
(-167,1775,o),
(-201,1722,cs),
(-324,1524,l)
);
}
);
vertWidth = 0;
width = 0;
}
);
unicode = 710;
},
{
glyphname = uni02C9;
layers = (
{
anchors = (
{
name = _top;
pos = (0,1700);
}
);
layerId = "3E12A9BE-1094-4827-ACE3-4E9390329AA7";
shapes = (
{
closed = 1;
nodes = (
(357,1839,o),
(359,1864,o),
(359,1946,cs),
(359,2036,o),
(357,2065,o),
(287,2065,cs),
(-281,2065,ls),
(-351,2065,o),
(-353,2037,o),
(-353,1947,cs),
(-353,1865,o),
(-351,1839,o),
(-281,1839,cs),
(287,1839,l)
);
}
);
vertWidth = 0;
width = 0;
}
);
unicode = 713;
},
{
glyphname = caron;
layers = (
{
anchors = (
{
name = _top;
pos = (0,1700);
}
);
layerId = "3E12A9BE-1094-4827-ACE3-4E9390329AA7";
shapes = (
{
closed = 1;
nodes = (
(-130,1775,o),
(-144,1784,o),
(-255,1784,cs),
(-357,1784,o),
(-376,1774,o),
(-376,1747,cs),
(-376,1726,o),
(-352,1694,o),
(-334,1671,cs),
(-152,1441,ls),
(-115,1394,o),
(-103,1382,o),
(-9,1382,cs),
(7,1382,ls),
(103,1382,o),
(115,1394,o),
(152,1441,cs),
(336,1671,ls),
(355,1694,o),
(378,1726,o),
(378,1747,cs),
(378,1774,o),
(359,1784,o),
(257,1784,cs),
(146,1784,o),
(139,1774,o),
(108,1722,cs),
(33,1597,ls),
(20,1574,o),
(11,1563,o),
(1,1563,cs),
(-10,1563,o),
(-19,1575,o),
(-33,1601,cs),
(-99,1722,l)
);
}
);
vertWidth = 0;
width = 0;
}
);
unicode = 711;
},
{
glyphname = breve;
layers = (
{
anchors = (
{
name = _top;
pos = (0,1700);
}
);
layerId = "3E12A9BE-1094-4827-ACE3-4E9390329AA7";
shapes = (
{
closed = 1;
nodes = (
(-129,1783,o),
(-187,1784,o),
(-275,1784,cs),
(-377,1784,o),
(-376,1754,o),
(-376,1727,cs),
(-376,1501,o),
(-200,1382,o),
(-9,1382,cs),
(8,1382,ls),
(200,1382,o),
(378,1453,o),
(378,1727,cs),
(378,1754,o),
(379,1784,o),
(277,1784,cs),
(186,1784,o),
(133,1782,o),
(133,1722,cs),
(133,1612,o),
(100,1563,o),
(1,1563,cs),
(-100,1563,o),
(-129,1613,o),
(-129,1722,cs)
);
}
);
vertWidth = 0;
width = 0;
}
);
unicode = 728;
},
{
glyphname = ring;
layers = (
{
anchors = (
{
name = _top;
pos = (0,1700);
}
);
layerId = "3E12A9BE-1094-4827-ACE3-4E9390329AA7";
shapes = (
{
closed = 1;
nodes = (
(-285,1738,o),
(-159,1800,o),
(-1,1800,cs),
(157,1800,o),
(283,1738,o),
(283,1599,cs),
(283,1542,ls),
(283,1403,o),
(157,1341,o),
(-1,1341,cs),
(-159,1341,o),
(-285,1403,o),
(-285,1542,cs),
(-285,1599,l)
);
},
{
closed = 1;
nodes = (
(89,1649,o),
(60,1680,o),
(-1,1680,cs),
(-62,1680,o),
(-91,1649,o),
(-91,1598,cs),
(-91,1543,ls),
(-91,1492,o),
(-62,1461,o),
(-1,1461,cs),
(60,1461,o),
(89,1492,o),
(89,1543,cs),
(89,1598,l)
);
}
);
vertWidth = 0;
width = 0;
}
);
unicode = 730;
},
{
glyphname = tilde;
layers = (
{
anchors = (
{
name = _top;
pos = (0,1700);
}
);
layerId = "3E12A9BE-1094-4827-ACE3-4E9390329AA7";
shapes = (
{
closed = 1;
nodes = (
(230,1382,o),
(252,1395,o),
(282,1448,cs),
(387,1633,ls),
(407,1668,o),
(415,1692,o),
(415,1712,cs),
(415,1741,o),
(385,1743,o),
(305,1743,cs),
(219,1743,o),
(212,1739,o),
(192,1698,cs),
(160,1631,ls),
(146,1601,o),
(135,1580,o),
(122,1580,cs),
(110,1580,o),
(96,1597,o),
(82,1612,cs),
(0,1699,ls),
(-29,1730,o),
(-43,1743,o),
(-105,1743,cs),
(-151,1743,ls),
(-217,1743,o),
(-243,1739,o),
(-270,1685,cs),
(-370,1486,ls),
(-387,1452,o),
(-396,1433,o),
(-396,1415,cs),
(-396,1390,o),
(-375,1382,o),
(-316,1382,cs),
(-233,1382,o),
(-224,1385,o),
(-199,1428,cs),
(-166,1485,ls),
(-149,1514,o),
(-142,1526,o),
(-128,1526,cs),
(-119,1526,o),
(-111,1518,o),
(-88,1495,cs),
(-29,1435,ls),
(18,1387,o),
(38,1382,o),
(96,1382,cs),
(169,1382,l)
);
}
);
userData = {
com.typemytype.robofont.guides = (
{
angle = 90;
isGlobal = 0;
magnetic = 5;
x = -400;
y = 0;
},
{
angle = 90;
isGlobal = 0;
magnetic = 5;
x = 461;
y = 0;
}
);
};
vertWidth = 0;
width = 0;
}
);
unicode = 732;
},
{
glyphname = macron;
layers = (
{
anchors = (
{
name = _top;
pos = (0,1700);
}
);
layerId = "3E12A9BE-1094-4827-ACE3-4E9390329AA7";
shapes = (
{
closed = 1;
nodes = (
(341,1439,o),
(343,1464,o),
(343,1546,cs),
(343,1636,o),
(341,1665,o),
(271,1665,cs),
(-265,1665,ls),
(-335,1665,o),
(-337,1637,o),
(-337,1547,cs),
(-337,1465,o),
(-335,1439,o),
(-265,1439,cs),
(271,1439,l)
);
}
);
vertWidth = 0;
width = 0;
}
);
unicode = 175;
},
{
glyphname = cedilla;
layers = (
{
anchors = (
{
name = _btm;
pos = (0,-170);
}
);
layerId = "3E12A9BE-1094-4827-ACE3-4E9390329AA7";
shapes = (
{
closed = 1;
nodes = (
(-218,-330,o),
(-208,-340,o),
(-177,-340,cs),
(-79,-340,ls),
(-40,-340,o),
(-27,-337,o),
(-9,-292,cs),
(157,86,l),
(-79,86,l),
(-198,-249,ls),
(-207,-276,o),
(-218,-297,o),
(-218,-309,cs)
);
}
);
vertWidth = 0;
width = 0;
}
);
unicode = 184;
},
{
glyphname = ogonek;
layers = (
{
layerId = "3E12A9BE-1094-4827-ACE3-4E9390329AA7";
shapes = (
{
closed = 1;
nodes = (
(29,28,o),
(-36,29,o),
(-72,29,cs),
(-129,29,o),
(-219,-104,o),
(-219,-226,cs),
(-219,-380,o),
(-116,-466,o),
(19,-466,cs),
(113,-466,o),
(198,-448,o),
(243,-396,cs),
(253,-383,o),
(252,-359,o),
(245,-333,cs),
(225,-266,o),
(217,-206,o),
(185,-206,cs),
(138,-206,o),
(124,-230,o),
(58,-230,cs),
(17,-230,o),
(-32,-184,o),
(-32,-112,cs),
(-32,-60,o),
(-5,7,o),
(88,28,c)
);
}
);
vertWidth = 0;
width = 0;
}
);
unicode = 731;
},
{
glyphname = dieresis.cap;
layers = (
{
anchors = (
{
name = _top;
pos = (0,1700);
}
);
layerId = "3E12A9BE-1094-4827-ACE3-4E9390329AA7";
shapes = (
{
closed = 1;
nodes = (
(-111,1817,o),
(-95,1824,o),
(-92,1874,cs),
(-81,2037,ls),
(-78,2094,o),
(-96,2110,o),
(-223,2110,cs),
(-350,2110,o),
(-369,2094,o),
(-365,2037,cs),
(-353,1874,ls),
(-350,1824,o),
(-335,1817,o),
(-223,1817,cs)
);
},
{
closed = 1;
nodes = (
(335,1817,o),
(351,1824,o),
(354,1874,cs),
(365,2037,ls),
(368,2094,o),
(350,2110,o),
(223,2110,cs),
(96,2110,o),
(77,2094,o),
(81,2037,cs),
(93,1874,ls),
(96,1824,o),
(111,1817,o),
(223,1817,cs)
);
}
);
vertWidth = 0;
width = 0;
}
);
},
{
glyphname = dotaccent.cap;
layers = (
{
anchors = (
{
name = _top;
pos = (0,1700);
}
);
layerId = "3E12A9BE-1094-4827-ACE3-4E9390329AA7";
shapes = (
{
closed = 1;
nodes = (
(130,1788,o),
(150,1795,o),
(151,1845,c),
(162,2040,l),
(163,2097,o),
(145,2113,o),
(0,2113,cs),
(-145,2113,o),
(-163,2097,o),
(-162,2040,c),
(-150,1845,l),
(-149,1795,o),
(-130,1788,o),
(0,1788,cs)
);
}
);
vertWidth = 0;
width = 0;
}
);
},
{
glyphname = grave.cap;
layers = (
{
anchors = (
{
name = _top;
pos = (0,1700);
}
);
layerId = "3E12A9BE-1094-4827-ACE3-4E9390329AA7";
shapes = (
{
closed = 1;
nodes = (
(104,1861,o),
(130,1827,o),
(130,1804,cs),
(130,1778,o),
(100,1770,o),
(32,1770,cs),
(-64,1770,o),
(-70,1780,o),
(-108,1827,cs),
(-252,2005,ls),
(-277,2037,o),
(-297,2062,o),
(-297,2083,cs),
(-297,2110,o),
(-267,2118,o),
(-165,2118,cs),
(-52,2118,o),
(-36,2109,o),
(-6,2056,cs),
(76,1910,l)
);
}
);
vertWidth = 0;
width = 0;
}
);
},
{
glyphname = acute.cap;
layers = (
{
anchors = (
{
name = _top;
pos = (0,1700);
}
);
layerId = "3E12A9BE-1094-4827-ACE3-4E9390329AA7";
shapes = (
{
closed = 1;
nodes = (
(-91,1861,o),
(-117,1827,o),
(-117,1804,cs),
(-117,1778,o),
(-87,1770,o),
(-19,1770,cs),
(77,1770,o),
(83,1780,o),
(121,1827,cs),
(265,2005,ls),
(290,2037,o),
(310,2062,o),
(310,2083,cs),
(310,2110,o),
(280,2118,o),
(178,2118,cs),
(65,2118,o),
(49,2109,o),
(19,2056,cs),
(-63,1910,l)
);
}
);
vertWidth = 0;
width = 0;
}
);
},
{
glyphname = hungarumlaut.cap;
layers = (
{
anchors = (
{
name = _top;
pos = (0,1700);
}
);
layerId = "3E12A9BE-1094-4827-ACE3-4E9390329AA7";
shapes = (
{
closed = 1;
nodes = (
(-301,1861,o),
(-327,1827,o),
(-327,1804,cs),
(-327,1778,o),
(-297,1770,o),
(-229,1770,cs),
(-133,1770,o),
(-127,1780,o),
(-89,1827,cs),
(55,2005,ls),
(80,2037,o),
(100,2062,o),
(100,2083,cs),
(100,2110,o),
(70,2118,o),
(-32,2118,cs),
(-145,2118,o),
(-161,2109,o),
(-191,2056,cs),
(-273,1910,l)
);
},
{
closed = 1;
nodes = (
(83,1861,o),
(54,1827,o),
(52,1804,cs),
(50,1778,o),
(80,1770,o),
(148,1770,cs),
(244,1770,o),
(250,1780,o),
(292,1827,cs),
(450,2005,ls),
(477,2037,o),
(499,2062,o),
(501,2083,cs),
(503,2110,o),
(474,2118,o),
(372,2118,cs),
(259,2118,o),
(242,2109,o),
(208,2056,cs),
(114,1910,ls)
);
}
);
vertWidth = 0;
width = 0;
}
);
},
{
glyphname = circumflex.cap;
layers = (
{
anchors = (
{
name = _top;
pos = (0,1700);
}
);
layerId = "3E12A9BE-1094-4827-ACE3-4E9390329AA7";
shapes = (
{
closed = 1;
nodes = (
(-346,1848,o),
(-364,1827,o),
(-364,1806,cs),
(-364,1780,o),
(-344,1770,o),
(-271,1770,cs),
(-195,1770,o),
(-186,1779,o),
(-131,1832,cs),
(-42,1917,ls),
(-23,1935,o),
(-11,1944,o),
(1,1944,cs),
(13,1944,o),
(25,1935,o),
(42,1918,cs),
(134,1832,ls),
(188,1781,o),
(202,1770,o),
(272,1770,cs),
(354,1770,o),
(365,1780,o),
(365,1806,cs),
(365,1827,o),
(348,1848,o),
(315,1894,cs),
(196,2056,ls),
(155,2112,o),
(127,2118,o),
(82,2118,cs),
(-73,2118,ls),
(-129,2118,o),
(-158,2112,o),
(-198,2056,cs),
(-314,1894,ls)
);
}
);
vertWidth = 0;
width = 0;
}
);
},
{
glyphname = caron.cap;
layers = (
{
anchors = (
{
name = _top;
pos = (0,1700);
}
);
layerId = "3E12A9BE-1094-4827-ACE3-4E9390329AA7";
shapes = (
{
closed = 1;
nodes = (
(-129,2114,o),
(-144,2118,o),
(-255,2118,cs),
(-357,2118,o),
(-376,2108,o),
(-376,2081,cs),
(-376,2060,o),
(-345,2026,o),
(-325,2005,cs),
(-160,1830,ls),
(-119,1786,o),
(-103,1784,o),
(-9,1784,cs),
(7,1784,ls),
(103,1784,o),
(118,1786,o),
(160,1830,cs),
(327,2005,ls),
(348,2027,o),
(378,2060,o),
(378,2081,cs),
(378,2108,o),
(359,2118,o),
(257,2118,cs),
(154,2118,o),
(139,2112,o),
(103,2064,cs),
(40,1981,ls),
(24,1960,o),
(13,1947,o),
(1,1947,cs),
(-12,1947,o),
(-22,1959,o),
(-40,1985,cs),
(-95,2064,l)
);
}
);
vertWidth = 0;
width = 0;
}
);
},
{
glyphname = breve.cap;
layers = (
{
anchors = (
{
name = _top;
pos = (0,1700);
}
);
layerId = "3E12A9BE-1094-4827-ACE3-4E9390329AA7";
shapes = (
{
closed = 1;
nodes = (
(-129,2117,o),
(-187,2118,o),
(-275,2118,cs),
(-377,2118,o),
(-376,2088,o),
(-376,2061,cs),
(-376,1876,o),
(-200,1776,o),
(-9,1776,cs),
(8,1776,ls),
(200,1776,o),
(378,1835,o),
(378,2061,cs),
(378,2088,o),
(379,2118,o),
(277,2118,cs),
(186,2118,o),
(133,2116,o),
(133,2056,cs),
(133,1988,o),
(100,1957,o),
(1,1957,cs),
(-100,1957,o),
(-129,1989,o),
(-129,2056,cs)
);
}
);
vertWidth = 0;
width = 0;
}
);
},
{
glyphname = ring.cap;
layers = (
{
anchors = (
{
name = _top;
pos = (0,1700);
}
);
layerId = "3E12A9BE-1094-4827-ACE3-4E9390329AA7";
shapes = (
{
closed = 1;
nodes = (
(-314,1705,o),
(-176,1643,o),
(0,1643,cs),
(176,1643,o),
(314,1705,o),
(314,1844,cs),
(314,1917,ls),
(314,2056,o),
(176,2118,o),
(0,2118,cs),
(-176,2118,o),
(-314,2056,o),
(-314,1917,c),
(-314,1844,l)
);
},
{
closed = 1;
nodes = (
(100,1794,o),
(68,1763,o),
(0,1763,cs),
(-68,1763,o),
(-100,1794,o),
(-100,1845,cs),
(-100,1916,ls),
(-100,1967,o),
(-68,1998,o),
(0,1998,cs),
(68,1998,o),
(100,1967,o),
(100,1916,c),
(100,1845,l)
);
}
);
vertWidth = 0;
width = 0;
}
);
},
{
glyphname = tilde.cap;
layers = (
{
anchors = (
{
name = _top;
pos = (0,1700);
}
);
layerId = "3E12A9BE-1094-4827-ACE3-4E9390329AA7";
shapes = (
{
closed = 1;
nodes = (
(246,1781,o),
(270,1792,o),
(294,1840,cs),
(379,2008,ls),
(397,2044,o),
(407,2067,o),
(407,2087,cs),
(407,2116,o),
(377,2118,o),
(297,2118,cs),
(211,2118,o),
(200,2117,o),
(184,2073,cs),
(162,2012,ls),
(149,1977,o),
(140,1967,o),
(127,1967,cs),
(112,1967,o),
(96,1982,o),
(71,2007,cs),
(7,2074,ls),
(-23,2104,o),
(-37,2118,o),
(-99,2118,cs),
(-157,2118,ls),
(-214,2118,o),
(-251,2116,o),
(-276,2060,cs),
(-354,1883,ls),
(-368,1852,o),
(-378,1833,o),
(-378,1815,cs),
(-378,1790,o),
(-357,1782,o),
(-298,1782,cs),
(-215,1782,o),
(-203,1783,o),
(-182,1823,cs),
(-157,1871,ls),
(-140,1903,o),
(-133,1914,o),
(-119,1914,cs),
(-111,1914,o),
(-105,1913,o),
(-82,1890,cs),
(-25,1834,ls),
(23,1786,o),
(40,1781,o),
(98,1781,cs),
(185,1781,l)
);
}
);
userData = {
com.typemytype.robofont.guides = (
{
angle = 0;
isGlobal = 0;
magnetic = 5;
x = 0;
y = 1766;
},
{
angle = 90;
isGlobal = 0;
magnetic = 5;
x = -431;
y = 0;
},
{
angle = 90;
isGlobal = 0;
magnetic = 5;
x = 430;
y = 0;
}
);
};
vertWidth = 0;
width = 0;
}
);
},
{
glyphname = macron.cap;
layers = (
{
anchors = (
{
name = _top;
pos = (0,1700);
}
);
layerId = "3E12A9BE-1094-4827-ACE3-4E9390329AA7";
shapes = (
{
closed = 1;
nodes = (
(357,1839,o),
(359,1864,o),
(359,1946,cs),
(359,2036,o),
(357,2065,o),
(287,2065,cs),
(-281,2065,ls),
(-351,2065,o),
(-353,2037,o),
(-353,1947,cs),
(-353,1865,o),
(-351,1839,o),
(-281,1839,cs),
(287,1839,l)
);
}
);
vertWidth = 0;
width = 0;
}
);
},
